<?xml version="1.0" standalone="no"?>
<!DOCTYPE svg PUBLIC "-//W3C//DTD SVG 20010904//EN"
 "http://www.w3.org/TR/2001/REC-SVG-20010904/DTD/svg10.dtd">
<svg version="1.0" xmlns="http://www.w3.org/2000/svg"
 width="500.000000pt" height="500.000000pt" viewBox="0 0 500.000000 500.000000"
 preserveAspectRatio="xMidYMid meet">

<g transform="translate(0.000000,500.000000) scale(0.100000,-0.100000)"
fill="#000000" stroke="none">
<path d="M2235 4309 c-246 -24 -507 -103 -710 -217 -227 -127 -449 -330 -587
-537 -351 -528 -402 -1251 -127 -1811 104 -214 287 -442 477 -597 189 -155
478 -293 705 -337 60 -12 69 -12 84 3 15 15 14 16 -13 22 -225 51 -299 77
-474 166 -313 159 -593 448 -746 768 -166 347 -211 749 -129 1144 33 158 75
281 150 432 82 165 173 293 300 420 144 145 268 236 442 323 554 279 1254 245
1756 -84 405 -265 673 -664 753 -1123 17 -100 18 -101 36 -83 19 18 19 21 -6
138 -70 340 -224 619 -482 878 -364 365 -887 546 -1429 495z"/>
<path d="M2383 3918 c-91 -95 -353 -464 -562 -793 -158 -248 -281 -425 -295
-425 -6 0 -67 25 -136 55 -69 30 -155 62 -191 71 -88 23 -200 15 -271 -19 -66
-32 -103 -61 -94 -75 4 -7 33 2 84 26 70 34 86 37 179 40 74 3 117 -1 159 -13
91 -26 254 -97 254 -110 0 -19 -163 -217 -231 -279 -108 -100 -219 -134 -268
-82 -35 37 -61 118 -61 191 0 65 -10 81 -30 46 -14 -28 -12 -79 5 -139 38
-129 144 -176 262 -117 63 32 159 127 270 268 47 59 91 106 97 104 59 -22 228
-69 296 -83 47 -9 86 -18 88 -19 2 -2 -13 -57 -32 -122 -49 -160 -59 -221 -40
-251 23 -36 38 -21 46 44 7 64 71 275 94 312 11 17 24 22 57 22 61 0 162 18
230 41 33 11 74 19 92 17 l33 -3 -100 -135 c-116 -157 -195 -285 -204 -329 -7
-34 13 -73 46 -91 27 -15 76 8 155 70 70 56 235 225 235 242 0 13 -6 9 -156
-109 -121 -95 -179 -132 -189 -121 -18 18 110 222 249 400 76 97 83 100 211
95 l60 -2 3 31 c4 36 -12 44 -87 44 l-43 0 148 153 c150 155 192 211 181 241
-25 64 -157 -45 -356 -296 l-84 -106 -71 -7 c-85 -8 -101 -15 -93 -44 4 -18
-2 -23 -46 -36 -114 -33 -257 -47 -257 -25 0 13 168 464 293 785 152 390 184
504 158 554 -17 32 -42 26 -88 -21z m61 -20 c-13 -82 -58 -207 -231 -637 -96
-239 -192 -484 -215 -545 -22 -61 -43 -114 -47 -118 -17 -19 -357 59 -380 86
-7 8 9 39 52 101 35 50 111 167 171 260 314 492 606 895 648 895 5 0 5 -19 2
-42z"/>
<path d="M3603 3291 c-67 -53 -363 -410 -583 -705 l-74 -98 -51 5 c-27 4 -85
9 -127 13 l-78 7 0 -26 c0 -48 28 -67 113 -74 42 -3 77 -8 77 -10 0 -9 -386
-532 -471 -638 -106 -132 -155 -182 -166 -172 -10 11 15 101 59 207 70 169 91
230 84 238 -12 12 -34 -24 -122 -203 -83 -167 -139 -316 -150 -399 -7 -48 12
-76 49 -76 33 0 119 97 284 321 81 111 236 319 343 463 l195 261 95 15 c158
27 190 44 190 100 0 17 -4 20 -17 15 -28 -12 -135 -35 -166 -35 -27 0 -25 4
68 128 66 86 162 191 299 327 251 248 296 313 250 359 -24 25 -48 19 -101 -23z"/>
<path d="M3950 2648 c0 -63 14 -128 26 -128 9 0 14 11 14 29 0 29 1 30 70 37
60 6 70 9 70 26 0 14 -5 18 -17 14 -10 -3 -43 -6 -73 -8 -53 -2 -55 -1 -58 25
-4 33 -32 37 -32 5z"/>
<path d="M3960 2396 c0 -25 164 -37 173 -12 6 16 -39 26 -120 26 -38 0 -53 -4
-53 -14z"/>
<path d="M3947 2263 c-3 -5 -8 -24 -12 -43 -3 -19 -9 -42 -11 -51 -4 -13 12
-19 82 -33 47 -10 88 -15 91 -12 12 12 -8 35 -34 38 -26 3 -28 6 -25 42 3 29
0 37 -10 34 -7 -3 -15 -18 -18 -34 -5 -27 -10 -30 -40 -25 -6 0 -8 17 -4 40 6
35 -7 64 -19 44z"/>
<path d="M3279 2151 c-35 -35 -38 -77 -8 -115 16 -21 29 -26 63 -26 52 0 86
31 86 77 0 45 -9 62 -41 78 -42 22 -67 18 -100 -14z"/>
<path d="M3816 1842 l-24 -48 75 -38 c41 -20 77 -36 78 -34 8 10 45 89 45 98
0 21 -17 9 -33 -25 -17 -35 -31 -42 -55 -26 -12 7 -11 14 2 39 19 36 19 42 6
42 -5 0 -16 -13 -25 -30 -17 -32 -22 -35 -45 -20 -12 8 -12 14 3 45 20 42 20
45 7 45 -5 0 -21 -22 -34 -48z"/>
<path d="M3716 1671 c-3 -5 5 -16 19 -25 31 -20 31 -33 1 -69 l-22 -28 -26 21
c-30 23 -38 25 -38 7 0 -17 128 -108 136 -96 3 5 -6 19 -20 30 -32 25 -32 32
-4 69 l22 30 32 -25 c22 -17 34 -21 37 -12 2 6 -25 33 -59 59 -68 51 -70 53
-78 39z"/>
<path d="M3515 1436 c-27 -24 -47 -47 -43 -52 5 -4 17 1 28 11 20 18 22 18 74
-34 68 -68 79 -53 15 19 -47 53 -48 55 -29 69 20 13 27 31 13 31 -5 0 -30 -20
-58 -44z"/>
<path d="M3205 1220 c-27 -17 -54 -32 -60 -34 -6 -2 -6 -8 1 -16 9 -9 17 -9
32 -1 19 10 24 5 53 -47 40 -71 35 -66 53 -59 12 5 8 19 -20 71 l-35 66 25 11
c14 7 22 17 19 25 -7 19 -10 18 -68 -16z"/>
<path d="M3016 1132 c-3 -5 2 -34 11 -65 18 -66 8 -90 -36 -85 -22 3 -29 12
-46 61 -14 39 -25 57 -37 57 -16 0 -16 -4 -2 -52 20 -68 48 -98 91 -98 66 0
86 49 59 139 -13 44 -29 61 -40 43z"/>
<path d="M2131 1029 c-28 -40 -51 -76 -51 -81 0 -13 22 -9 41 8 25 23 65 11
73 -21 4 -14 13 -25 22 -25 12 0 14 10 8 60 -10 90 -18 123 -31 127 -6 2 -34
-28 -62 -68z m59 -9 c0 -23 -4 -30 -20 -30 -24 0 -25 8 -4 38 20 29 24 28 24
-8z"/>
<path d="M2684 1060 c-87 -35 -62 -170 31 -170 92 0 115 130 29 166 -19 8 -35
14 -36 13 -2 0 -13 -4 -24 -9z m74 -79 c4 -39 -12 -61 -44 -61 -53 0 -70 90
-21 109 32 13 61 -9 65 -48z"/>
<path d="M2376 1029 c-3 -17 -6 -58 -6 -90 l0 -59 58 0 c32 0 63 5 70 12 15
15 16 50 1 65 -8 8 -7 16 2 30 24 40 -14 73 -85 73 -29 0 -34 -4 -40 -31z m92
-26 c3 -20 -1 -23 -27 -23 -27 0 -31 4 -31 26 0 22 4 25 28 22 19 -2 28 -9 30
-25z m6 -63 c15 -15 -5 -30 -40 -30 -26 0 -34 4 -34 18 0 10 3 22 6 25 8 8 55
-2 68 -13z"/>
</g>
</svg>
