<?xml version="1.0" ?><svg data-name="Layer 1" id="Layer_1" viewBox="0 0 2000 2000" xmlns="http://www.w3.org/2000/svg" xmlns:xlink="http://www.w3.org/1999/xlink"><defs><style>.cls-1{fill:none;}.cls-18,.cls-2,.cls-22,.cls-3,.cls-5{fill-rule:evenodd;}.cls-3,.cls-4{fill:#e6e6e6;}.cls-15,.cls-5{fill:#fff;}.cls-6{clip-path:url(#clip-path);}.cls-7{clip-path:url(#clip-path-2);}.cls-8{clip-path:url(#clip-path-3);}.cls-9{clip-path:url(#clip-path-4);}.cls-10{clip-path:url(#clip-path-5);}.cls-11{clip-path:url(#clip-path-6);}.cls-12{clip-path:url(#clip-path-7);}.cls-13,.cls-22{fill:#ffa41b;}.cls-14{clip-path:url(#clip-path-8);}.cls-16{clip-path:url(#clip-path-9);}.cls-17{clip-path:url(#clip-path-10);}.cls-18{fill:#00eefa;}.cls-19{clip-path:url(#clip-path-11);}.cls-20{clip-path:url(#clip-path-12);}.cls-21{clip-path:url(#clip-path-13);}.cls-23{clip-path:url(#clip-path-14);}.cls-24{clip-path:url(#clip-path-15);}.cls-25{clip-path:url(#clip-path-16);}.cls-26{clip-path:url(#clip-path-17);}.cls-27{clip-path:url(#clip-path-18);}.cls-28{clip-path:url(#clip-path-19);}.cls-29{clip-path:url(#clip-path-20);}.cls-30{clip-path:url(#clip-path-21);}.cls-31{clip-path:url(#clip-path-22);}.cls-32{clip-path:url(#clip-path-23);}</style><clipPath id="clip-path"><path class="cls-1" d="M1687.23,954.48c39.73,0,119.18,161.35,119.18,288.29s-53.41,171.65-119.18,171.65-119.17-44.74-119.17-171.65S1647.51,954.48,1687.23,954.48Z"/></clipPath><clipPath id="clip-path-2"><path class="cls-1" d="M1832.67,1047.78c32.46,13.59,42.17,172.57-1.24,276.26s-102.33,122-156.06,99.45-82-77.3-38.64-181S1800.23,1034.2,1832.67,1047.78Z"/></clipPath><clipPath id="clip-path-3"><path class="cls-1" d="M1943.31,1151.51c21.31,25.62-40.1,163.38-121.94,231.46s-139.31,57.63-174.59,15.22-35.06-100.82,46.75-168.89S1922,1125.9,1943.31,1151.51Z"/></clipPath><clipPath id="clip-path-4"><path class="cls-1" d="M769.84,1338.49a19.92,19.92,0,0,0-19.93-19.93H284.45a19.92,19.92,0,0,0-19.93,19.93v72.16a19.9,19.9,0,0,0,19.93,19.92H749.91a19.9,19.9,0,0,0,19.93-19.92Z"/></clipPath><clipPath id="clip-path-5"><path class="cls-1" d="M723,1229.93A19.92,19.92,0,0,0,703.11,1210H237.65a19.94,19.94,0,0,0-19.93,19.93v72.16A19.92,19.92,0,0,0,237.65,1322H703.11A19.9,19.9,0,0,0,723,1302.09Z"/></clipPath><clipPath id="clip-path-6"><path class="cls-1" d="M826.09,1121.37a19.92,19.92,0,0,0-19.93-19.93H340.7a19.92,19.92,0,0,0-19.93,19.93v72.16a19.9,19.9,0,0,0,19.93,19.92H806.16a19.9,19.9,0,0,0,19.93-19.92Z"/></clipPath><clipPath id="clip-path-7"><path class="cls-1" d="M604.54,722.11C679.4,760.64,730.72,918.6,730.72,918.6L714,951.11c-38.78,75.34-150.79,95.06-250,44s-148.24-153.67-109.47-229l19.74-38.35S518.57,677.87,604.54,722.11Z"/></clipPath><clipPath id="clip-path-8"><ellipse class="cls-1" cx="551.01" cy="826.1" rx="116.96" ry="153.98" transform="translate(-435.67 937.97) rotate(-62.77)"/></clipPath><clipPath id="clip-path-9"><polygon class="cls-1" points="577.48 916.67 496.76 821.5 559.27 846.48 608.34 819.6 577.48 916.67"/></clipPath><clipPath id="clip-path-10"><polygon class="cls-1" points="524.83 713.63 493.52 808.98 555.93 833.59 605.09 807.08 524.83 713.63"/></clipPath><clipPath id="clip-path-11"><path class="cls-1" d="M1734.34,1330.6H1615.92c-15.29,80.59-137.8,70.75-134.2,119.79l252.62-.81C1770.07,1419.65,1760.84,1377.47,1734.34,1330.6Z"/></clipPath><clipPath id="clip-path-12"><path class="cls-1" d="M1555.91,996.34H1437.47s-103,93.76-123.59,149.47c-18.36,49.65,0,184.78,0,184.78H1432.3s-17.58-129.41,0-177C1452.91,1097.91,1555.91,996.34,1555.91,996.34Z"/></clipPath><clipPath id="clip-path-13"><path class="cls-1" d="M1375.4,664.22c-12.45-16-46.43-42.49-56.47-51.34s-18.88-1.65-13.88,12.62c3.57,10.2,26.46,44.42,26.46,44.42s-33,24.81-22.73,44.31c6,11.43,42.8,30.53,42.8,30.53l42.15-36.18S1385.26,676.82,1375.4,664.22Z"/></clipPath><clipPath id="clip-path-14"><path class="cls-1" d="M1546.13,799.83,1449.6,818l-52.86-111.54-67,36.12s41.13,100.51,73,120.65,118.44.21,118.44.21Z"/></clipPath><clipPath id="clip-path-15"><path class="cls-1" d="M1572.83,814.33c-17.29-30.13-48.62-24.28-68.5,1.2-23.66,30.33-73.53,180.82-73.53,180.82H1608S1590.09,844.47,1572.83,814.33Z"/></clipPath><clipPath id="clip-path-16"><path class="cls-1" d="M1109.9,687.57a31.32,31.32,0,0,1,13.21-42.28l.53-.27a31.31,31.31,0,0,1,42.27,13.22l95.3,182-56,29.33Z"/></clipPath><clipPath id="clip-path-17"><path class="cls-1" d="M1221.41,832.42a86.91,86.91,0,1,0,117.34,36.67A87,87,0,0,0,1221.41,832.42Zm16.84,32.17a50.61,50.61,0,1,0,68.32,21.35A50.6,50.6,0,0,0,1238.25,864.59Z"/></clipPath><clipPath id="clip-path-18"><path class="cls-1" d="M1079.73,717.5a15.6,15.6,0,0,1,6.6-21.07l31.91-16.71,14.63,27.95L1101,724.38a15.62,15.62,0,0,1-21.08-6.59Z"/></clipPath><clipPath id="clip-path-19"><path class="cls-1" d="M1129.47,812.49a15.61,15.61,0,0,1,6.59-21.07L1168,774.71l14.63,27.95-31.9,16.7a15.6,15.6,0,0,1-21.08-6.58Z"/></clipPath><clipPath id="clip-path-20"><path class="cls-1" d="M1078.46,778.64a15.6,15.6,0,0,1,6.6-21.07l58-30.39,14.64,28-58,30.38a15.6,15.6,0,0,1-21.08-6.58Z"/></clipPath><clipPath id="clip-path-21"><path class="cls-1" d="M1375.59,908.25c-6.37-17.59-32.76-47.56-33.25-31.33,3.67,12.37,6.19,23.92,6.07,33.69-13.22,4.57-26,1.25-38-12.85-20-12.47-37.62,33.85-18,51.84,27.58,24.06,55.28,34.07,83.18,16.34Z"/></clipPath><clipPath id="clip-path-22"><path class="cls-1" d="M1553.21,766h-28c6.25,13.37,5.6,23.93,0,32.48-13.6,15.88,14,8.44,28,0C1549.52,784.21,1550.09,773.93,1553.21,766Z"/></clipPath><clipPath id="clip-path-23"><path class="cls-1" d="M851.32,1431.07c45.3,0,82-33.15,82-74s-36.75-74-82-74c-35.68,0-66,20.58-77.37,49.25-1.53-.11-3.1-.19-4.7-.19-22,0-41,11.72-49.72,28.59a45.41,45.41,0,0,0-25.33-3c-19,3.22-33.43,18.28-33.43,36.37,0,20.41,18.39,37,41,37Z"/></clipPath></defs><g data-name=" 8-Security-Token" id="_8-Security-Token"><path class="cls-2" d="M193.15,1434.9h877a1.43,1.43,0,0,0,1.44-1.45,1.45,1.45,0,0,0-1.44-1.45h-877a1.46,1.46,0,0,0-1.45,1.45A1.44,1.44,0,0,0,193.15,1434.9Z"/><path class="cls-2" d="M1141.16,1434.9h749.77a1.46,1.46,0,0,0,1.46-1.45,1.48,1.48,0,0,0-1.46-1.45H1141.16a1.47,1.47,0,0,0-1.46,1.45A1.45,1.45,0,0,0,1141.16,1434.9Z"/><path class="cls-2" d="M1344.7,1471.68h228.78a1.44,1.44,0,0,0,1.45-1.45,1.46,1.46,0,0,0-1.45-1.45H1344.7a1.46,1.46,0,0,0-1.45,1.45A1.44,1.44,0,0,0,1344.7,1471.68Z"/><path class="cls-2" d="M107.92,1458.31H336.7a1.44,1.44,0,0,0,1.45-1.44,1.46,1.46,0,0,0-1.45-1.45H107.92a1.46,1.46,0,0,0-1.45,1.45A1.44,1.44,0,0,0,107.92,1458.31Z"/><path class="cls-2" d="M1509.77,1498.4h127.46a1.43,1.43,0,0,0,1.44-1.44,1.46,1.46,0,0,0-1.44-1.45H1509.77a1.46,1.46,0,0,0-1.45,1.45A1.44,1.44,0,0,0,1509.77,1498.4Z"/><path class="cls-2" d="M273,1485H400.42a1.45,1.45,0,1,0,0-2.89H273a1.45,1.45,0,1,0,0,2.89Z"/><path class="cls-2" d="M52.45,1434.9h83.91a1.44,1.44,0,0,0,1.45-1.45,1.46,1.46,0,0,0-1.45-1.45H52.45a1.46,1.46,0,0,0-1.45,1.45A1.44,1.44,0,0,0,52.45,1434.9Z"/><path class="cls-3" d="M203.49,1432.83c-28.47-72.45-5-214,53.23-229.59,62-16.61,92.73-62,172.65-80.13,121.32-27.51,115.3-155.21,207.76-185.66C815.38,878.76,846,1153.87,919.62,1181.14c95,35.17,259.74-12.89,293.73,130.89,9.78,41.32-.6,77.38,3.14,120.8Z"/><circle class="cls-4" cx="1025.07" cy="1077.04" r="89.96"/><path class="cls-5" d="M1687.23,954.48c39.73,0,119.18,161.35,119.18,288.29s-53.41,171.65-119.18,171.65-119.17-44.74-119.17-171.65S1647.51,954.48,1687.23,954.48Z"/><g class="cls-6"><path class="cls-2" d="M1800.27,1057.68c-18.59,3.4-29.74,21-78,36-26.15,8.12-39.93,7.76-61.77,24.55-15.49,11.93-22.45,30.59-37.19,42.67-10.78,8.82-24.21,12.68-36.19,19.4a96.91,96.91,0,0,0-34.45,32.64,172,172,0,0,0-26.92,77.54c-1.09,12.69-1,27.07,7.44,37.47,20.08,24.7,59.26,58.92,85,51.42,7.55-2.19,19-47.94,26.29-51C1731.34,1291.86,1789.72,1150.8,1800.27,1057.68Z"/></g><path class="cls-2" d="M1687.23,953.05c-5,0-10.67,2.4-16.66,6.93-8.66,6.53-18.17,17.57-27.79,32-37.08,55.61-76.14,161.64-76.14,250.79,0,76.74,19.5,123.6,49.3,148.86,20,16.94,44.64,24.22,71.29,24.22s51.3-7.28,71.28-24.22c29.82-25.26,49.33-72.12,49.33-148.86,0-89.15-39.06-195.18-76.17-250.79-9.62-14.43-19.1-25.47-27.77-32C1697.89,955.45,1692.26,953.05,1687.23,953.05Zm0,2.85c4.53,0,9.56,2.26,14.94,6.36,8.47,6.39,17.73,17.2,27.15,31.29,36.85,55.27,75.66,160.64,75.66,249.22,0,75.57-19,121.83-48.3,146.7-19.48,16.48-43.49,23.52-69.45,23.52s-50-7-69.44-23.52c-29.37-24.87-48.3-71.13-48.3-146.7,0-88.58,38.81-194,75.67-249.22,9.39-14.09,18.65-24.9,27.12-31.29C1677.69,958.16,1682.72,955.9,1687.23,955.9Z"/><path class="cls-2" d="M1680.61,1018.44c-16.48,107.83-10.69,250.41,8.87,393.6a1.43,1.43,0,0,0,2.83-.38c-19.51-142.9-25.33-285.18-8.87-392.79a1.43,1.43,0,0,0-2.83-.43Z"/><path class="cls-5" d="M1832.67,1047.78c32.46,13.59,42.17,172.57-1.24,276.26s-102.33,122-156.06,99.45-82-77.3-38.64-181S1800.23,1034.2,1832.67,1047.78Z"/><g class="cls-7"><path class="cls-2" d="M1879,1153.76c-27.8-13.9-44.12-14.29-76.37-9-19.62,3.22-33,16.12-45.49,24.24-15.37,10-59.86,58-116.32,53.57-11.47-.89-38.56,59.58-33.2,91.18a88.93,88.93,0,0,0,9.21,28c21.5,39.1,71.92,34.25,106.89,18.43C1790.52,1329.87,1855,1219.93,1879,1153.76Z"/></g><path class="cls-2" d="M1833.21,1046.48c-4.11-1.72-9.57-1.71-16.08-.06-9.31,2.38-20.87,8.16-33.68,16.65-49.34,32.76-117.55,106-148,178.9-26.26,62.73-26.34,107.76-10.6,138.61,10.54,20.7,28.21,35.11,50,44.24s44.49,11.62,66.64,4.6c33-10.43,65-42.1,91.29-104.83,30.5-72.85,34.87-172.87,23.59-231-2.94-15.08-6.93-27.38-11.77-35.67-3.39-5.8-7.21-9.7-11.35-11.43Zm-1.1,2.63c3.66,1.53,7,5.08,10,10.23,4.73,8.08,8.58,20.07,11.44,34.79,11.19,57.72,6.88,157-23.41,229.36-25.81,61.66-57.09,93-89.53,103.21-21.51,6.82-43.51,4.35-64.68-4.51s-38.34-22.79-48.57-42.9c-15.48-30.33-15.11-74.56,10.7-136.22,30.29-72.33,98-145.1,147-177.62,12.49-8.29,23.73-14,32.82-16.26,5.76-1.48,10.6-1.61,14.26-.08Z"/><path class="cls-2" d="M1805.26,1097.69c-50.35,82.46-94.39,200.92-127.38,324.59a1.4,1.4,0,0,0,1,1.73,1.39,1.39,0,0,0,1.73-1c32.93-123.38,76.86-241.57,127.07-323.84a1.42,1.42,0,1,0-2.42-1.48Z"/><path class="cls-5" d="M1943.31,1151.51c21.31,25.62-40.1,163.38-121.94,231.46s-139.31,57.63-174.59,15.22-35.06-100.82,46.75-168.89S1922,1125.9,1943.31,1151.51Z"/><g class="cls-8"><path class="cls-2" d="M1917.53,1277.34c-4,10.32-11.64,19.59-18.62,28-19.45,23.35-44.78,42.29-74.15,51.19-16.77,5.1-34.71,4.76-51,11.58-19.91,8.29-35.71,27.06-56.64,32.68-24.9,6.67-51.59-7.76-74.35,10.92-21.76,17.88,10.53,35.85,25.3,40.75a121.73,121.73,0,0,0,14.23,3.8C1729.05,1465.85,1880.82,1422.5,1917.53,1277.34Z"/></g><path class="cls-2" d="M1944.41,1150.59c-2.71-3.26-7.34-5.64-13.53-7.1-8.87-2.07-21.12-2.28-35.6-.76-55.77,5.92-145.17,37.65-202.66,85.48-49.55,41.22-69.33,79-69.63,111.81-.19,22,8.36,41.87,22.69,59.09s32.29,29.24,54,33.06c32.33,5.69,73.08-6.88,122.63-48.1,57.5-47.83,105-130,120.93-183.73,4.14-13.95,6.15-26,5.74-35.14-.31-6.35-1.81-11.33-4.54-14.61Zm-2.2,1.83c2.4,2.89,3.61,7.3,3.89,12.91.41,8.87-1.59,20.61-5.64,34.22-15.84,53.35-62.93,134.85-120,182.32-48.65,40.47-88.56,53.08-120.31,47.5-21-3.7-38.39-15.37-52.29-32.08s-22.21-35.9-22-57.24c.29-32.23,20-69.18,68.6-109.65,57.07-47.48,145.77-79,201.12-84.82,14.12-1.5,26-1.33,34.67.69,5.45,1.28,9.58,3.28,12,6.15Z"/><path class="cls-2" d="M1898.41,1181.37c-78.37,47.21-167.22,127.41-249.05,216.83a1.43,1.43,0,0,0,2.11,1.94c81.62-89.21,170.23-169.24,248.4-216.35a1.41,1.41,0,1,0-1.46-2.42Z"/><path class="cls-2" d="M769.84,1338.49a19.92,19.92,0,0,0-19.93-19.93H284.45a19.92,19.92,0,0,0-19.93,19.93v72.16a19.9,19.9,0,0,0,19.93,19.92H749.91a19.9,19.9,0,0,0,19.93-19.92Z"/><g class="cls-9"><path class="cls-5" d="M751.4,1319.28a19.94,19.94,0,0,0-19.93-19.93H266a19.92,19.92,0,0,0-19.92,19.93v72.16A19.9,19.9,0,0,0,266,1411.36H731.47a19.92,19.92,0,0,0,19.93-19.92Z"/></g><path class="cls-2" d="M771.26,1338.49a21.39,21.39,0,0,0-21.35-21.36H284.45a21.37,21.37,0,0,0-21.37,21.36v72.16A21.37,21.37,0,0,0,284.45,1432H749.91a21.39,21.39,0,0,0,21.35-21.35Zm-2.85,0v72.16a18.49,18.49,0,0,1-18.5,18.5H284.45a18.49,18.49,0,0,1-18.5-18.5v-72.16a18.49,18.49,0,0,1,18.5-18.5H749.91a18.49,18.49,0,0,1,18.5,18.5Z"/><path class="cls-2" d="M327.39,1318.55v112a1.41,1.41,0,0,0,1.41,1.43,1.44,1.44,0,0,0,1.44-1.43v-112a1.46,1.46,0,0,0-1.44-1.43A1.43,1.43,0,0,0,327.39,1318.55Z"/><path class="cls-2" d="M443.77,1318.55v112a1.41,1.41,0,0,0,1.41,1.43,1.44,1.44,0,0,0,1.44-1.43v-112a1.46,1.46,0,0,0-1.44-1.43A1.43,1.43,0,0,0,443.77,1318.55Z"/><path class="cls-2" d="M560.15,1318.55v112a1.41,1.41,0,0,0,1.41,1.43,1.44,1.44,0,0,0,1.44-1.43v-112a1.46,1.46,0,0,0-1.44-1.43A1.43,1.43,0,0,0,560.15,1318.55Z"/><path class="cls-2" d="M676.53,1318.55v112a1.41,1.41,0,0,0,1.41,1.43,1.43,1.43,0,0,0,1.43-1.43v-112a1.45,1.45,0,0,0-1.43-1.43A1.43,1.43,0,0,0,676.53,1318.55Z"/><path class="cls-2" d="M355.5,1318.55v112a1.4,1.4,0,0,0,1.4,1.43,1.43,1.43,0,0,0,1.44-1.43v-112a1.45,1.45,0,0,0-1.44-1.43A1.42,1.42,0,0,0,355.5,1318.55Z"/><path class="cls-2" d="M471.88,1318.55v112a1.4,1.4,0,0,0,1.4,1.43,1.43,1.43,0,0,0,1.44-1.43v-112a1.45,1.45,0,0,0-1.44-1.43A1.42,1.42,0,0,0,471.88,1318.55Z"/><path class="cls-2" d="M588.25,1318.55v112a1.41,1.41,0,0,0,1.41,1.43,1.44,1.44,0,0,0,1.44-1.43v-112a1.46,1.46,0,0,0-1.44-1.43A1.43,1.43,0,0,0,588.25,1318.55Z"/><path class="cls-2" d="M704.63,1318.55v112A1.41,1.41,0,0,0,706,1432a1.44,1.44,0,0,0,1.44-1.43v-112a1.46,1.46,0,0,0-1.44-1.43A1.43,1.43,0,0,0,704.63,1318.55Z"/><path class="cls-2" d="M723,1229.93A19.92,19.92,0,0,0,703.11,1210H237.65a19.94,19.94,0,0,0-19.93,19.93v72.16A19.92,19.92,0,0,0,237.65,1322H703.11A19.9,19.9,0,0,0,723,1302.09Z"/><g class="cls-10"><path class="cls-5" d="M704.6,1210.72a19.92,19.92,0,0,0-19.93-19.93H219.21a19.92,19.92,0,0,0-19.93,19.93v72.16a19.9,19.9,0,0,0,19.93,19.92H684.67a19.9,19.9,0,0,0,19.93-19.92Z"/></g><path class="cls-2" d="M724.46,1229.93a21.37,21.37,0,0,0-21.35-21.36H237.65a21.39,21.39,0,0,0-21.37,21.36v72.16a21.39,21.39,0,0,0,21.37,21.35H703.11a21.37,21.37,0,0,0,21.35-21.35Zm-2.84,0v72.16a18.49,18.49,0,0,1-18.51,18.49H237.65a18.49,18.49,0,0,1-18.5-18.49v-72.16a18.51,18.51,0,0,1,18.5-18.5H703.11a18.51,18.51,0,0,1,18.51,18.5Z"/><path class="cls-2" d="M280.6,1210v112a1.4,1.4,0,0,0,1.4,1.43,1.44,1.44,0,0,0,1.44-1.43V1210a1.46,1.46,0,0,0-1.44-1.43A1.42,1.42,0,0,0,280.6,1210Z"/><path class="cls-2" d="M397,1210v112a1.41,1.41,0,0,0,1.41,1.43,1.44,1.44,0,0,0,1.44-1.43V1210a1.46,1.46,0,0,0-1.44-1.43A1.43,1.43,0,0,0,397,1210Z"/><path class="cls-2" d="M513.35,1210v112a1.41,1.41,0,0,0,1.41,1.43,1.44,1.44,0,0,0,1.44-1.43V1210a1.46,1.46,0,0,0-1.44-1.43A1.43,1.43,0,0,0,513.35,1210Z"/><path class="cls-2" d="M629.73,1210v112a1.41,1.41,0,0,0,1.41,1.43,1.44,1.44,0,0,0,1.44-1.43V1210a1.46,1.46,0,0,0-1.44-1.43A1.43,1.43,0,0,0,629.73,1210Z"/><path class="cls-2" d="M308.7,1210v112a1.4,1.4,0,0,0,1.4,1.43,1.43,1.43,0,0,0,1.44-1.43V1210a1.45,1.45,0,0,0-1.44-1.43A1.42,1.42,0,0,0,308.7,1210Z"/><path class="cls-2" d="M425.08,1210v112a1.4,1.4,0,0,0,1.4,1.43,1.43,1.43,0,0,0,1.44-1.43V1210a1.45,1.45,0,0,0-1.44-1.43A1.42,1.42,0,0,0,425.08,1210Z"/><path class="cls-2" d="M541.46,1210v112a1.4,1.4,0,0,0,1.4,1.43,1.43,1.43,0,0,0,1.44-1.43V1210a1.45,1.45,0,0,0-1.44-1.43A1.42,1.42,0,0,0,541.46,1210Z"/><path class="cls-2" d="M657.84,1210v112a1.4,1.4,0,0,0,1.4,1.43,1.43,1.43,0,0,0,1.44-1.43V1210a1.45,1.45,0,0,0-1.44-1.43A1.42,1.42,0,0,0,657.84,1210Z"/><path class="cls-2" d="M826.09,1121.37a19.92,19.92,0,0,0-19.93-19.93H340.7a19.92,19.92,0,0,0-19.93,19.93v72.16a19.9,19.9,0,0,0,19.93,19.92H806.16a19.9,19.9,0,0,0,19.93-19.92Z"/><g class="cls-11"><path class="cls-5" d="M807.64,1102.16a19.92,19.92,0,0,0-19.92-19.93H322.25a19.92,19.92,0,0,0-19.92,19.93v72.16a19.9,19.9,0,0,0,19.92,19.92H787.72a19.9,19.9,0,0,0,19.92-19.92Z"/></g><path class="cls-2" d="M827.51,1121.37A21.39,21.39,0,0,0,806.16,1100H340.7a21.39,21.39,0,0,0-21.38,21.36v72.16a21.39,21.39,0,0,0,21.38,21.35H806.16a21.39,21.39,0,0,0,21.35-21.35Zm-2.85,0v72.16a18.47,18.47,0,0,1-18.5,18.49H340.7a18.49,18.49,0,0,1-18.51-18.49v-72.16a18.51,18.51,0,0,1,18.51-18.5H806.16a18.49,18.49,0,0,1,18.5,18.5Z"/><path class="cls-2" d="M383.64,1101.43v112a1.41,1.41,0,0,0,1.41,1.43,1.44,1.44,0,0,0,1.44-1.43v-112a1.46,1.46,0,0,0-1.44-1.43A1.43,1.43,0,0,0,383.64,1101.43Z"/><path class="cls-2" d="M500,1101.43v112a1.41,1.41,0,0,0,1.41,1.43,1.43,1.43,0,0,0,1.43-1.43v-112a1.45,1.45,0,0,0-1.43-1.43A1.43,1.43,0,0,0,500,1101.43Z"/><path class="cls-2" d="M616.4,1101.43v112a1.41,1.41,0,0,0,1.41,1.43,1.43,1.43,0,0,0,1.43-1.43v-112a1.45,1.45,0,0,0-1.43-1.43A1.43,1.43,0,0,0,616.4,1101.43Z"/><path class="cls-2" d="M732.78,1101.43v112a1.4,1.4,0,0,0,1.4,1.43,1.43,1.43,0,0,0,1.44-1.43v-112a1.45,1.45,0,0,0-1.44-1.43A1.42,1.42,0,0,0,732.78,1101.43Z"/><path class="cls-2" d="M411.74,1101.43v112a1.41,1.41,0,0,0,1.41,1.43,1.44,1.44,0,0,0,1.44-1.43v-112a1.46,1.46,0,0,0-1.44-1.43A1.43,1.43,0,0,0,411.74,1101.43Z"/><path class="cls-2" d="M528.12,1101.43v112a1.41,1.41,0,0,0,1.41,1.43,1.44,1.44,0,0,0,1.44-1.43v-112a1.46,1.46,0,0,0-1.44-1.43A1.43,1.43,0,0,0,528.12,1101.43Z"/><path class="cls-2" d="M644.5,1101.43v112a1.41,1.41,0,0,0,1.41,1.43,1.44,1.44,0,0,0,1.44-1.43v-112a1.46,1.46,0,0,0-1.44-1.43A1.43,1.43,0,0,0,644.5,1101.43Z"/><path class="cls-2" d="M760.88,1101.43v112a1.41,1.41,0,0,0,1.41,1.43,1.44,1.44,0,0,0,1.44-1.43v-112a1.46,1.46,0,0,0-1.44-1.43A1.43,1.43,0,0,0,760.88,1101.43Z"/><path class="cls-5" d="M604.54,722.11C679.4,760.64,730.72,918.6,730.72,918.6L714,951.11c-38.78,75.34-150.79,95.06-250,44s-148.24-153.67-109.47-229l19.74-38.35S518.57,677.87,604.54,722.11Z"/><g class="cls-12"><path class="cls-2" d="M360.33,755c-9.91,20-15.4,36-12.91,57,3.51,29.79,8.7,54.8,24,80.83,35.94,61.28,103.91,101.67,171.46,118.62,43.09,10.82,90.12,3.64,129-17.3a143.72,143.72,0,0,0,32.33-23.62c4.55-4.42,10.42-13.61,16.68-15.4,6.62-1.9,4.32,8,3.14,11.09-6.35,16.33-22.21,29.43-36.32,38.78-35.92,23.86-79.41,33.15-122.05,33.29-99,.29-207.83-50.22-244.82-147.31C311.26,865.87,337.53,761.22,360.33,755Z"/></g><path class="cls-2" d="M605.15,720.92c-34.61-17.81-78.59-20.5-118.9-17.27-60.29,4.84-112.4,22.85-112.4,22.85a1.33,1.33,0,0,0-.74.66l-19.74,38.35c-39.06,75.88,10.11,179.37,110,230.8s212.7,31.3,251.76-44.59l16.73-32.51a1.35,1.35,0,0,0,.1-1s-18.53-57-49.55-110.94c-20.77-36.11-47.17-70.82-77.3-86.33Zm-1.22,2.38c29.73,15.31,55.71,49.65,76.2,85.29,29.14,50.67,47.2,104,49.13,109.89l-16.48,32c-38.48,74.77-149.69,94.1-248.14,43.43S317.27,841.51,355.75,766.73l19.5-37.87c5.46-1.85,54.71-18,111.21-22.54,39.82-3.19,83.28-.61,117.47,17Z"/><ellipse class="cls-13" cx="551.01" cy="826.11" rx="139.04" ry="202.12" transform="translate(-435.67 937.98) rotate(-62.77)"/><path class="cls-2" d="M621.89,688.41C522,637,409.17,657.09,370.1,733s10.11,179.37,110,230.81,212.7,31.3,251.76-44.59-10.11-179.38-110-230.8Zm-1.23,2.38C719.11,741.46,768,843.2,729.52,918s-149.7,94.11-248.15,43.44S334,809,372.49,734.22s149.7-94.11,248.17-43.43Z"/><ellipse cx="551.01" cy="826.1" rx="116.96" ry="153.98" transform="translate(-435.67 937.97) rotate(-62.77)"/><g class="cls-14"><ellipse class="cls-15" cx="560.03" cy="806.94" rx="116.96" ry="153.98" transform="translate(-413.75 935.6) rotate(-62.77)"/></g><path class="cls-2" d="M605.15,720.92C528.84,681.64,442.72,697.06,412.9,755s7.67,137,84,176.26,162.41,23.85,192.24-34.1S681.44,760.19,605.15,720.92Zm-1.23,2.38C678.74,761.81,716,839.11,686.72,896s-113.8,71.47-188.62,33S386,813.09,415.29,756.25,529.09,684.78,603.92,723.3Z"/><path class="cls-5" d="M577.48,916.67,496.76,821.5l62.52,25,49.06-26.88Z"/><g class="cls-16"><path class="cls-2" d="M567.08,876,491,818.86l68.52,27.39Z"/><path class="cls-2" d="M577.2,916.67l30.23-95-40,54.74Z"/></g><path class="cls-2" d="M576.88,917a1.05,1.05,0,0,0,.76.34.58.58,0,0,0,.58-.36l30.86-97.07a.64.64,0,0,0-.34-.73.87.87,0,0,0-.89-.08l-48.76,26.7L497,821a.78.78,0,0,0-.84.11.53.53,0,0,0,0,.73Zm.23-1.71L498.86,823l60.21,24a.86.86,0,0,0,.72,0l47.26-25.89Z"/><path class="cls-5" d="M524.83,713.63,493.52,809l62.41,24.6,49.16-26.51Z"/><g class="cls-17"><path class="cls-2" d="M547.41,798.36l8.74,35.29,56.19-26.39Z"/><path class="cls-2" d="M525,715.2l-30.89,93.58,52.1-10.18Z"/></g><path class="cls-2" d="M525.42,713.34a1,1,0,0,0-.76-.34.59.59,0,0,0-.57.36l-31.31,95.35a.72.72,0,0,0,.53.83l62.42,24.6a.86.86,0,0,0,.72,0l49.16-26.51a.52.52,0,0,0,.08-.84Zm-.23,1.69,78.87,91.8-48.31,26L494.44,808.7Z"/><path class="cls-1" d="M524.85,713.63l31.1,120"/><path class="cls-2" d="M524.1,713.64l31.11,120a.92.92,0,0,0,.9.61.53.53,0,0,0,.58-.64l-31.1-120a1,1,0,0,0-.91-.62C524.26,713,524,713.3,524.1,713.64Z"/><path class="cls-1" d="M559.6,847.66l17.9,69"/><path class="cls-2" d="M558.86,847.67l17.89,69a.94.94,0,0,0,.91.62c.39,0,.67-.3.58-.64l-17.9-69a.94.94,0,0,0-.9-.62C559,847,558.77,847.33,558.86,847.67Z"/><path class="cls-2" d="M317.81,594.57l-14.88,25.32,13.84,25.87-25.29-14.87-25.9,13.84,14.89-25.3-13.86-25.89,25.32,14.89Z"/><path class="cls-2" d="M404.41,632.61,394.77,649l9,16.76-16.38-9.63-16.77,9,9.65-16.38-9-16.77,16.4,9.65Z"/><path class="cls-2" d="M334.72,703.64,322.46,724.5l11.4,21.31L313,733.56,291.69,745,304,724.12l-11.42-21.33,20.86,12.27Z"/><path class="cls-2" d="M748.46,541.74h4.18a1.52,1.52,0,0,0,1.52-1.54,1.51,1.51,0,0,0-1.52-1.49h-4.18a1.51,1.51,0,0,0-1.52,1.49A1.52,1.52,0,0,0,748.46,541.74Zm-18.43,0h4.18a1.52,1.52,0,0,0,1.52-1.54,1.51,1.51,0,0,0-1.52-1.49H730a1.51,1.51,0,0,0-1.52,1.49A1.52,1.52,0,0,0,730,541.74Zm-18.43,0h4.18a1.53,1.53,0,0,0,1.52-1.54,1.51,1.51,0,0,0-1.52-1.49H711.6a1.52,1.52,0,0,0-1.53,1.49A1.53,1.53,0,0,0,711.6,541.74Zm-18.44,0h4.18a1.52,1.52,0,0,0,1.52-1.54,1.51,1.51,0,0,0-1.52-1.49h-4.18a1.51,1.51,0,0,0-1.52,1.49A1.52,1.52,0,0,0,693.16,541.74Zm-18.43,0h4.18a1.52,1.52,0,0,0,1.52-1.54,1.51,1.51,0,0,0-1.52-1.49h-4.18a1.51,1.51,0,0,0-1.52,1.49A1.52,1.52,0,0,0,674.73,541.74Zm-18.43,0h4.18A1.52,1.52,0,0,0,662,540.2a1.51,1.51,0,0,0-1.52-1.49H656.3a1.51,1.51,0,0,0-1.52,1.49A1.52,1.52,0,0,0,656.3,541.74Zm-18.44,0H642a1.53,1.53,0,0,0,1.53-1.54,1.52,1.52,0,0,0-1.53-1.49h-4.18a1.51,1.51,0,0,0-1.52,1.49A1.53,1.53,0,0,0,637.86,541.74Zm-18.43,0h4.18a1.52,1.52,0,0,0,1.52-1.54,1.51,1.51,0,0,0-1.52-1.49h-4.18a1.51,1.51,0,0,0-1.52,1.49A1.52,1.52,0,0,0,619.43,541.74Zm-18.43,0h4.18a1.52,1.52,0,0,0,1.52-1.54,1.51,1.51,0,0,0-1.52-1.49H601a1.51,1.51,0,0,0-1.52,1.49A1.52,1.52,0,0,0,601,541.74Zm-18.43,0h4.18a1.52,1.52,0,0,0,1.52-1.54,1.51,1.51,0,0,0-1.52-1.49h-4.18a1.51,1.51,0,0,0-1.52,1.49A1.52,1.52,0,0,0,582.57,541.74Zm-11.81,8.43c.77-1.35,1.47-2.55,2.09-3.64a1.51,1.51,0,0,0-2.63-1.5c-.63,1.05-1.33,2.29-2.09,3.6a1.52,1.52,0,1,0,2.63,1.54Zm-9.22,16c.72-1.23,1.41-2.43,2.09-3.63A1.51,1.51,0,1,0,561,561c-.68,1.16-1.38,2.36-2.09,3.6a1.52,1.52,0,1,0,2.63,1.53Zm-9.21,16,2.09-3.6a1.53,1.53,0,0,0-.56-2.09,1.54,1.54,0,0,0-2.08.56c-.69,1.2-1.39,2.39-2.09,3.63a1.52,1.52,0,0,0,2.64,1.5ZM543.11,598l2.09-3.59a1.52,1.52,0,1,0-2.63-1.54c-.7,1.24-1.4,2.44-2.09,3.64a1.51,1.51,0,1,0,2.63,1.49Zm-9.21,16c.67-1.2,1.37-2.4,2.09-3.64a1.53,1.53,0,1,0-2.64-1.53c-.72,1.27-1.41,2.47-2.09,3.63A1.53,1.53,0,0,0,533.9,614Zm-9.22,16h0l2.09-3.63a1.52,1.52,0,0,0-2.63-1.53c-1.2,2.09-1.93,3.37-2.07,3.59-1,1.69,2.81.82,2.81.82-3,.83-2.36,1.5-1.52,1.5A1.52,1.52,0,0,0,524.68,630Z"/><path class="cls-2" d="M859.5,820.74h4.18a1.52,1.52,0,1,0,0-3H859.5a1.52,1.52,0,1,0,0,3Zm-18.43,0h4.18a1.52,1.52,0,1,0,0-3h-4.18a1.52,1.52,0,1,0,0,3Zm-18.43,0h4.18a1.52,1.52,0,1,0,0-3h-4.18a1.52,1.52,0,1,0,0,3Zm-18.43,0h4.18a1.52,1.52,0,1,0,0-3h-4.18a1.52,1.52,0,1,0,0,3Zm-18.43,0H790a1.52,1.52,0,1,0,0-3h-4.18a1.52,1.52,0,1,0,0,3Zm-18.44,0h4.18a1.52,1.52,0,1,0,0-3h-4.18a1.52,1.52,0,1,0,0,3Zm-18.43,0h4.18a1.52,1.52,0,1,0,0-3h-4.18a1.52,1.52,0,1,0,0,3Zm-18.43,0h4.18a1.52,1.52,0,1,0,0-3h-4.18a1.52,1.52,0,1,0,0,3Zm-18.43,0h4.18a1.52,1.52,0,1,0,0-3h-4.18a1.52,1.52,0,1,0,0,3Zm-18.44,0h4.18a1.52,1.52,0,1,0,0-3h-4.18a1.52,1.52,0,1,0,0,3Zm-11.81,8.43c.77-1.35,1.47-2.55,2.09-3.64a1.5,1.5,0,0,0-.55-2.06,1.52,1.52,0,0,0-2.08.57c-.62,1-1.32,2.28-2.09,3.59a1.52,1.52,0,1,0,2.63,1.54Zm-9.21,16c.71-1.23,1.41-2.43,2.09-3.63a1.51,1.51,0,0,0-2.63-1.5c-.69,1.16-1.38,2.36-2.09,3.6a1.52,1.52,0,0,0,.55,2.09A1.54,1.54,0,0,0,672.59,845.12Zm-9.22,16c.7-1.2,1.4-2.4,2.09-3.6a1.52,1.52,0,1,0-2.63-1.53c-.69,1.2-1.39,2.39-2.09,3.63a1.51,1.51,0,0,0,2.63,1.5ZM654.16,877c.69-1.19,1.38-2.39,2.09-3.59a1.53,1.53,0,1,0-2.64-1.54c-.7,1.24-1.4,2.44-2.09,3.64a1.52,1.52,0,1,0,2.64,1.49Zm-9.22,16c.67-1.2,1.37-2.4,2.09-3.64a1.52,1.52,0,1,0-2.63-1.53c-.72,1.27-1.42,2.47-2.09,3.63a1.52,1.52,0,0,0,2.63,1.54Zm-9.21,16h0l2.09-3.63a1.53,1.53,0,0,0-2.64-1.53l-2.06,3.59c-1,1.69,2.81.83,2.81.83-3,.82-2.36,1.49-1.52,1.49A1.54,1.54,0,0,0,635.73,909Z"/><path class="cls-2" d="M1013.56,532.21a30.61,30.61,0,0,0-30.62-30.61H810.64A30.6,30.6,0,0,0,780,532.21h0a30.6,30.6,0,0,0,30.6,30.6h172.3a30.6,30.6,0,0,0,30.62-30.6Zm-2.9,0h0a27.72,27.72,0,0,1-27.72,27.71H810.64a27.7,27.7,0,0,1-27.7-27.71h0a27.7,27.7,0,0,1,27.7-27.72h172.3A27.72,27.72,0,0,1,1010.66,532.21Z"/><path class="cls-18" d="M1003,537.86a29.16,29.16,0,0,0-29.16-29.15H801.52a29.16,29.16,0,0,0-29.16,29.15v0A29.16,29.16,0,0,0,801.52,567H973.84A29.16,29.16,0,0,0,1003,537.88Z"/><path class="cls-2" d="M999.41,545.19a30.6,30.6,0,0,0-30.61-30.6H796.49a30.59,30.59,0,0,0-30.59,30.6h0a30.59,30.59,0,0,0,30.59,30.61H968.8a30.6,30.6,0,0,0,30.61-30.61Zm-2.89,0h0a27.73,27.73,0,0,1-27.72,27.72H796.49a27.71,27.71,0,0,1-27.7-27.72h0a27.71,27.71,0,0,1,27.7-27.71H968.8A27.72,27.72,0,0,1,996.52,545.19Z"/><path class="cls-2" d="M791.67,557.37a1.1,1.1,0,0,1-.66.4,1,1,0,0,1-.77-.18l-2.43-1.77a1.12,1.12,0,0,1-.42-.66,1,1,0,0,1,.2-.75c1.06-1.47,3.28-4.55,4.52-6.21a1.15,1.15,0,0,0,.13-.91,1,1,0,0,0-.65-.65l-7.29-2.37a1,1,0,0,1-.6-.5,1.08,1.08,0,0,1-.06-.77c.28-.84.66-2,.93-2.87a1.09,1.09,0,0,1,.5-.59,1,1,0,0,1,.76-.06l7.32,2.37a1,1,0,0,0,1.31-1v-7.67a1,1,0,0,1,.3-.72,1,1,0,0,1,.72-.29h3a1,1,0,0,1,.71.29,1,1,0,0,1,.3.72v7.67a1.08,1.08,0,0,0,.41.82,1,1,0,0,0,.91.14l7.31-2.37a1,1,0,0,1,.77.06,1,1,0,0,1,.49.59l.93,2.87a1,1,0,0,1-.05.77,1,1,0,0,1-.58.5l-7.31,2.37a1,1,0,0,0-.63.65,1,1,0,0,0,.13.91c1.21,1.66,3.46,4.74,4.5,6.21a1,1,0,0,1,.19.75,1,1,0,0,1-.41.66l-2.44,1.77a1,1,0,0,1-.74.18,1,1,0,0,1-.66-.4l-4.52-6.21a1,1,0,0,0-1.64,0C795,552.82,792.74,555.9,791.67,557.37Z"/><path class="cls-2" d="M834.88,557.37a1.13,1.13,0,0,1-.66.4,1,1,0,0,1-.77-.18c-.71-.52-1.72-1.26-2.44-1.77a1.1,1.1,0,0,1-.41-.66,1.09,1.09,0,0,1,.19-.75c1.07-1.47,3.29-4.55,4.52-6.21a1.16,1.16,0,0,0,.14-.91,1.06,1.06,0,0,0-.66-.65l-7.28-2.37a1,1,0,0,1-.61-.5,1.13,1.13,0,0,1,0-.77l.93-2.87a1.07,1.07,0,0,1,.49-.59,1,1,0,0,1,.77-.06c1.73.56,5.37,1.73,7.31,2.37a1,1,0,0,0,.91-.14,1,1,0,0,0,.41-.82v-7.67a1,1,0,0,1,.3-.72,1,1,0,0,1,.71-.29h3a1,1,0,0,1,.71.29,1,1,0,0,1,.3.72v7.67a1,1,0,0,0,.41.82,1,1,0,0,0,.9.14l7.32-2.37a1,1,0,0,1,.76.06,1,1,0,0,1,.5.59c.27.83.65,2,.93,2.87a.94.94,0,0,1-.06.77,1,1,0,0,1-.57.5l-7.31,2.37a.94.94,0,0,0-.63.65,1,1,0,0,0,.13.91c1.21,1.66,3.45,4.74,4.49,6.21a.92.92,0,0,1,.2.75,1,1,0,0,1-.42.66c-.68.51-1.72,1.25-2.43,1.77a1,1,0,0,1-.74.18,1,1,0,0,1-.66-.4L841,551.16a1,1,0,0,0-1.64,0C838.16,552.82,835.94,555.9,834.88,557.37Z"/><path class="cls-2" d="M878.08,557.37a1.07,1.07,0,0,1-.65.4,1,1,0,0,1-.77-.18l-2.44-1.77a1.06,1.06,0,0,1-.41-.66,1,1,0,0,1,.19-.75c1.07-1.47,3.29-4.55,4.52-6.21a1.16,1.16,0,0,0,.14-.91,1.06,1.06,0,0,0-.66-.65l-7.29-2.37a1,1,0,0,1-.6-.5,1.08,1.08,0,0,1-.05-.77c.27-.84.65-2,.93-2.87a1,1,0,0,1,1.26-.65c1.72.56,5.37,1.73,7.31,2.37a1,1,0,0,0,.91-.14,1,1,0,0,0,.41-.82v-7.67a1,1,0,0,1,.3-.72,1,1,0,0,1,.71-.29h3a1,1,0,0,1,1,1v7.67a1,1,0,0,0,.41.82,1,1,0,0,0,.9.14l7.31-2.37a1,1,0,0,1,.77.06.93.93,0,0,1,.49.59c.28.83.66,2,.94,2.87a.94.94,0,0,1-.06.77,1,1,0,0,1-.57.5l-7.32,2.37a1,1,0,0,0-.63.65,1,1,0,0,0,.14.91c1.2,1.66,3.45,4.74,4.49,6.21a.88.88,0,0,1,.19.75,1,1,0,0,1-.41.66c-.68.51-1.72,1.25-2.44,1.77a1,1,0,0,1-.73.18.93.93,0,0,1-.66-.4c-1.07-1.47-3.32-4.55-4.52-6.21a1,1,0,0,0-1.64,0Z"/><path class="cls-2" d="M921.31,557.37a1.07,1.07,0,0,1-.66.4,1,1,0,0,1-.76-.18l-2.44-1.77a1.06,1.06,0,0,1-.41-.66,1,1,0,0,1,.19-.75c1.07-1.47,3.29-4.55,4.52-6.21a1.2,1.2,0,0,0,.14-.91,1.06,1.06,0,0,0-.66-.65l-7.29-2.37a1,1,0,0,1-.6-.5,1.08,1.08,0,0,1-.06-.77c.28-.84.66-2,.94-2.87a1,1,0,0,1,1.26-.65l7.31,2.37a1,1,0,0,0,.9-.14,1,1,0,0,0,.41-.82v-7.67a1,1,0,0,1,.31-.72,1,1,0,0,1,.71-.29h3a1,1,0,0,1,.71.29,1,1,0,0,1,.3.72v7.67a1.08,1.08,0,0,0,.41.82,1,1,0,0,0,.91.14l7.31-2.37a1,1,0,0,1,.77.06.93.93,0,0,1,.49.59c.28.83.66,2,.93,2.87a.91.91,0,0,1-.05.77,1,1,0,0,1-.58.5L932,546.64a1,1,0,0,0-.49,1.56c1.2,1.66,3.45,4.74,4.49,6.21a.92.92,0,0,1,.19.75,1,1,0,0,1-.41.66l-2.44,1.77a1,1,0,0,1-.74.18.93.93,0,0,1-.65-.4c-1.07-1.47-3.32-4.55-4.52-6.21a1,1,0,0,0-.83-.42,1,1,0,0,0-.82.42Z"/><path class="cls-2" d="M964.52,557.37a1.1,1.1,0,0,1-.66.4,1,1,0,0,1-.77-.18l-2.43-1.77a1.12,1.12,0,0,1-.42-.66,1,1,0,0,1,.2-.75c1.06-1.47,3.28-4.55,4.52-6.21a1.15,1.15,0,0,0,.13-.91,1,1,0,0,0-.65-.65l-7.29-2.37a1,1,0,0,1-.6-.5,1.08,1.08,0,0,1-.06-.77c.28-.84.66-2,.93-2.87a1.09,1.09,0,0,1,.5-.59,1,1,0,0,1,.76-.06l7.32,2.37a1,1,0,0,0,1.31-1v-7.67a1,1,0,0,1,.3-.72,1,1,0,0,1,.72-.29h3a1,1,0,0,1,.71.29,1,1,0,0,1,.3.72v7.67a1.08,1.08,0,0,0,.41.82,1,1,0,0,0,.91.14l7.31-2.37a1,1,0,0,1,.77.06,1,1,0,0,1,.49.59l.93,2.87a1,1,0,0,1,0,.77,1,1,0,0,1-.58.5l-7.31,2.37a1,1,0,0,0-.63.65,1,1,0,0,0,.13.91c1.21,1.66,3.46,4.74,4.5,6.21a1,1,0,0,1,.19.75,1,1,0,0,1-.41.66l-2.44,1.77a1,1,0,0,1-.74.18,1,1,0,0,1-.66-.4l-4.52-6.21a1,1,0,0,0-1.64,0C967.8,552.82,965.59,555.9,964.52,557.37Z"/><path class="cls-5" d="M971.89,740.46c.58-1,57.21,35.19,75.62,35.4,2.09,66.36-46.39,153.64-88.76,153.64-15.67-.15,0-185.07,0-185.07S971.31,739.47,971.89,740.46Z"/><path class="cls-2" d="M972.32,739l-.08,0a4.74,4.74,0,0,0-2.26.08,117,117,0,0,0-11.75,4,1.44,1.44,0,0,0-.91,1.22s-10,118.52-6,166c.73,8.59,2,14.92,3.7,18,1,1.82,2.39,2.65,3.74,2.66h0c17.31,0,35.73-14.11,51.33-35.56,23.07-31.74,40.13-79.45,38.87-119.57a1.46,1.46,0,0,0-1.44-1.4c-4.83,0-12.37-2.71-20.83-6.47-20.25-9-45.53-24.42-52.35-28a13.94,13.94,0,0,0-1.86-.85Zm-1,2.74a1.26,1.26,0,0,0,.48.12c.83.34,2.81,1.46,5.68,3.1,10.82,6.15,33.31,19.39,50.92,26.84,7,2.95,13.21,5,17.69,5.39.86,39.24-15.85,85.53-38.34,116.45-15,20.55-32.38,34.36-49,34.37a1,1,0,0,1-.68-.42,6.3,6.3,0,0,1-1.18-2.07c-1.28-3.19-2.14-8.57-2.74-15.49-3.8-44.94,5.05-153.67,6-164.62C962.5,744.52,969.2,742,971.31,741.78Zm1.31-.08a1.44,1.44,0,0,0,.5-.51A1.29,1.29,0,0,1,972.62,741.7Zm-1.91-.41v0Zm0,0s0,0,0-.07Z"/><path class="cls-18" d="M951.8,744.45c.58-1,57.21,35.19,75.63,35.4C1029.51,846.22,977,929.5,951.8,929.5s-77.71-83.28-75.63-149.65C894.56,779.64,951.22,743.47,951.8,744.45Z"/><path class="cls-2" d="M958.77,743a1.89,1.89,0,0,0-.58.07,13.32,13.32,0,0,0-1.86.86c-6.81,3.59-32.12,19-52.35,28-8.48,3.76-16,6.42-20.86,6.47a1.45,1.45,0,0,0-1.43,1.41c-1.46,46.8,24,102,48.13,130.83,6.26,7.52,12.47,13.27,18.09,16.67,3.92,2.38,7.62,3.63,10.86,3.63s6.92-1.25,10.85-3.63c5.63-3.4,11.82-9.15,18.11-16.67,24.13-28.87,49.59-84,48.1-130.83a1.45,1.45,0,0,0-1.43-1.41c-4.83,0-12.38-2.71-20.83-6.47-20.25-9-45.54-24.42-52.36-28a14.51,14.51,0,0,0-1.86-.86A2,2,0,0,0,958.77,743Zm0,2.94c.86.39,2.82,1.49,5.59,3.06,10.82,6.16,33.31,19.39,50.92,26.84,7,3,13.21,5,17.69,5.39,1,45.83-23.93,99.39-47.48,127.57-6,7.22-12,12.77-17.36,16-3.42,2.07-6.56,3.22-9.36,3.22s-6-1.15-9.36-3.22c-5.4-3.27-11.34-8.82-17.38-16-23.55-28.18-48.4-81.74-47.47-127.57,4.47-.4,10.71-2.43,17.71-5.39,17.58-7.45,40.1-20.68,50.89-26.84C955.93,747.42,957.89,746.32,958.77,745.93Zm.73-.23a1.55,1.55,0,0,0,.51-.51A1.25,1.25,0,0,1,959.5,745.7Zm-1.48,0a1.36,1.36,0,0,1-.5-.51A1.44,1.44,0,0,0,958,745.7Z"/><path class="cls-5" d="M951.81,767.35c.44-.76,44,27,58.1,27.2,1.6,51-38.73,115-58.1,115s-59.7-64-58.1-115C907.84,794.39,951.37,766.59,951.81,767.35Z"/><path class="cls-2" d="M958.78,764.44a1.64,1.64,0,0,0-.54.08,9.5,9.5,0,0,0-1.49.68c-5.24,2.76-24.66,14.6-40.22,21.51-6.43,2.87-12.17,4.9-15.86,4.94a1.45,1.45,0,0,0-1.44,1.4c-1.14,36,18.46,78.51,37,100.74,4.85,5.81,9.64,10.24,14,12.87a14.19,14.19,0,0,0,17,0c4.34-2.63,9.14-7.06,14-12.87,18.57-22.23,38.17-64.7,37-100.74a1.45,1.45,0,0,0-1.43-1.4c-3.67,0-9.43-2.07-15.87-4.94-15.54-6.91-35-18.75-40.2-21.51a9,9,0,0,0-1.51-.68A1.57,1.57,0,0,0,958.78,764.44Zm0,3c.62.33,2.34,1.23,4.14,2.25,8.31,4.73,25.61,14.91,39.13,20.64,5.24,2.22,10,3.76,13.4,4.14.62,35-18.4,75.94-36.39,97.47-4.62,5.52-9.15,9.76-13.26,12.26a11.41,11.41,0,0,1-14,0c-4.12-2.5-8.64-6.74-13.26-12.26-18-21.53-37-62.42-36.39-97.47,3.45-.38,8.15-1.92,13.39-4.14,13.53-5.73,30.84-15.91,39.14-20.64C956.42,768.66,958.14,767.76,958.78,767.43Zm-.71-.26h0Zm1.41,0h0Zm0,0a1.52,1.52,0,0,0,.52-.52A1.44,1.44,0,0,1,959.5,767.16Zm-1.45,0a1.37,1.37,0,0,1-.52-.52A1.37,1.37,0,0,0,958.05,767.16Z"/><path class="cls-2" d="M974.26,835.22a6.62,6.62,0,0,0-6.62-6.62H941.15a6.62,6.62,0,0,0-6.62,6.62v25.22a6.62,6.62,0,0,0,6.62,6.62h26.49a6.62,6.62,0,0,0,6.62-6.62Z"/><path class="cls-2" d="M980.08,830.56A8.07,8.07,0,0,0,972,822.5H945.52a8.06,8.06,0,0,0-8.06,8.06v25.23a8.06,8.06,0,0,0,8.06,8.07H972a8.07,8.07,0,0,0,8.07-8.07Zm-2.89,0v25.23A5.17,5.17,0,0,1,972,861H945.52a5.16,5.16,0,0,1-5.16-5.17V830.56a5.17,5.17,0,0,1,5.16-5.17H972A5.17,5.17,0,0,1,977.19,830.56Z"/><path class="cls-2" d="M973.33,811.66a14.55,14.55,0,0,0-14.55-14.56h0a14.56,14.56,0,0,0-14.57,14.56V824a1.45,1.45,0,0,0,1.45,1.44h26.22a1.45,1.45,0,0,0,1.45-1.44Zm-2.89,0V822.5H947.1V811.66A11.67,11.67,0,0,1,958.78,800h0A11.66,11.66,0,0,1,970.44,811.66Z"/><path class="cls-5" d="M1432.3,1330.6H1313.88c-15.29,80.59-137.8,70.75-134.2,119.79l252.62-.81C1468,1419.65,1458.8,1377.47,1432.3,1330.6Z"/><path class="cls-2" d="M1433.56,1329.88a1.45,1.45,0,0,0-1.26-.73H1313.88a1.45,1.45,0,0,0-1.42,1.18c-4.51,23.75-18.52,39.5-35.8,51.22-17.51,11.88-38.36,19.66-56.27,27.37-12.14,5.23-22.94,10.44-30.53,16.81-7.88,6.62-12.37,14.47-11.62,24.77a1.44,1.44,0,0,0,1.45,1.34l252.62-.81a1.5,1.5,0,0,0,.93-.34C1469.5,1420.29,1460.46,1377.48,1433.56,1329.88Zm-2.09,2.16c25.66,45.69,34.83,86.8.3,116.09l-250.71.81c-.21-8.65,3.89-15.31,10.66-21,7.41-6.21,18-11.27,29.82-16.37,18.06-7.78,39.08-15.65,56.74-27.64s31.9-28,36.8-51.9h116.39Z"/><path class="cls-2" d="M1734.34,1330.6H1615.92c-15.29,80.59-137.8,70.75-134.2,119.79l252.62-.81C1770.07,1419.65,1760.84,1377.47,1734.34,1330.6Z"/><g class="cls-19"><path class="cls-5" d="M1706.29,1330.6H1584.88c-15.68,74.87-141.28,65.72-137.59,111.28l259-.76C1742.91,1413.32,1733.45,1374.14,1706.29,1330.6Z"/></g><path class="cls-2" d="M1735.6,1329.88a1.46,1.46,0,0,0-1.26-.73H1615.92a1.46,1.46,0,0,0-1.43,1.18c-4.5,23.75-18.51,39.5-35.79,51.22-17.51,11.88-38.36,19.66-56.27,27.37-12.14,5.23-22.94,10.44-30.54,16.81-7.87,6.62-12.37,14.47-11.62,24.77a1.46,1.46,0,0,0,1.46,1.34l252.62-.81a1.5,1.5,0,0,0,.93-.34C1771.54,1420.29,1762.5,1377.48,1735.6,1329.88Zm-2.1,2.16c25.67,45.69,34.84,86.8.31,116.09l-250.71.81c-.21-8.65,3.88-15.31,10.66-21,7.41-6.21,18-11.27,29.82-16.37,18.06-7.78,39.08-15.65,56.74-27.64s31.89-28,36.79-51.9H1733.5Z"/><path class="cls-5" d="M1555.91,996.34H1437.47s-103,93.76-123.59,149.47c-18.36,49.65,0,184.78,0,184.78H1432.3s-17.58-129.41,0-177C1452.91,1097.91,1555.91,996.34,1555.91,996.34Z"/><g class="cls-20"><path class="cls-2" d="M1400.65,994c9.61-.83,22.57,8.25,30.59,12.57,6.48,3.5,12.67,7.24,18.12,12.27a66.14,66.14,0,0,1,12,14.17c16.32,27.09-13.29,55.52-26.6,76.43a205.17,205.17,0,0,0-25.06,55.49,219.27,219.27,0,0,0-7.67,70.77c.37,6.78,1,13.52,1.93,20.27.67,5.09,1.48,10.16,2.49,15.19.9,4.37,2,8.66,3.25,12.94,1,3.56,2.08,7.15,3.27,10.65,3,8.6,12.47,42.75,25.46,41.91,8-.52,14-20.38,18.73-26,15.6-18.41,26.16-42,36.15-63.73,16.47-35.84,28.56-73.22,37.33-111.64,8.34-36.59,13.4-75.16,7.59-112.55-2.9-18.68-8.34-38.76-20.44-53.75C1497.54,943.89,1428.43,983,1400.65,994Z"/></g><path class="cls-2" d="M1556.92,997.37a1.43,1.43,0,0,0,.32-1.58,1.45,1.45,0,0,0-1.33-.9H1437.47a1.48,1.48,0,0,0-1,.38s-103.31,94.13-124,150c-5.55,15-7.79,37.77-8.18,62.29-.9,56.86,8.11,123.18,8.11,123.18a1.44,1.44,0,0,0,1.43,1.26H1432.3a1.43,1.43,0,0,0,1.44-1.64s-8.6-63.3-7.74-117.56c.36-23.11,2.43-44.57,7.66-58.72C1454.2,1098.59,1556.92,997.37,1556.92,997.37Zm-4.52.42c-15.84,15.9-102.69,104.59-121.45,155.33-5.32,14.38-7.47,36.18-7.84,59.68-.79,49.31,6.22,106,7.55,116.36H1315.15c-1.22-9.37-8.74-69.42-7.92-121.52.38-24.13,2.54-46.55,8-61.33,19.76-53.46,115.73-142,122.8-148.52Z"/><path class="cls-5" d="M1600.06,996.34H1481.64s18.68,130,39.37,181.5c22.38,55.72,94.91,152.75,94.91,152.75h118.42s-72.53-97-94.91-152.75C1618.75,1126.35,1600.06,996.34,1600.06,996.34Z"/><path class="cls-2" d="M1601.5,996.13a1.45,1.45,0,0,0-1.44-1.24H1481.64a1.45,1.45,0,0,0-1.43,1.65s18.73,130.25,39.46,181.85c22.42,55.82,95.09,153.08,95.09,153.08a1.46,1.46,0,0,0,1.16.57h118.42a1.44,1.44,0,0,0,1.3-.8,1.47,1.47,0,0,0-.13-1.51s-72.4-96.84-94.73-152.42C1620.13,1125.91,1601.5,996.13,1601.5,996.13Zm-2.69,1.66c2,13.41,19.74,132,39.28,180.6,20.38,50.74,82.28,135.7,93.38,150.77H1616.65c-6-8.09-73-98.77-94.31-151.85-19.27-48-36.78-164.3-39-179.52Z"/><path class="cls-5" d="M1375.4,664.22c-12.45-16-46.43-42.49-56.47-51.34s-18.88-1.65-13.88,12.62c3.57,10.2,26.46,44.42,26.46,44.42s-33,24.81-22.73,44.31c6,11.43,42.8,30.53,42.8,30.53l42.15-36.18S1385.26,676.82,1375.4,664.22Z"/><g class="cls-21"><path class="cls-2" d="M1410,703.81c-5.71,6.55-10.32,13.58-17.5,18.73-14.63,10.5-36.53,11.58-53.22,6.37-10.2-3.19-20-8.57-27.15-16.56-3.08-3.41-5.38-7.33-7.79-11.21-.85-1.37-2.36-2.77-3.73-1-3.22,4-2.5,12.56-2.08,17.21,1.75,19.6,15.24,37.16,31.58,47.36a66.05,66.05,0,0,0,14.92,7,59.4,59.4,0,0,0,15.1,2.77C1382.63,775.48,1398.82,721,1410,703.81Z"/></g><path class="cls-2" d="M1376.54,663.33c-12.49-16-46.57-42.66-56.67-51.53-5.74-5.09-11.22-5.21-14.47-2.38s-4.47,8.66-1.73,16.56c3.22,9.17,21.92,37.63,25.89,43.63-3.11,2.5-12.36,10.34-18.45,19.83-5.13,8-8,17.2-3.61,25.47,1.87,3.56,6.57,7.88,12.31,12.12,13,9.59,31.12,19,31.12,19a1.48,1.48,0,0,0,1.6-.18l42.14-36.18a1.44,1.44,0,0,0,.45-1.47s-8.59-32.14-18.58-44.88Zm-2.28,1.78c8.78,11.21,16.4,37.81,17.82,43L1351.39,743c-3.72-2-18.72-10.08-29.84-18.32-5.32-3.93-9.75-7.85-11.5-11.13-3.86-7.34-1.06-15.46,3.5-22.58,7.15-11.14,18.84-19.92,18.84-19.92a1.47,1.47,0,0,0,.33-2s-22.77-34-26.29-44.1c-2.24-6.37-1.67-11.18.88-13.41s6.37-1.41,10.65,2.37c10,8.82,43.88,35.25,56.3,51.14Z"/><path class="cls-2" d="M1335.68,711c-3.91-2.71-8.66-5.46-12.88-8.71-4-3.1-7.59-6.65-9.32-11.12a1.44,1.44,0,0,0-2.69,1c1.91,4.95,5.78,8.94,10.24,12.37,4.26,3.28,9.06,6.07,13,8.79a1.45,1.45,0,0,0,1.68-2.37Z"/><path class="cls-2" d="M1340.25,689.67a3.06,3.06,0,0,1-1.48-.53,33.07,33.07,0,0,1-12.07-13.54,1.43,1.43,0,0,0-1.93-.65,1.47,1.47,0,0,0-.64,1.95,34,34,0,0,0,10.13,12.58,30.89,30.89,0,0,0,3.07,2.18,6.32,6.32,0,0,0,2.86.91,1.45,1.45,0,0,0,.06-2.9Z"/><path class="cls-22" d="M1546.13,799.83,1449.6,818l-52.86-111.54-67,36.12s41.13,100.51,73,120.65,118.44.21,118.44.21Z"/><g class="cls-23"><path class="cls-2" d="M1372.15,847.53c11.54,3.4,24.48,4.23,36.47,5,21.45,1.39,43.28,1.55,64.45-1.43a281.79,281.79,0,0,0,32.47-6.67c2.74-.71,8.76-3.51,11.58-1.65,3.12,2.06-2.1,8.4-3.31,10.17a92.07,92.07,0,0,1-24.58,24.53C1464.45,894.17,1404.65,887.66,1372.15,847.53Z"/></g><path class="cls-22" d="M1572.83,814.33c-17.29-30.13-48.62-24.28-68.5,1.2-23.66,30.33-73.53,180.82-73.53,180.82H1608S1590.09,844.47,1572.83,814.33Z"/><g class="cls-24"><path class="cls-2" d="M1519.88,1014.49c4.28-19.12,15.51-37.81,22.52-56,2.63-6.84,33.65-78.79,30.44-86.17-2.14-4.86-8-5.84-12.67-6.33-12.74-1.33-51.61,61.47-64.23,63.43-34.26,5.35-88.07,18-82.6,63.63C1414,998.72,1517.3,1009.34,1519.88,1014.49Z"/></g><path class="cls-2" d="M1109.9,687.57a31.32,31.32,0,0,1,13.21-42.28l.53-.27a31.31,31.31,0,0,1,42.27,13.22l95.3,182-56,29.33Z"/><g class="cls-25"><path class="cls-5" d="M1126.12,675a31.34,31.34,0,0,1,13.22-42.28l.52-.27a31.34,31.34,0,0,1,42.28,13.22l95.29,182-56,29.33Z"/></g><path class="cls-2" d="M1108.6,688.25l95.3,182a1.45,1.45,0,0,0,2,.6l56-29.32a1.43,1.43,0,0,0,.6-1.95l-95.29-182A32.76,32.76,0,0,0,1123,643.73l-.53.28a32.8,32.8,0,0,0-13.84,44.24Zm2.57-1.35a29.92,29.92,0,0,1,12.61-40.33l.53-.27a29.91,29.91,0,0,1,40.33,12.61l94.62,180.73-53.46,28Z"/><path class="cls-2" d="M1221.41,832.42a86.91,86.91,0,1,0,117.34,36.67A87,87,0,0,0,1221.41,832.42Zm16.84,32.17a50.61,50.61,0,1,0,68.32,21.35A50.6,50.6,0,0,0,1238.25,864.59Z"/><g class="cls-26"><path class="cls-5" d="M1230.6,832.42a86.91,86.91,0,1,0,117.34,36.67A87,87,0,0,0,1230.6,832.42Zm16.85,32.17a50.61,50.61,0,1,0,68.31,21.35A50.6,50.6,0,0,0,1247.45,864.59Z"/></g><path class="cls-2" d="M1220.74,831.13A88.36,88.36,0,1,0,1340,868.42,88.41,88.41,0,0,0,1220.74,831.13Zm1.34,2.57A85.47,85.47,0,1,1,1186,949.06,85.54,85.54,0,0,1,1222.08,833.7Zm15.5,29.61a52.06,52.06,0,1,0,70.27,22,52.08,52.08,0,0,0-70.27-22Zm1.34,2.56a49.16,49.16,0,1,1-20.73,66.34,49.19,49.19,0,0,1,20.73-66.34Z"/><path class="cls-2" d="M1079.73,717.5a15.6,15.6,0,0,1,6.6-21.07l31.91-16.71,14.63,27.95L1101,724.38a15.62,15.62,0,0,1-21.08-6.59Z"/><g class="cls-27"><path class="cls-5" d="M1074.57,707.13a15.6,15.6,0,0,1,6.6-21.07l31.9-16.71,14.64,27.95L1095.8,714a15.62,15.62,0,0,1-21.08-6.59Z"/></g><path class="cls-2" d="M1078.46,718.17l.15.29a17,17,0,0,0,23,7.2L1133.54,709a1.45,1.45,0,0,0,.62-2l-14.63-27.94a1.45,1.45,0,0,0-2-.61l-31.91,16.71a17,17,0,0,0-7.2,23Zm2.56-1.34a14.16,14.16,0,0,1,6-19.12l30.62-16,13.29,25.38-30.62,16a14.17,14.17,0,0,1-19.12-6Z"/><path class="cls-2" d="M1129.47,812.49a15.61,15.61,0,0,1,6.59-21.07L1168,774.71l14.63,27.95-31.9,16.7a15.6,15.6,0,0,1-21.08-6.58Z"/><g class="cls-28"><path class="cls-5" d="M1124.3,802.12a15.6,15.6,0,0,1,6.6-21.07l31.91-16.71,14.63,27.95L1145.53,809a15.6,15.6,0,0,1-21.08-6.58Z"/></g><path class="cls-2" d="M1128.2,813.16l.15.29a17,17,0,0,0,23,7.2l31.9-16.71a1.45,1.45,0,0,0,.62-2l-14.63-28a1.46,1.46,0,0,0-2-.6l-31.91,16.7a17,17,0,0,0-7.19,23Zm2.56-1.34a14.14,14.14,0,0,1,6-19.12l30.61-16,13.29,25.38-30.61,16a14.16,14.16,0,0,1-19.12-6Z"/><path class="cls-2" d="M1078.46,778.64a15.6,15.6,0,0,1,6.6-21.07l58-30.39,14.64,28-58,30.38a15.6,15.6,0,0,1-21.08-6.58Z"/><g class="cls-29"><path class="cls-5" d="M1073.3,768.27a15.61,15.61,0,0,1,6.59-21.07l58-30.39,14.63,28-58,30.38a15.6,15.6,0,0,1-21.08-6.58Z"/></g><path class="cls-2" d="M1077.19,779.31l.15.29a17,17,0,0,0,23,7.2l58-30.39a1.45,1.45,0,0,0,.6-1.95l-14.64-28a1.45,1.45,0,0,0-1.94-.61l-58,30.38a17,17,0,0,0-7.2,23Zm2.56-1.34a14.16,14.16,0,0,1,6-19.12l56.74-29.71,13.29,25.38L1099,784.23a14.16,14.16,0,0,1-19.12-6Z"/><path class="cls-5" d="M1375.59,908.25c-6.37-17.59-32.76-47.56-33.25-31.33,3.67,12.37,6.19,23.92,6.07,33.69-13.22,4.57-26,1.25-38-12.85-20-12.47-37.62,33.85-18,51.84,27.58,24.06,55.28,34.07,83.18,16.34Z"/><g class="cls-30"><path class="cls-2" d="M1387.28,900.26c-1.31,8.59-1.44,17-4.75,25.19-6.73,16.7-24.65,29.34-41.53,33.88-10.33,2.77-21.44,3.44-31.8.55a75.79,75.79,0,0,1-12.58-5.29c-1.45-.71-3.48-1.08-3.71,1.11-.55,5.14,4.62,12,7.46,15.65,12,15.62,32.77,23.22,52,23.09a66.44,66.44,0,0,0,16.36-2.06,59.15,59.15,0,0,0,14.24-5.76C1402.52,975.46,1387,920.81,1387.28,900.26Z"/></g><path class="cls-2" d="M1377,908.25a1.33,1.33,0,0,0-.09-.49c-4.54-12.61-19.22-31.38-27.75-35.83-2.32-1.21-4.29-1.4-5.71-.68s-2.51,2.44-2.6,5.62a.8.8,0,0,0,.06.46c3.5,11.78,6,22.81,6,32.24-12.33,3.88-24.2.43-35.46-12.75a1.09,1.09,0,0,0-.34-.29c-8.72-5.45-17.14-.86-22.61,8.15a45.36,45.36,0,0,0-5.76,28.48c1,6.71,3.68,13,8.63,17.51l0,0c28.13,24.54,56.43,34.57,84.91,16.47a1.45,1.45,0,0,0,.67-1.22Zm-2.9.25v56.64c-27.12,16.79-54,6.75-80.77-16.62-4.46-4.09-6.86-9.73-7.7-15.76a42.08,42.08,0,0,1,5.38-26.57c4.49-7.42,11.23-11.66,18.41-7.32,12.47,14.53,25.73,17.84,39.45,13.11a1.43,1.43,0,0,0,.95-1.35c.12-9.83-2.37-21.46-6.08-33.89a6,6,0,0,1,.41-2.14,1.39,1.39,0,0,1,.61-.77,1.71,1.71,0,0,1,1-.09,6.64,6.64,0,0,1,2,.75c8.08,4.22,21.83,22,26.28,34Z"/><path class="cls-2" d="M1317.65,924.19c-2.78-.64-5.5-2.86-7.85-4.37-6.63-4.29-13-9.69-17-16.65a1.46,1.46,0,0,0-2.54,1.43c4.16,7.36,11,13.11,18,17.64,2.6,1.68,5.67,4.06,8.74,4.77a1.45,1.45,0,0,0,1.74-1.08A1.43,1.43,0,0,0,1317.65,924.19Z"/><path class="cls-2" d="M1303.35,934.51c-2.11-.83-4-2.71-5.7-4.15a57.7,57.7,0,0,1-10.8-12.27,1.44,1.44,0,0,0-2-.42,1.47,1.47,0,0,0-.43,2,59.91,59.91,0,0,0,11.37,12.88c1.91,1.64,4.11,3.7,6.52,4.64a1.44,1.44,0,0,0,1-2.69Z"/><path class="cls-22" d="M1528.64,814.33l-29.79,93.61-123.26-6.39v76.12s108,11.49,140.86-7,56.38-104.16,56.38-104.16Z"/><path class="cls-2" d="M1510.84,865.47l-13,41-25.09-1.3a1.45,1.45,0,1,0-.15,2.89l26.23,1.36a1.46,1.46,0,0,0,1.44-1l13.37-42a1.45,1.45,0,0,0-2.77-.88Z"/><path class="cls-2" d="M1463.61,904.66l-15.09-.78a1.45,1.45,0,0,0-.17,2.89l15.11.78a1.45,1.45,0,0,0,.15-2.89Z"/><path class="cls-5" d="M1553.21,766h-28c6.25,13.37,5.6,23.93,0,32.48-13.6,15.88,14,8.44,28,0C1549.52,784.21,1550.09,773.93,1553.21,766Z"/><g class="cls-31"><path class="cls-2" d="M1519.26,792.68c3.12.11,6.13-1.13,9-2.28a41.86,41.86,0,0,0,15.36-10.18,26.16,26.16,0,0,0,4.14-6c.26-.5.93-1.61.47-2.16s-1.54-.09-2.06.07a48.57,48.57,0,0,0-5.93,2.69,78.69,78.69,0,0,1-8.39,3.76C1526.78,780.41,1521.57,787.16,1519.26,792.68Z"/></g><path class="cls-2" d="M1554.56,766.54a1.45,1.45,0,0,0-.17-1.35,1.42,1.42,0,0,0-1.18-.63h-28a1.48,1.48,0,0,0-1.22.67,1.46,1.46,0,0,0-.09,1.39c6,12.74,5.46,22.82.16,31a17.83,17.83,0,0,0-3.7,5.95,4.37,4.37,0,0,0,.13,3.31c.67,1.31,2.22,2.19,4.58,2.37,6.54.49,20.25-4.28,28.9-9.5a1.46,1.46,0,0,0,.66-1.6C1551,784.24,1551.54,774.24,1554.56,766.54Zm-3.41.92c-2.48,7.65-2.82,17.36.39,30.33-8.19,4.71-20.34,9-26.29,8.55a5,5,0,0,1-1.65-.35,1,1,0,0,1-.54-.44c-.22-.42-.07-1,.26-1.74a17.89,17.89,0,0,1,3-4.38l.11-.15c5.54-8.47,6.52-18.84,1-31.82Z"/><path class="cls-5" d="M1538,723.24c13.89,0,25.21,12.49,25.21,27.88s-20.46,28.64-34.38,28.64-16-13.26-16-28.64S1524,723.24,1538,723.24Z"/><path class="cls-2" d="M1538,721.79c-14.67,0-26.65,13.1-26.65,29.33,0,6.29.34,12.24,1.67,17.11,1.28,4.66,3.45,8.36,6.92,10.6a15.85,15.85,0,0,0,8.89,2.37c8.65,0,19.79-4.91,27.29-12.33,5.12-5,8.54-11.23,8.54-17.75C1564.61,734.89,1552.63,721.79,1538,721.79Zm0,2.9c13.14,0,23.76,11.88,23.76,26.43,0,5.78-3.15,11.22-7.67,15.69-6.94,6.87-17.25,11.5-25.26,11.5a13.26,13.26,0,0,1-7.33-1.9c-2.89-1.88-4.6-5-5.67-8.95-1.27-4.65-1.59-10.33-1.59-16.34C1514.19,736.57,1524.78,724.69,1538,724.69Z"/><path class="cls-2" d="M1531.68,698a26.89,26.89,0,0,1,44.86,18.12,26.91,26.91,0,1,1-39,33.21,26.9,26.9,0,1,1-5.91-51.33Z"/><path class="cls-2" d="M1528.69,683.73a8.32,8.32,0,0,1,3.12-4.58,16.19,16.19,0,0,1,8.54-3.71,15.63,15.63,0,0,1,6.25,1.27c2.26.84,4.52,1.86,6.75,2.46a26.67,26.67,0,0,0,20.28-2.87,1.47,1.47,0,0,0,.55-2,1.43,1.43,0,0,0-2-.54,23.87,23.87,0,0,1-18.12,2.6c-2.17-.58-4.31-1.57-6.48-2.39a18.7,18.7,0,0,0-7.41-1.44,19.34,19.34,0,0,0-10.25,4.38,11.35,11.35,0,0,0-4.14,6.28,1.47,1.47,0,0,0,1.19,1.68A1.45,1.45,0,0,0,1528.69,683.73Z"/><path class="cls-2" d="M1521.77,686.84a7.58,7.58,0,0,0-4-4.59,11.64,11.64,0,0,0-8.71-.6c-3.8,1.38-7,4.8-10.31,7.62-2.81,2.4-5.76,4.38-9.61,3.38a1.45,1.45,0,1,0-.72,2.8c4.83,1.26,8.65-1,12.21-4,3.07-2.6,5.94-5.84,9.41-7.11a8.54,8.54,0,0,1,5.38,0,5.29,5.29,0,0,1,3.62,3.27,1.43,1.43,0,0,0,1.79,1A1.45,1.45,0,0,0,1521.77,686.84Z"/><path class="cls-2" d="M1522.09,675.52a4.2,4.2,0,0,1,.2-2.22,26,26,0,0,1,1-2.7,1.44,1.44,0,1,0-2.66-1.11c-.81,1.92-1.91,4.64-1.36,6.76a1.45,1.45,0,0,0,2.81-.73Z"/><path class="cls-2" d="M1528.32,691.2a28.81,28.81,0,0,0-4.08-.29,28.36,28.36,0,1,0,9.7,55A28.35,28.35,0,1,0,1575,710a28.36,28.36,0,0,0-46.71-18.82Zm.2,3a1.4,1.4,0,0,0,1.22-.35A25.45,25.45,0,0,1,1572.2,711a1.5,1.5,0,0,0,.69,1.13A25.46,25.46,0,1,1,1536,743.51a1.47,1.47,0,0,0-.78-.79,1.45,1.45,0,0,0-1.1,0,25.47,25.47,0,1,1-9.9-48.93A25,25,0,0,1,1528.52,694.16Z"/><ellipse class="cls-15" cx="1541.9" cy="756.12" rx="10.17" ry="5.6" transform="translate(382.86 2023.31) rotate(-73.67)"/><path class="cls-2" d="M1545.17,745a5.66,5.66,0,0,0-5,1.18,17.3,17.3,0,0,0-5.1,17.43,5.17,5.17,0,0,0,8.55,2.5,17.27,17.27,0,0,0,5.11-17.42,5.61,5.61,0,0,0-3.56-3.69Zm-.82,2.77a2.86,2.86,0,0,1,1.67,1.94,14.51,14.51,0,0,1-4.13,14.09,2.35,2.35,0,0,1-4.11-1.21,14.5,14.5,0,0,1,4.13-14.09,2.85,2.85,0,0,1,2.44-.73Z"/><path class="cls-22" d="M860.77,1431.72c-58.14,0-105.33-43.32-105.33-96.7s47.19-96.73,105.33-96.73c45.82,0,84.78,26.89,99.33,64.36,2-.14,4-.26,6-.26,28.25,0,52.63,15.32,63.83,37.37a56.25,56.25,0,0,1,22.77-4.74c29,0,52.66,21.68,52.66,48.35s-23.61,48.35-52.66,48.35Z"/><path class="cls-2" d="M860.77,1433.45h192a54.4,54.4,0,1,0-21.92-104.2,72.21,72.21,0,0,0-64.68-40.14c-1.65,0-3.26.08-4.87.17a107.09,107.09,0,1,0-100.5,144.17Zm0-3.46a103.6,103.6,0,1,1,97.68-138.3,1.73,1.73,0,0,0,1.77,1.17c1.93-.16,3.91-.24,5.92-.24a68.71,68.71,0,0,1,62.26,39.65,1.81,1.81,0,0,0,1,.89,1.71,1.71,0,0,0,1.33,0,50.14,50.14,0,0,1,22-5,50.94,50.94,0,0,1,0,101.87Z"/><path class="cls-2" d="M851.32,1431.07c45.3,0,82-33.15,82-74s-36.75-74-82-74c-35.68,0-66,20.58-77.37,49.25-1.53-.11-3.1-.19-4.7-.19-22,0-41,11.72-49.72,28.59a45.41,45.41,0,0,0-25.33-3c-19,3.22-33.43,18.28-33.43,36.37,0,20.41,18.39,37,41,37Z"/><g class="cls-32"><path class="cls-5" d="M827.3,1430.76c45.29,0,82.05-33.15,82.05-74s-36.76-74-82.05-74c-35.69,0-66,20.58-77.37,49.25-1.54-.11-3.11-.2-4.71-.2-22,0-41,11.72-49.71,28.6a44.46,44.46,0,0,0-17.74-3.63c-22.63,0-41,16.59-41,37s18.39,37,41,37Z"/></g><path class="cls-2" d="M851.32,1432.79a83.79,83.79,0,1,0-78.53-113c-1.16-.1-2.35-.13-3.54-.13a56.62,56.62,0,0,0-50.54,31.14,42.76,42.76,0,1,0-16.92,82Zm0-3.45H701.79a39.3,39.3,0,1,1,17-74.73,1.8,1.8,0,0,0,1.35.06,1.75,1.75,0,0,0,1-.91,53.18,53.18,0,0,1,48.15-30.67c1.53,0,3.07.07,4.58.19a1.77,1.77,0,0,0,1.79-1.16,80.33,80.33,0,1,1,75.7,107.22Z"/></g></svg>
