<svg id="visual" viewBox="0 0 900 600" width="900" height="600" xmlns="http://www.w3.org/2000/svg" xmlns:xlink="http://www.w3.org/1999/xlink" version="1.1"><rect x="0" y="0" width="900" height="600" fill="#f7f1f1"></rect><path d="M0 207L21.5 197.8C43 188.7 86 170.3 128.8 158.3C171.7 146.3 214.3 140.7 257.2 139.2C300 137.7 343 140.3 385.8 151.7C428.7 163 471.3 183 514.2 193.7C557 204.3 600 205.7 642.8 192C685.7 178.3 728.3 149.7 771.2 143C814 136.3 857 151.7 878.5 159.3L900 167L900 0L878.5 0C857 0 814 0 771.2 0C728.3 0 685.7 0 642.8 0C600 0 557 0 514.2 0C471.3 0 428.7 0 385.8 0C343 0 300 0 257.2 0C214.3 0 171.7 0 128.8 0C86 0 43 0 21.5 0L0 0Z" fill="#547c9d"></path><path d="M0 115L21.5 109C43 103 86 91 128.8 86.8C171.7 82.7 214.3 86.3 257.2 95.7C300 105 343 120 385.8 129.7C428.7 139.3 471.3 143.7 514.2 141.5C557 139.3 600 130.7 642.8 125.8C685.7 121 728.3 120 771.2 122.3C814 124.7 857 130.3 878.5 133.2L900 136L900 0L878.5 0C857 0 814 0 771.2 0C728.3 0 685.7 0 642.8 0C600 0 557 0 514.2 0C471.3 0 428.7 0 385.8 0C343 0 300 0 257.2 0C214.3 0 171.7 0 128.8 0C86 0 43 0 21.5 0L0 0Z" fill="#6292c5"></path><path d="M0 87L21.5 84.2C43 81.3 86 75.7 128.8 67C171.7 58.3 214.3 46.7 257.2 44.3C300 42 343 49 385.8 57C428.7 65 471.3 74 514.2 70C557 66 600 49 642.8 45.8C685.7 42.7 728.3 53.3 771.2 58.3C814 63.3 857 62.7 878.5 62.3L900 62L900 0L878.5 0C857 0 814 0 771.2 0C728.3 0 685.7 0 642.8 0C600 0 557 0 514.2 0C471.3 0 428.7 0 385.8 0C343 0 300 0 257.2 0C214.3 0 171.7 0 128.8 0C86 0 43 0 21.5 0L0 0Z" fill="#78a7ee"></path></svg>