<svg class="animated" id="freepik_stories-people-buying-halloween-stuff" xmlns="http://www.w3.org/2000/svg" viewBox="0 0 500 500" version="1.1" xmlns:xlink="http://www.w3.org/1999/xlink" xmlns:svgjs="http://svgjs.com/svgjs"><style>svg#freepik_stories-people-buying-halloween-stuff:not(.animated) .animable {opacity: 0;}svg#freepik_stories-people-buying-halloween-stuff.animated #freepik--background-complete--inject-42 {animation: 6s Infinite  linear wind;animation-delay: 0s;}svg#freepik_stories-people-buying-halloween-stuff.animated #freepik--character-1--inject-42 {animation: 1s 1 forwards cubic-bezier(.36,-0.01,.5,1.38) slideUp,6s Infinite  linear floating;animation-delay: 0s,1s;}svg#freepik_stories-people-buying-halloween-stuff.animated #freepik--character-2--inject-42 {animation: 1s 1 forwards cubic-bezier(.36,-0.01,.5,1.38) slideUp,6s Infinite  linear wind;animation-delay: 0s,1s;}            @keyframes wind {                0% {                    transform: rotate( 0deg );                }                25% {                    transform: rotate( 1deg );                }                75% {                    transform: rotate( -1deg );                }            }                    @keyframes slideUp {                0% {                    opacity: 0;                    transform: translateY(30px);                }                100% {                    opacity: 1;                    transform: inherit;                }            }                    @keyframes floating {                0% {                    opacity: 1;                    transform: translateY(0px);                }                50% {                    transform: translateY(-10px);                }                100% {                    opacity: 1;                    transform: translateY(0px);                }            }        </style><g id="freepik--background-complete--inject-42" class="animable" style="transform-origin: 250px 226.125px;"><rect y="382.4" width="500" height="0.25" style="fill: rgb(235, 235, 235); transform-origin: 250px 382.525px;" id="elgp7vj773ajn" class="animable"></rect><rect x="328.88" y="390.34" width="33.12" height="0.25" style="fill: rgb(235, 235, 235); transform-origin: 345.44px 390.465px;" id="elsrhsjajufxc" class="animable"></rect><rect x="399.78" y="390.47" width="41.14" height="0.25" style="fill: rgb(235, 235, 235); transform-origin: 420.35px 390.595px;" id="elfsx9kj7mp69" class="animable"></rect><rect x="356.76" y="397" width="19.19" height="0.25" style="fill: rgb(235, 235, 235); transform-origin: 366.355px 397.125px;" id="eluk35wq8669" class="animable"></rect><rect x="174" y="395.11" width="51.67" height="0.25" style="fill: rgb(235, 235, 235); transform-origin: 199.835px 395.235px;" id="eluf2b6as7w3g" class="animable"></rect><rect x="130.71" y="395.11" width="34.39" height="0.25" style="fill: rgb(235, 235, 235); transform-origin: 147.905px 395.235px;" id="ellno1dt3d7j" class="animable"></rect><rect x="63.29" y="390.89" width="46.84" height="0.25" style="fill: rgb(235, 235, 235); transform-origin: 86.71px 391.015px;" id="elgvw4f32j7zi" class="animable"></rect><path d="M237,337.8H43.91a5.71,5.71,0,0,1-5.7-5.71V60.66A5.71,5.71,0,0,1,43.91,55H237a5.71,5.71,0,0,1,5.71,5.71V332.09A5.71,5.71,0,0,1,237,337.8ZM43.91,55.2a5.46,5.46,0,0,0-5.45,5.46V332.09a5.46,5.46,0,0,0,5.45,5.46H237a5.47,5.47,0,0,0,5.46-5.46V60.66A5.47,5.47,0,0,0,237,55.2Z" style="fill: rgb(235, 235, 235); transform-origin: 140.46px 196.4px;" id="eln6dramtsix" class="animable"></path><path d="M453.31,337.8H260.21a5.72,5.72,0,0,1-5.71-5.71V60.66A5.72,5.72,0,0,1,260.21,55h193.1A5.71,5.71,0,0,1,459,60.66V332.09A5.71,5.71,0,0,1,453.31,337.8ZM260.21,55.2a5.47,5.47,0,0,0-5.46,5.46V332.09a5.47,5.47,0,0,0,5.46,5.46h193.1a5.47,5.47,0,0,0,5.46-5.46V60.66a5.47,5.47,0,0,0-5.46-5.46Z" style="fill: rgb(235, 235, 235); transform-origin: 356.75px 196.4px;" id="elrsnxbicm4va" class="animable"></path><rect x="53.26" y="87.89" width="166.58" height="294.51" style="fill: rgb(250, 250, 250); transform-origin: 136.55px 235.145px;" id="el5admxoyk3md" class="animable"></rect><g id="el4i5tzj6ct8"><rect x="-5.7" y="156.97" width="284.51" height="156.34" style="fill: rgb(240, 240, 240); transform-origin: 136.555px 235.14px; transform: rotate(90deg);" class="animable" id="elvdpg11f6ihi"></rect></g><g id="el7c5fcsq1iaf"><rect x="219.85" y="87.89" width="44.16" height="294.51" style="fill: rgb(240, 240, 240); transform-origin: 241.93px 235.145px; transform: rotate(180deg);" class="animable" id="elgn0a53l1fds"></rect></g><g id="elysfba74dtaj"><rect x="58.39" y="92.89" width="44.16" height="284.51" style="fill: rgb(230, 230, 230); transform-origin: 80.47px 235.145px; transform: rotate(180deg);" class="animable" id="elgzhmlfyvqgq"></rect></g><path d="M79.38,134.67H214.73v-5H79.38a2.5,2.5,0,0,0-2.5,2.5h0A2.5,2.5,0,0,0,79.38,134.67Z" style="fill: rgb(255, 255, 255); transform-origin: 145.805px 132.17px;" id="eluw1x50nu9v9" class="animable"></path><path d="M74.45,202.31S69.16,216,66.77,218.64c5.8,10.83,19.29,17.83,19.29,17.83l2.22-12Z" style="fill: rgb(224, 224, 224); transform-origin: 77.525px 219.39px;" id="elgykgcmj6off" class="animable"></path><path d="M152.08,202.31s5.29,13.66,7.68,16.33c-5.8,10.83-19.29,17.83-19.29,17.83l-2.22-12Z" style="fill: rgb(224, 224, 224); transform-origin: 149.005px 219.39px;" id="el88h6oti98ow" class="animable"></path><path d="M156.46,207c-3.87-20.66-19.12-62.5-33.23-62.5H103.3c-14.11,0-29.36,41.84-33.23,62.5A97.33,97.33,0,0,0,83.5,228.25s0,72.22-4.33,85.56a27.66,27.66,0,0,0,26.32,11.77v-6.27H121v6.27a27.64,27.64,0,0,0,26.31-11.77C143,300.47,143,228.25,143,228.25A97.75,97.75,0,0,0,156.46,207Z" style="fill: rgb(255, 255, 255); transform-origin: 113.265px 235.153px;" id="elbkdgfrq0yzh" class="animable"></path><path d="M113.77,144.47h-1v-7.93a4.4,4.4,0,0,1,.5-8.78v1a3.4,3.4,0,1,0,0,6.79h.51Z" style="fill: rgb(230, 230, 230); transform-origin: 111.28px 136.115px;" id="elx1aoj3ki17o" class="animable"></path><path d="M93.91,202.31S88.62,216,86.23,218.64c5.81,10.83,19.29,17.83,19.29,17.83l2.22-12Z" style="fill: rgb(224, 224, 224); transform-origin: 96.985px 219.39px;" id="eldgheypx3byq" class="animable"></path><path d="M171.54,202.31s5.29,13.66,7.68,16.33c-5.8,10.83-19.29,17.83-19.29,17.83l-2.22-12Z" style="fill: rgb(224, 224, 224); transform-origin: 168.465px 219.39px;" id="eli2c7260h1a" class="animable"></path><path d="M175.92,207c-3.87-20.66-19.12-62.5-33.23-62.5H122.77c-14.12,0-29.37,41.84-33.24,62.5A97.75,97.75,0,0,0,103,228.25s0,72.22-4.32,85.56A27.64,27.64,0,0,0,125,325.58v-6.27h15.56v6.27a27.64,27.64,0,0,0,26.31-11.77c-4.33-13.34-4.33-85.56-4.33-85.56A97.33,97.33,0,0,0,175.92,207Z" style="fill: rgb(240, 240, 240); transform-origin: 132.725px 235.153px;" id="el8jiu3cpqcyh" class="animable"></path><path d="M133.23,144.47h-1v-7.93a4.4,4.4,0,0,1,.51-8.78v1a3.4,3.4,0,1,0,0,6.79h.5Z" style="fill: rgb(230, 230, 230); transform-origin: 130.738px 136.114px;" id="elmyfrgamo4jg" class="animable"></path><path d="M111.67,202.31S106.38,216,104,218.64c5.8,10.83,19.29,17.83,19.29,17.83l2.22-12Z" style="fill: rgb(224, 224, 224); transform-origin: 114.755px 219.39px;" id="el85btwa9l5mn" class="animable"></path><path d="M189.3,202.31S194.59,216,197,218.64c-5.81,10.83-19.29,17.83-19.29,17.83l-2.22-12Z" style="fill: rgb(224, 224, 224); transform-origin: 186.245px 219.39px;" id="elpzhtgs3ayy" class="animable"></path><path d="M193.68,207c-3.87-20.66-19.12-62.5-33.24-62.5H140.52c-14.11,0-29.36,41.84-33.23,62.5a97.33,97.33,0,0,0,13.43,21.28s0,72.22-4.33,85.56a27.64,27.64,0,0,0,26.31,11.77v-6.27h15.56v6.27a27.64,27.64,0,0,0,26.31-11.77c-4.32-13.34-4.32-85.56-4.32-85.56A97.75,97.75,0,0,0,193.68,207Z" style="fill: rgb(230, 230, 230); transform-origin: 150.485px 235.168px;" id="elyllymx6c4p8" class="animable"></path><path d="M151,144.47h-1v-7.93a4.4,4.4,0,0,1,.5-8.78v1a3.4,3.4,0,1,0,0,6.79H151Z" style="fill: rgb(230, 230, 230); transform-origin: 148.505px 136.115px;" id="elzxdwpv29d8o" class="animable"></path><path d="M125.29,202.31S120,216,117.6,218.64c5.81,10.83,19.3,17.83,19.3,17.83l2.22-12Z" style="fill: rgb(255, 255, 255); transform-origin: 128.36px 219.39px;" id="eldmex4vcmiv4" class="animable"></path><path d="M202.91,202.31s5.3,13.66,7.69,16.33c-5.81,10.83-19.29,17.83-19.29,17.83l-2.22-12Z" style="fill: rgb(255, 255, 255); transform-origin: 199.845px 219.39px;" id="elvmw18w94c6l" class="animable"></path><path d="M207.3,207c-3.87-20.66-19.12-62.5-33.24-62.5H154.14c-14.11,0-29.36,41.84-33.23,62.5a97.33,97.33,0,0,0,13.43,21.28s0,72.22-4.33,85.56a27.64,27.64,0,0,0,26.31,11.77v-6.27h15.56v6.27a27.64,27.64,0,0,0,26.31-11.77c-4.32-13.34-4.32-85.56-4.32-85.56A97.75,97.75,0,0,0,207.3,207Z" style="fill: rgb(224, 224, 224); transform-origin: 164.105px 235.168px;" id="elcsn4wlg8j97" class="animable"></path><path d="M164.61,144.47h-1v-7.93a4.4,4.4,0,0,1,.5-8.78v1a3.4,3.4,0,1,0,0,6.79h.51Z" style="fill: rgb(230, 230, 230); transform-origin: 162.12px 136.115px;" id="elnsr8k6d7sph" class="animable"></path><g id="el77j5prw5ec4"><rect x="300.98" y="96.04" width="85.63" height="108.67" style="fill: rgb(240, 240, 240); transform-origin: 343.795px 150.375px; transform: rotate(180deg);" class="animable" id="eliauv6hy241j"></rect></g><rect x="299.37" y="96.04" width="1.61" height="108.67" style="fill: rgb(224, 224, 224); transform-origin: 300.175px 150.375px;" id="elfwodokgbusl" class="animable"></rect><g id="elczaagv61svo"><rect x="309.2" y="101.94" width="69.18" height="96.87" style="fill: rgb(250, 250, 250); transform-origin: 343.79px 150.375px; transform: rotate(180deg);" class="animable" id="ely7n74xpkllj"></rect></g><path d="M349.64,149.24a6.76,6.76,0,1,0,7.8-5.53A6.76,6.76,0,0,0,349.64,149.24Z" style="fill: rgb(240, 240, 240); transform-origin: 356.304px 150.374px;" id="elqpqn461mhhh" class="animable"></path><g id="eldfpgeaiuydh"><circle cx="360.79" cy="124.01" r="6.76" style="fill: rgb(240, 240, 240); transform-origin: 360.79px 124.01px; transform: rotate(-69.92deg);" class="animable" id="elnmjaf7797s"></circle></g><path d="M345.16,175.61a6.76,6.76,0,1,0,7.8-5.54A6.75,6.75,0,0,0,345.16,175.61Z" style="fill: rgb(240, 240, 240); transform-origin: 351.826px 176.733px;" id="elxv7rz6id09" class="animable"></path><path d="M324.62,149.24a6.76,6.76,0,1,0,7.8-5.53A6.76,6.76,0,0,0,324.62,149.24Z" style="fill: rgb(240, 240, 240); transform-origin: 331.284px 150.374px;" id="el8w7eysxl5h3" class="animable"></path><g id="elmkqjhkdh6j"><circle cx="335.77" cy="124.01" r="6.76" style="fill: rgb(240, 240, 240); transform-origin: 335.77px 124.01px; transform: rotate(-69.92deg);" class="animable" id="elnl28humdrok"></circle></g><path d="M320.13,175.61a6.77,6.77,0,1,0,7.8-5.54A6.76,6.76,0,0,0,320.13,175.61Z" style="fill: rgb(240, 240, 240); transform-origin: 326.804px 176.745px;" id="elpjmww3vpk3p" class="animable"></path><polygon points="270.95 242.13 290.84 382.4 262.72 382.4 232.33 242.14 270.95 242.13" style="fill: rgb(230, 230, 230); transform-origin: 261.585px 312.265px;" id="elidunys0e8h" class="animable"></polygon><polygon points="353.5 217.28 440.73 218.05 451.69 157.09 364.46 156.32 353.5 217.28" style="fill: rgb(230, 230, 230); transform-origin: 402.595px 187.185px;" id="elmd2z55znt4" class="animable"></polygon><polygon points="420.21 245.96 403.32 245.93 394.43 184.49 411.31 184.52 420.21 245.96" style="fill: rgb(230, 230, 230); transform-origin: 407.32px 215.225px;" id="elt7yh8o85qqs" class="animable"></polygon><polygon points="473.4 242.13 447.23 382.4 290.84 382.4 270.95 242.13 473.4 242.13" style="fill: rgb(245, 245, 245); transform-origin: 372.175px 312.265px;" id="elt78zkdksf8j" class="animable"></polygon><polygon points="270.34 316.37 465.08 316.37 469.42 289.94 274.68 289.94 270.34 316.37" style="fill: rgb(230, 230, 230); transform-origin: 369.88px 303.155px;" id="el8et1v99abu4" class="animable"></polygon><polygon points="264.01 355.05 458.75 355.05 463.09 328.62 268.35 328.62 264.01 355.05" style="fill: rgb(230, 230, 230); transform-origin: 363.55px 341.835px;" id="eler0z513kc4a" class="animable"></polygon></g><g id="freepik--Shadow--inject-42" class="animable" style="transform-origin: 250px 416.24px;"><ellipse id="freepik--path--inject-42" cx="250" cy="416.24" rx="193.89" ry="11.32" style="fill: rgb(245, 245, 245); transform-origin: 250px 416.24px;" class="animable"></ellipse></g><g id="freepik--character-1--inject-42" class="animable" style="transform-origin: 147.309px 257.35px;"><polygon points="119.91 389.73 136.68 391.12 133.84 410.83 119.82 409.69 119.91 389.73" style="fill: rgb(255, 181, 115); transform-origin: 128.25px 400.28px;" id="elgea7gqwr3te" class="animable"></polygon><g id="el0foc4znx43fl"><polygon points="119.91 389.73 136.69 391.13 135.1 402.16 119.86 400.91 119.91 389.73" style="opacity: 0.2; transform-origin: 128.275px 395.945px;" class="animable" id="elk7ul0o8vd29"></polygon></g><path d="M152,331.69c6.54-25.22,26.27-54.89,13.18-78L118.36,258s-1.71,43.93-2,67.52c-.34,24.53,1.77,70.89,1.77,70.89l19.22,1.46S150.43,360,152,331.69Z" style="fill: #BC9EEF; transform-origin: 142.946px 325.78px;" id="el6flzf7fhyf6" class="animable"></path><g id="ela4xbavjght"><path d="M152,331.69c6.54-25.22,26.27-54.89,13.18-78L118.36,258s-1.71,43.93-2,67.52c-.34,24.53,1.77,70.89,1.77,70.89l19.22,1.46S150.43,360,152,331.69Z" style="opacity: 0.3; transform-origin: 142.946px 325.78px;" class="animable" id="elo6dpyowrw0o"></path></g><path d="M138.22,398.65l-20.77-1.52a.73.73,0,0,1-.67-.68l-.45-7.71a.73.73,0,0,1,.82-.76l23,3.06a.73.73,0,0,1,.6.93L139,398.13A.72.72,0,0,1,138.22,398.65Z" style="fill: rgb(38, 50, 56); transform-origin: 128.555px 393.315px;" id="el4uzvuq3im0m" class="animable"></path><g id="elt5orhkn9oa"><path d="M165,276a126.66,126.66,0,0,1-.72,17.85c-2.3,7.94-5.23,15.88-7.86,23.59C152.93,295.63,152.92,270.2,165,276Z" style="opacity: 0.2; transform-origin: 159.731px 296.301px;" class="animable" id="el660zr8f25of"></path></g><polygon points="193.26 387.36 209.27 382.13 215.64 400.95 202.27 405.34 193.26 387.36" style="fill: rgb(255, 181, 115); transform-origin: 204.45px 393.735px;" id="el7p92mz8xwk6" class="animable"></polygon><path d="M215.92,397.63a.8.8,0,0,0-1.15-.3c-3.46,2.94-11.46,4.28-14.52,4.7a2.5,2.5,0,0,0-1.72,1c-2.32,3.2-7.59,6.14-7.59,6.14a9.38,9.38,0,0,0,1.21,4.94l28.1-9.19A55,55,0,0,1,215.92,397.63Z" style="fill: rgb(38, 50, 56); transform-origin: 205.592px 405.654px;" id="el235qjdfu5qb" class="animable"></path><path d="M135.69,407.93a.79.79,0,0,0-1-.65c-4.22,1.67-12.23.39-15.26-.19a2.5,2.5,0,0,0-1.94.4c-3.23,2.29-11.83,3.69-11.83,3.69a9.36,9.36,0,0,0-.43,5.06l32.23,0A55,55,0,0,1,135.69,407.93Z" style="fill: rgb(38, 50, 56); transform-origin: 121.261px 411.639px;" id="elm21kblk7ghf" class="animable"></path><g id="elcln5gmubyfu"><polygon points="193.26 387.36 209.28 382.13 212.84 392.67 198.31 397.43 193.26 387.36" style="opacity: 0.2; transform-origin: 203.05px 389.78px;" class="animable" id="ela28tuyurtv"></polygon></g><path d="M201.2,323.53c2.28-25.5,10.68-62.75,1.47-73.64l-54.73,5.28s10.79,47.64,15.39,71.17c4.77,24.46,32,67.54,32,67.54l17.27-5.78S207,352.63,201.2,323.53Z" style="fill: #BC9EEF; transform-origin: 180.27px 321.885px;" id="eld0wcx86tpn9" class="animable"></path><g id="eln8k0qqyko6"><path d="M201.2,323.53c2.28-25.5,10.68-62.75,1.47-73.64l-54.73,5.28s10.79,47.64,15.39,71.17c4.77,24.46,32,67.54,32,67.54l17.27-5.78S207,352.63,201.2,323.53Z" style="opacity: 0.3; transform-origin: 180.27px 321.885px;" class="animable" id="el2xz1ljxzlc6"></path></g><path d="M214,388.35l-19.55,6.59a.68.68,0,0,1-.83-.32l-3.63-6.5a.76.76,0,0,1,.45-1.09L212,380.8a.7.7,0,0,1,.88.5l1.58,6.14A.77.77,0,0,1,214,388.35Z" style="fill: rgb(38, 50, 56); transform-origin: 202.192px 387.875px;" id="ela7gza5rfop" class="animable"></path><path d="M145.29,170.07c.06,1.69.07,3.13.05,4.68s-.07,3-.13,4.54c-.15,3-.34,6-.68,9l-.5,4.51c-.22,1.51-.4,3-.65,4.52-.46,3-1,6-1.67,9l-.32,1.5a7.31,7.31,0,0,1-1.13,2.65,24,24,0,0,1-9.27,8.22,22.14,22.14,0,0,1-5.89,1.91,23.75,23.75,0,0,1-5.59.26,27.62,27.62,0,0,1-9.31-2.41,30.9,30.9,0,0,1-3.86-2.07c-.61-.38-1.2-.79-1.79-1.21l-.88-.67-1-.77a6.09,6.09,0,0,1,5.75-10.73c0-.05.15,0,.25,0l.35,0,.73.05c.49,0,1,.08,1.48.09a27.07,27.07,0,0,0,2.84,0,18.11,18.11,0,0,0,2.55-.24,8.93,8.93,0,0,0,2.06-.54,5.5,5.5,0,0,0,1.35-.75,2.29,2.29,0,0,0,.59-.77c.19-.47.24-.9.48-1.7l-1.44,4.15c.11-2.75.25-5.5.32-8.28l.23-8.34.2-8.35c0-1.4.06-2.79.12-4.17s.08-2.82.15-4l0-.3a12.29,12.29,0,0,1,24.56.16Z" style="fill: rgb(255, 181, 115); transform-origin: 122.489px 189.525px;" id="el27a59jjterv" class="animable"></path><path d="M109.9,205.12l-2.83,6.51c-5.2,5.33-10.91-2.54-10.91-2.54l-4.27-2.68a3.77,3.77,0,0,1-1.17-4.73l2-4.56a3.91,3.91,0,0,1,4.9-2.41l4.06,1.7a7.7,7.7,0,0,1,3,2.26Z" style="fill: rgb(255, 181, 115); transform-origin: 100.114px 203.999px;" id="el582tlgms7h6" class="animable"></path><path d="M128,155.6c-9.54,6.26-14.3,30.07-14.3,30.07,3,8.5,13.15,16.11,20.94,18.27a57.18,57.18,0,0,0,15.18-27.23C153,163.84,147.29,143,128,155.6Z" style="fill: #BC9EEF; transform-origin: 132.174px 177.819px;" id="el3qskgw4pcyb" class="animable"></path><path d="M137,151.6a212.7,212.7,0,0,1,46.67-3.76c9.06.39,15.91,5.35,16.59,23.76,1.39,37.35,7.59,66,4.15,79.79,0,0-66.83,26.33-88.25,9.35-9.08-44.23,3.37-82.89,9.19-99A15.75,15.75,0,0,1,137,151.6Z" style="fill: #BC9EEF; transform-origin: 159.191px 207.095px;" id="elxsr14dpeb0k" class="animable"></path><path d="M169.64,148.72l-26.41,5.8c-4.8,3.66-7.59,12.06,1.6,11.12C159.3,164.16,171.21,154.44,169.64,148.72Z" style="fill: rgb(255, 255, 255); transform-origin: 154.277px 157.216px;" id="elpncz6a92ce" class="animable"></path><path d="M142.55,155.17c1.61-1.92,3.57-1.09,4.18-3.8a9.18,9.18,0,0,0-1.56-6l20.1-13.48c.34,7.84.62,14,4.37,16.79,1.57,5.72-8.65,12.57-23.12,14.05C137.33,163.71,140.23,157.93,142.55,155.17Z" style="fill: rgb(255, 181, 115); transform-origin: 155.004px 147.365px;" id="elybllnfip0af" class="animable"></path><g id="elxwcoypola9b"><path d="M145.54,146.05l16.34-5.81c-3.58,7.07-10.85,11.44-15.1,10.23A9.16,9.16,0,0,0,145.54,146.05Z" style="opacity: 0.2; transform-origin: 153.71px 145.455px;" class="animable" id="el4lmil8jfgkg"></path></g><path d="M148.79,107.2c10.84-3.52,21.3,4.75,20.12,15s-2.21,17.17-8.82,21.25c-13.13,8.12-20.49,2.23-22.63-8.15C135.54,126,137.78,110.77,148.79,107.2Z" style="fill: rgb(255, 181, 115); transform-origin: 152.922px 126.815px;" id="elmo27l6ket4c" class="animable"></path><g id="elc4q4s2ijsn7"><path d="M152.68,124.81a5.09,5.09,0,0,1,3.89.18A10.2,10.2,0,0,1,152.68,124.81Z" style="opacity: 0.2; transform-origin: 154.625px 124.803px;" class="animable" id="elmhmh6nuz8q7"></path></g><g id="el84g6ud8lk2d"><path d="M152.7,125.74a4.2,4.2,0,0,1,3.37,1A8.31,8.31,0,0,1,152.7,125.74Z" style="opacity: 0.2; transform-origin: 154.385px 126.218px;" class="animable" id="elbxvcxsuls4b"></path></g><path d="M168.33,130.8c-6.06,2-10.3.61-7.8-4.56,1.08-2.22-1.72-5.19.34-9a3.4,3.4,0,0,0-3.45-5c-6.3.9-14.69,5.39-16.26,1a3.82,3.82,0,0,1,1.09-4,20.27,20.27,0,0,1,6.62-4.08c9.57-3.7,22.93-.42,24.45,13.12C174.63,129.86,168.33,130.8,168.33,130.8Z" style="fill: rgb(38, 50, 56); transform-origin: 157.24px 117.71px;" id="el3wsda907s43" class="animable"></path><path d="M146.78,115.84c-4.68.45-12.59-2.08-14.61-7.31a9,9,0,0,0,3.3-.63s-2.39-3.56-.53-7.2c2.6,2.35,7.12,2.87,7.12,2.87a9.55,9.55,0,0,1,.33-5.11c2.11,5.19,9.81,3.47,12.65,8.2S151.46,115.4,146.78,115.84Z" style="fill: #BC9EEF; transform-origin: 143.955px 107.176px;" id="eljl82z8q149" class="animable"></path><path d="M148,135.9a9.72,9.72,0,0,1-1.4-.07.28.28,0,0,1-.24-.31.27.27,0,0,1,.31-.24,7.55,7.55,0,0,0,6.44-2.14.27.27,0,0,1,.39,0,.29.29,0,0,1,0,.4A7.82,7.82,0,0,1,148,135.9Z" style="fill: rgb(38, 50, 56); transform-origin: 149.969px 134.48px;" id="el2lhbjo1uusw" class="animable"></path><path d="M172.3,130.91a9.11,9.11,0,0,1-5.62,4.16c-3.13.75-4.6-2.08-3.65-5,.85-2.61,3.5-6.13,6.61-5.59S173.8,128.35,172.3,130.91Z" style="fill: rgb(255, 181, 115); transform-origin: 167.86px 129.808px;" id="eli22c1da3hq" class="animable"></path><path d="M150.89,125.09c0,.9-.55,1.6-1.14,1.57s-1-.79-1-1.68.54-1.61,1.13-1.58S150.92,124.19,150.89,125.09Z" style="fill: rgb(38, 50, 56); transform-origin: 149.821px 125.03px;" id="el7tec99ft6oy" class="animable"></path><g id="elw1ijsi4vua"><ellipse cx="139.27" cy="124.64" rx="1.63" ry="1.07" style="fill: rgb(38, 50, 56); transform-origin: 139.27px 124.64px; transform: rotate(-87.89deg);" class="animable" id="el7a8wj180wuc"></ellipse></g><path d="M143.87,125.32l.22,7.55s-2.41.66-3.88-.63A15.37,15.37,0,0,1,143.87,125.32Z" style="fill: rgb(237, 137, 62); transform-origin: 142.15px 129.179px;" id="elm45b0arimv" class="animable"></path><path d="M154.12,122.72a.46.46,0,0,0,.26,0,.51.51,0,0,0,.3-.68,5.27,5.27,0,0,0-3.53-3.31.53.53,0,0,0-.63.41.55.55,0,0,0,.41.63h0a4.18,4.18,0,0,1,2.77,2.65A.55.55,0,0,0,154.12,122.72Z" style="fill: rgb(38, 50, 56); transform-origin: 152.616px 120.728px;" id="elb6o8my1pifm" class="animable"></path><path d="M136.54,121.05a.54.54,0,0,0,.43-.25,4.13,4.13,0,0,1,3.17-2.11.53.53,0,0,0,.5-.55.54.54,0,0,0-.55-.51,5.23,5.23,0,0,0-4,2.62.53.53,0,0,0,.18.73A.55.55,0,0,0,136.54,121.05Z" style="fill: rgb(38, 50, 56); transform-origin: 138.327px 119.34px;" id="elcj6mm8s5arl" class="animable"></path><path d="M205.66,165.05c.36.68.56,1.07.81,1.59l.7,1.45c.46,1,.87,1.92,1.29,2.88.84,1.92,1.57,3.87,2.29,5.84s1.33,4,1.93,6,1.13,4.09,1.57,6.19.86,4.23,1.17,6.42.51,4.42.6,6.71a51.31,51.31,0,0,1-1.27,14.41l-.16.7a10.05,10.05,0,0,1-1.93,3.93,18.09,18.09,0,0,1-5.1,4.31,19.22,19.22,0,0,1-5.1,2,27.07,27.07,0,0,1-8.22.65,40.09,40.09,0,0,1-6.64-1c-2.06-.47-4-1-5.9-1.64A86.37,86.37,0,0,1,171,221.06c-1.69-.83-3.35-1.73-5-2.65s-3.19-1.89-4.87-3a6.18,6.18,0,0,1,4.59-11.2l.32.06,5,.95c1.67.33,3.35.62,5,.91s3.3.54,4.92.78,3.22.43,4.79.57a38.73,38.73,0,0,0,8.45.07,5.72,5.72,0,0,0,2.26-.66c.12-.11,0-.17-.24-.07a3.18,3.18,0,0,0-1.15.83L193,212.26a37.66,37.66,0,0,0-.33-8.21c-.2-1.48-.51-3-.86-4.55s-.73-3.12-1.17-4.69c-.92-3.14-2-6.34-3.16-9.51-.58-1.59-1.23-3.16-1.86-4.74l-1-2.32-.9-2.09-.22-.52a12.28,12.28,0,0,1,22.15-10.58Z" style="fill: rgb(255, 181, 115); transform-origin: 187.248px 193.312px;" id="el17jz375bsyu" class="animable"></path><path d="M191,149.52c18.25,9.62,25.17,31.29,25.17,31.29-3.56,6.88-25.22,14.45-33.4,12.46,0,0-7.91-14.2-9.6-27C171.59,154.48,180.29,143.89,191,149.52Z" style="fill: #BC9EEF; transform-origin: 194.577px 170.779px;" id="el53zp1cwvsoo" class="animable"></path><path d="M90.36,187.87s13.36-1.62,17.47-8.6c6.83,2.56,16.56,3.11,22.86-2,5.14,5.68,14.28,7.13,22,3.48,5,6.36,15.17,7.13,15.17,7.13s-36.44,15-37.16,33.84C124.48,210.73,109.65,189.15,90.36,187.87Z" style="fill: rgb(38, 50, 56); transform-origin: 129.11px 199.495px;" id="el0yi9vg8b6g9" class="animable"></path><g id="elrt3d3v4txy"><path d="M90.36,187.87s13.36-1.62,17.47-8.6c6.83,2.56,16.56,3.11,22.86-2,5.14,5.68,14.28,7.13,22,3.48,5,6.36,15.17,7.13,15.17,7.13s-36.44,15-37.16,33.84C124.48,210.73,109.65,189.15,90.36,187.87Z" style="fill: rgb(255, 255, 255); opacity: 0.5; transform-origin: 129.11px 199.495px;" class="animable" id="eljr8utyqra7"></path></g><path d="M152.92,210c5.4-17.56,26.94-22.56,26.94-22.56S143,178.9,130.69,207.5c-12.36-28.6-49.17-20.06-49.17-20.06s21.54,5,26.93,22.56S90.37,313.9,77.31,324.15c8.63.24,16.72,4.63,17.18,10,16.79,1,15.42,11.83,15.42,11.83s15.51-.61,18.67,9.63c3.15-10.24,17.81-5.85,17.81-5.85a22,22,0,0,1,20.5-15.61c.45-5.37,8.54-9.76,17.18-10C171,313.9,147.52,227.56,152.92,210Z" style="fill: rgb(38, 50, 56); transform-origin: 130.69px 270.928px;" id="el4izsmpu5il6" class="animable"></path><path d="M77.91,355.45l5-.89a1.52,1.52,0,0,0,1.24-1.76l-1.72-9.74a1.51,1.51,0,0,0-.76-1.06l-2.88-1.59a1.51,1.51,0,0,0-1.88.33l-2.17,2.48a1.52,1.52,0,0,0-.35,1.26l1.71,9.74A1.52,1.52,0,0,0,77.91,355.45Z" style="fill: #BC9EEF; transform-origin: 79.2699px 347.85px;" id="elrxn1eecqc1" class="animable"></path><path d="M77.9,341.32a.54.54,0,0,1-.46-.25c-2.14-3.24,1-5.82,4-8.33,3.55-2.94,7.22-6,5.25-10.64a.56.56,0,0,1,.3-.72.54.54,0,0,1,.71.29c2.28,5.41-2.06,9-5.56,11.92-3.33,2.76-5.3,4.58-3.79,6.87a.54.54,0,0,1-.15.76A.51.51,0,0,1,77.9,341.32Z" style="fill: rgb(38, 50, 56); transform-origin: 82.5347px 331.328px;" id="els4ko57p9d1n" class="animable"></path><path d="M166.58,204.78l.31,7.09c-2.34,7.08-10.92,2.5-10.92,2.5l-5-.53a3.76,3.76,0,0,1-3.13-3.73l-.25-5a3.92,3.92,0,0,1,3.35-4.32l4.39-.25a7.8,7.8,0,0,1,3.72.7Z" style="fill: rgb(255, 181, 115); transform-origin: 157.228px 208.177px;" id="elwjoenobnxc" class="animable"></path></g><g id="freepik--character-2--inject-42" class="animable" style="transform-origin: 341.912px 264.518px;"><path d="M308.41,122c-5.62,15.95-1.74,28.63,5.12,31.59,10.66,4.6,24.1.06,24.1.06s-7.43-8.57-7.43-23.4C330.2,114.48,315.63,117.9,308.41,122Z" style="fill: rgb(38, 50, 56); transform-origin: 321.673px 137.105px;" id="elbdua6c9d63w" class="animable"></path><path d="M326.9,412.07c-8.1-.63-13.55-6.19-13-12.08.31-3.25-10.07-3.54-10.07-3.54,1.64,10.07-.42,11.51-1.1,14.11s-.51,5.48,1.64,5.53c2.57.07,3.77-.42,7-.3,3.74.15,7.78.29,14.43.3C328.43,416.1,330.5,412.35,326.9,412.07Z" style="fill: #BC9EEF; transform-origin: 315.602px 406.273px;" id="ela06fvdroem" class="animable"></path><path d="M338.74,222.33s-1.45,47.21-8.32,82.77c-1.44,26.5-12.64,81-15.3,93.6a3.94,3.94,0,0,1-3.42,3.1,23.11,23.11,0,0,1-4.91.05,3.86,3.86,0,0,1-3.38-3.4c-1.38-11-5.78-52.42.35-93.86-5.26-50.67-3.47-82.26-3.47-82.26Z" style="fill: rgb(38, 50, 56); transform-origin: 319.368px 312.144px;" id="eln48gfwkgc9n" class="animable"></path><g id="el67uydu706ea"><path d="M300.08,245.82c.25,14.17,1.13,34.23,3.68,58.76-.54,3.63-1,7.27-1.29,10.88C320.08,286.32,324.25,240.28,300.08,245.82Z" style="opacity: 0.2; transform-origin: 308.515px 280.411px;" class="animable" id="elv38p3r5nqxh"></path></g><path d="M242,396.49a47.45,47.45,0,0,0,7.46-10.59s9.27,2.28,7.45,5c-3.3,4.85-4.91,14.82-.66,20.16,2.43,3.05-1.41,3.56-3.95,2.25-4-2.07-3.87-2.85-6-6.28-1.79-2.93-2.5-4.08-5-5.34C239.33,400.6,240.33,398.56,242,396.49Z" style="fill: #BC9EEF; transform-origin: 248.68px 399.943px;" id="el0u4ocoqqfzf" class="animable"></path><path d="M324.74,222.33s-15.61,65.6-25.45,93.62c-9.1,25.88-33.73,64.13-40.27,74.29a3.92,3.92,0,0,1-4.57,1.59,23.48,23.48,0,0,1-4.72-2.14,3.9,3.9,0,0,1-1.75-4.31c2.57-10.12,12.74-49,24-76.57,5-66.69,21.73-86.48,21.73-86.48Z" style="fill: rgb(38, 50, 56); transform-origin: 286.298px 307.186px;" id="el4ksui2lj4rm" class="animable"></path><path d="M293,254.72a.44.44,0,0,1-.22-.05.5.5,0,0,1-.23-.67,7,7,0,0,0-.77-6.47,3.59,3.59,0,0,0-3.44-1.67c-2.34.28-8.11,1.49-11.07,6.61a.51.51,0,0,1-.69.18.5.5,0,0,1-.18-.68c2.25-3.88,6.55-6.47,11.82-7.11a4.55,4.55,0,0,1,4.38,2.09,8,8,0,0,1,.85,7.49A.49.49,0,0,1,293,254.72Z" style="fill: #BC9EEF; transform-origin: 285.174px 249.775px;" id="elhl9645nhjaf" class="animable"></path><path d="M275.46,271.17a.38.38,0,0,1-.38-.32l-4.3-30.24a.38.38,0,1,1,.75-.11l4.31,30.24a.38.38,0,0,1-.33.43Z" style="fill: rgb(38, 50, 56); transform-origin: 273.307px 255.659px;" id="el22kh2b5m2u6" class="animable"></path><polygon points="269.76 230.75 272.55 234.83 277.49 234.84 274.48 238.76 275.99 243.46 271.33 241.8 267.33 244.69 267.47 239.75 263.48 236.84 268.22 235.44 269.76 230.75" style="fill: #BC9EEF; transform-origin: 270.485px 237.72px;" id="ellkrklr0m1ua" class="animable"></polygon><g id="elyx3hf5uh4z"><polygon points="269.76 230.75 272.55 234.83 277.49 234.84 274.48 238.76 275.99 243.46 271.33 241.8 267.33 244.69 267.47 239.75 263.48 236.84 268.22 235.44 269.76 230.75" style="fill: rgb(255, 255, 255); opacity: 0.3; transform-origin: 270.485px 237.72px;" class="animable" id="el526d6kmme5n"></polygon></g><g id="el25cbjfdyk9g"><polygon points="269.02 238.99 266.88 237.43 269.42 236.68 270.25 234.16 271.74 236.35 274.39 236.36 272.78 238.46 273.59 240.98 271.09 240.09 268.94 241.64 269.02 238.99" style="fill: #BC9EEF; opacity: 0.5; transform-origin: 270.635px 237.9px;" class="animable" id="el4zdq6h1z2a3"></polygon></g><polygon points="298.55 304.57 258.54 299.45 269.71 248.96 302.11 253.11 298.55 304.57" style="fill: #BC9EEF; transform-origin: 280.325px 276.765px;" id="elavcklb1rrd" class="animable"></polygon><g id="el9pxpx1l7cni"><polygon points="302.11 253.11 297.65 252.54 287.79 303.2 298.55 304.57 302.11 253.11" style="opacity: 0.2; transform-origin: 294.95px 278.555px;" class="animable" id="ela4zy6oee2rd"></polygon></g><path d="M380.09,160.93l2.26-3.19a8.14,8.14,0,0,1,3.22-2.68l2.44-1.13a3.69,3.69,0,0,1,4.55,1.22l1.55,2.18a3.69,3.69,0,0,1-.92,5.16l-1.88,1.29s-4.76,4.21-9.81,4.58l-.74-1.21A6.93,6.93,0,0,1,380.09,160.93Z" style="fill: rgb(127, 62, 59); transform-origin: 387.213px 160.977px;" id="eluafgaacbcrk" class="animable"></path><path d="M335.59,165.43l1.2.92,1.39,1c1,.67,1.91,1.36,2.9,2a61.91,61.91,0,0,0,6,3.51c1,.52,2,1,3.05,1.4a28.32,28.32,0,0,0,3.05,1.15c1,.33,2,.58,3,.8.5.11,1,.19,1.49.27l.74.09.36,0h-.21l-.26,0c-.57.14-.36.17-.15.1a7.35,7.35,0,0,0,1.07-.42,26.46,26.46,0,0,0,2.81-1.64c2-1.29,4-2.79,6.07-4.36,4.09-3.11,8.22-6.51,12.38-9.76l.08-.06a4.05,4.05,0,0,1,5.9,5.38,108.68,108.68,0,0,1-10.08,13.28,73.58,73.58,0,0,1-6.09,6.17,39.72,39.72,0,0,1-3.77,3,20.32,20.32,0,0,1-2.48,1.47,12.85,12.85,0,0,1-4,1.28,5.38,5.38,0,0,1-.76.08l-.41,0H358c-.42,0-.85,0-1.27,0-.84,0-1.69-.06-2.51-.14a35.3,35.3,0,0,1-4.87-.77,46.88,46.88,0,0,1-9-3,57.52,57.52,0,0,1-8.07-4.3c-1.27-.82-2.52-1.66-3.73-2.57-.61-.46-1.21-.91-1.81-1.4l-.9-.76-1-.88A8.07,8.07,0,0,1,335.05,165Z" style="fill: rgb(127, 62, 59); transform-origin: 354.947px 175.332px;" id="ell7dvgrmw2m" class="animable"></path><path d="M340.58,176.37c-.16,3.84,5.9,12.72-1.58,17.86,1.39,3.13,2.57,24.32-.26,28.1-4.12,3-26.48,2.45-45,0-.78-7.66,3.43-23.53-1.73-48.27a9.87,9.87,0,0,1,8.67-11.84c1.55-.15,3.2-.29,4.89-.37a126.26,126.26,0,0,1,17.73,0c1.92.18,3.89.42,5.78.69A13.38,13.38,0,0,1,340.58,176.37Z" style="fill: #BC9EEF; transform-origin: 317.274px 192.959px;" id="elpr8oyua6j8f" class="animable"></path><g id="elv1bi0k2wv58"><path d="M340.58,176.37c-.16,3.84,5.9,12.72-1.58,17.86,1.39,3.13,2.57,24.32-.26,28.1-4.12,3-26.48,2.45-45,0-.78-7.66,3.43-23.53-1.73-48.27a9.87,9.87,0,0,1,8.67-11.84c1.55-.15,3.2-.29,4.89-.37a126.26,126.26,0,0,1,17.73,0c1.92.18,3.89.42,5.78.69A13.38,13.38,0,0,1,340.58,176.37Z" style="fill: rgb(255, 255, 255); opacity: 0.6; transform-origin: 317.274px 192.959px;" class="animable" id="eljgf5ln41c4m"></path></g><path d="M305,141.89c1.41,5.71,2.79,15,.54,20,0,0,8.42.38,19.18,9,5.07-7.44-.79-8.9-.79-8.9-4.48-1-5.18-6.49-5.18-10.74Z" style="fill: rgb(127, 62, 59); transform-origin: 315.893px 156.39px;" id="eljbedgmrufr" class="animable"></path><g id="elff7rth6v7za"><path d="M318.77,151.18,311,145.9a6.9,6.9,0,0,0,.7,3.47,14.8,14.8,0,0,0,7.57,6.78A24,24,0,0,1,318.77,151.18Z" style="opacity: 0.2; transform-origin: 315.129px 151.025px;" class="animable" id="elknyapwy92ym"></path></g><path d="M301.3,131.43c2.23,9.28,3,13.25,8.47,17.24,8.27,6,19,1.26,19.49-8.48.48-8.78-3.24-22.47-12.9-24.61S299.08,122.15,301.3,131.43Z" style="fill: rgb(127, 62, 59); transform-origin: 315.107px 133.289px;" id="el7i1g37m724i" class="animable"></path><path d="M302.08,123.25c9.58,6.56,21.58,4.2,25.46.25,3.28-3.33,0-9.08,0-9.08s-1.46,2.43-4.63.84-9.64-3.13-14.91-1.84C301.31,115.05,295.29,118.6,302.08,123.25Z" style="fill: rgb(38, 50, 56); transform-origin: 314.047px 120.147px;" id="el99j6yd01c65" class="animable"></path><path d="M316.82,135.2c.13.77.65,1.31,1.14,1.23s.8-.78.66-1.55-.65-1.31-1.15-1.22S316.68,134.44,316.82,135.2Z" style="fill: rgb(38, 50, 56); transform-origin: 317.719px 135.044px;" id="el8xt3nl2gtn" class="animable"></path><path d="M326.23,133.68c.13.76.65,1.31,1.15,1.22s.79-.78.66-1.54-.65-1.32-1.15-1.23S326.09,132.91,326.23,133.68Z" style="fill: rgb(38, 50, 56); transform-origin: 327.133px 133.515px;" id="elbrp0yo3ej8t" class="animable"></path><path d="M326.67,132.21l1.74-.85S327.73,133,326.67,132.21Z" style="fill: rgb(38, 50, 56); transform-origin: 327.54px 131.893px;" id="elf9h56offfr6" class="animable"></path><path d="M324,134.3a21.05,21.05,0,0,0,3.58,4.39,3.32,3.32,0,0,1-2.63,1Z" style="fill: rgb(99, 15, 15); transform-origin: 325.79px 137px;" id="el5ab1eb3v8p5" class="animable"></path><path d="M319.4,143.38a7.57,7.57,0,0,0,1.3-.12.23.23,0,0,0-.08-.45,6.12,6.12,0,0,1-5.35-1.49.23.23,0,0,0-.32,0,.22.22,0,0,0,0,.32A6.33,6.33,0,0,0,319.4,143.38Z" style="fill: rgb(38, 50, 56); transform-origin: 317.873px 142.318px;" id="ela09tfjsz2w" class="animable"></path><path d="M300.62,140.07a6.16,6.16,0,0,0,3.76,3.35c2.12.59,3.17-1.73,2.57-4.09-.54-2.12-2.29-5-4.41-4.51S299.65,138,300.62,140.07Z" style="fill: rgb(127, 62, 59); transform-origin: 303.661px 139.139px;" id="elh9yhjwbgbk6" class="animable"></path><path d="M306.1,121.61a8.39,8.39,0,0,0-10.64,4.45c-5.8,12.73-3.68,25.11,1.7,28.94,6.09,4.33,18.29,3,18.29,3s-9.7-14.68-6.54-24.06C311.06,127.58,310.18,123.28,306.1,121.61Z" style="fill: rgb(38, 50, 56); transform-origin: 303.724px 139.63px;" id="el7n9ts7d3tal" class="animable"></path><path d="M314.12,130.88a.43.43,0,0,0,.27-.23,3.67,3.67,0,0,1,2.59-2,.45.45,0,0,0,.39-.5.45.45,0,0,0-.5-.4,4.51,4.51,0,0,0-3.29,2.54.45.45,0,0,0,.2.61A.45.45,0,0,0,314.12,130.88Z" style="fill: rgb(38, 50, 56); transform-origin: 315.451px 129.336px;" id="el2cqz5hqkl5" class="animable"></path><path d="M328.92,129a.45.45,0,0,0,.2-.81,4.54,4.54,0,0,0-4.08-.81.46.46,0,0,0,.31.86,3.57,3.57,0,0,1,3.22.68A.48.48,0,0,0,328.92,129Z" style="fill: rgb(38, 50, 56); transform-origin: 327.045px 128.105px;" id="el07v3ix677fuc" class="animable"></path><path d="M317.26,133.74l1.74-.85S318.31,134.49,317.26,133.74Z" style="fill: rgb(38, 50, 56); transform-origin: 318.13px 133.415px;" id="eluqabg6tgxs" class="animable"></path><g id="ellp24b9wrcj"><path d="M292.9,178.86a122.33,122.33,0,0,1,1.64,15.9c4.26-5.91,9.11-16.64,8.83-21.65Z" style="fill: #BC9EEF; opacity: 0.2; transform-origin: 298.141px 183.935px;" class="animable" id="eld046ig48vzo"></path></g><path d="M289.68,234.92l3.12,5.65-10.09,3.19s-1.91-6-.25-10.71l1.38-.16A6.93,6.93,0,0,1,289.68,234.92Z" style="fill: rgb(127, 62, 59); transform-origin: 287.291px 238.297px;" id="elr3vymndyoee" class="animable"></path><path d="M290.2,247.18l-3.63.64a3.05,3.05,0,0,1-3.55-2.45l-.31-1.61,10.09-3.19-.08,3.65A3.07,3.07,0,0,1,290.2,247.18Z" style="fill: rgb(127, 62, 59); transform-origin: 287.755px 244.22px;" id="eltw9d3zth5w" class="animable"></path><path d="M305.4,176.82l-5.21,7c-1.74,2.35-3.43,4.72-5.07,7.07-.82,1.17-1.62,2.36-2.38,3.54s-1.52,2.34-2.2,3.5-1.31,2.32-1.85,3.39a20.46,20.46,0,0,0-1.16,2.73l.1-.75a6.66,6.66,0,0,0-.1,1.19c0,.53,0,1.13,0,1.75,0,1.23.09,2.54.19,3.87.2,2.66.4,5.39.67,8.14l.73,8.29c.23,2.78.48,5.59.62,8.37v0a4.06,4.06,0,0,1-7.8,1.76c-1.1-2.68-2-5.35-3-8.06s-1.75-5.43-2.54-8.19-1.51-5.55-2.12-8.43c-.3-1.45-.59-2.92-.83-4.47-.13-.78-.23-1.58-.31-2.45a21.52,21.52,0,0,1-.08-3,2,2,0,0,1,0-.35l.07-.41a31.44,31.44,0,0,1,1.63-5.9c.64-1.73,1.38-3.27,2.11-4.8a94.13,94.13,0,0,1,4.79-8.54c1.68-2.73,3.46-5.33,5.29-7.89s3.69-5,5.8-7.51a8.08,8.08,0,0,1,12.67,10Z" style="fill: rgb(127, 62, 59); transform-origin: 289.981px 201.529px;" id="el78p7wjjcstj" class="animable"></path><g id="elte88hhswsrl"><g style="opacity: 0.6; transform-origin: 365.795px 200.36px;" class="animable" id="elf1xzay6071r"><path d="M345.79,184.76s4.57,15.37,15.61,20.52,24.4-1.88,24.4-1.88-4.57-15.37-15.62-20.52S345.79,184.76,345.79,184.76Z" style="fill: #BC9EEF; transform-origin: 365.795px 194.08px;" id="el0zdswdq8wzon" class="animable"></path><path d="M352.16,215.39s10.35,6.73,19.64,3.42,14-15.41,14-15.41-10.36-6.73-19.65-3.42S352.16,215.39,352.16,215.39Z" style="fill: #BC9EEF; transform-origin: 368.98px 209.395px;" id="el6bpw9cwjezg" class="animable"></path></g></g><g id="elfojj9fywjt"><g style="opacity: 0.6; transform-origin: 419.24px 200.36px;" class="animable" id="el49arba9g58r"><path d="M439.24,184.76s-4.56,15.37-15.61,20.52-24.39-1.88-24.39-1.88,4.57-15.37,15.61-20.52S439.24,184.76,439.24,184.76Z" style="fill: #BC9EEF; transform-origin: 419.24px 194.08px;" id="elqyrv06sxh7j" class="animable"></path><path d="M432.88,215.39s-10.36,6.73-19.64,3.42-14-15.41-14-15.41,10.35-6.73,19.64-3.42S432.88,215.39,432.88,215.39Z" style="fill: #BC9EEF; transform-origin: 416.06px 209.395px;" id="elayjxuqk2p3h" class="animable"></path></g></g><path d="M414.71,194.82H370.3a4.64,4.64,0,0,1-2.72-8.39l18.55-13.5a10.79,10.79,0,0,1,12.75,0l18.56,13.5a4.64,4.64,0,0,1-2.73,8.39Zm-22.2-23a9.88,9.88,0,0,0-5.79,1.88l-18.56,13.51a3.64,3.64,0,0,0,2.14,6.58h44.41a3.64,3.64,0,0,0,2.14-6.58l-18.56-13.51A9.87,9.87,0,0,0,392.51,171.85Z" style="fill: rgb(38, 50, 56); transform-origin: 392.51px 182.833px;" id="eldb56pof9jw8" class="animable"></path><path d="M392.51,171.85a.5.5,0,0,1-.5-.5V169a2.06,2.06,0,0,0-1.38-1.9,5.21,5.21,0,1,1,7.08-4.86.5.5,0,0,1-1,0,4.2,4.2,0,0,0-5.11-4.11,4.21,4.21,0,0,0-.61,8,3.06,3.06,0,0,1,2,2.84v2.4A.5.5,0,0,1,392.51,171.85Z" style="fill: rgb(38, 50, 56); transform-origin: 392.5px 164.439px;" id="elglukklrq3x7" class="animable"></path><path d="M442.61,325.64c-.33-1.95-.71-4-1.12-6.15l1-.19c.4,2.15.78,4.22,1.12,6.17Z" style="fill: #BC9EEF; transform-origin: 442.55px 322.47px;" id="el9awcm3v7b1k" class="animable"></path><path d="M440.06,312.25c-1.06-5.17-2.3-10.85-3.67-16.89l1-.22c1.38,6,2.62,11.73,3.68,16.91Z" style="fill: #BC9EEF; transform-origin: 438.73px 303.695px;" id="el71qtb6vvy37" class="animable"></path><path d="M368,233.33c5.79-14-1.28-24.67-1.56-33.11s11.12-14.44,11.5-26c6.22-3.56,7.16.94,7.16.94v7.5a7.54,7.54,0,0,0,7.35,7.62h.17a7.55,7.55,0,0,0,7.36-7.62v-7.5s.94-4.5,7.16-.94c.37,11.56,11.77,17.56,11.49,26s-7.35,19.11-1.55,33.11,26,95.69,24.88,109.11c-6.73,5.74-17.68,9.57-26.72,11.95l.23,4.21q-22.93,10.35-45.87,0l.23-4.22c-9-2.37-20-6.2-26.71-11.94C341.93,329,362.18,247.33,368,233.33Z" style="fill: #BC9EEF; transform-origin: 392.537px 268.312px;" id="el4oax2rt73qi" class="animable"></path><g id="elj169urnlxr"><polygon points="371.81 347.38 383.99 254.16 368.26 333.83 371.81 347.38" style="opacity: 0.2; transform-origin: 376.125px 300.77px;" class="animable" id="el8uhjsujpi3w"></polygon></g><g id="el2wxbpni6lme"><polygon points="413.22 347.38 401.05 254.16 416.78 333.83 413.22 347.38" style="opacity: 0.2; transform-origin: 408.915px 300.77px;" class="animable" id="ela98dzzuoeig"></polygon></g></g><defs>     <filter id="active" height="200%">         <feMorphology in="SourceAlpha" result="DILATED" operator="dilate" radius="2"></feMorphology>                <feFlood flood-color="#32DFEC" flood-opacity="1" result="PINK"></feFlood>        <feComposite in="PINK" in2="DILATED" operator="in" result="OUTLINE"></feComposite>        <feMerge>            <feMergeNode in="OUTLINE"></feMergeNode>            <feMergeNode in="SourceGraphic"></feMergeNode>        </feMerge>    </filter>    <filter id="hover" height="200%">        <feMorphology in="SourceAlpha" result="DILATED" operator="dilate" radius="2"></feMorphology>                <feFlood flood-color="#ff0000" flood-opacity="0.5" result="PINK"></feFlood>        <feComposite in="PINK" in2="DILATED" operator="in" result="OUTLINE"></feComposite>        <feMerge>            <feMergeNode in="OUTLINE"></feMergeNode>            <feMergeNode in="SourceGraphic"></feMergeNode>        </feMerge>            <feColorMatrix type="matrix" values="0   0   0   0   0                0   1   0   0   0                0   0   0   0   0                0   0   0   1   0 "></feColorMatrix>    </filter></defs></svg>