<?xml version="1.0" standalone="no"?>
<!DOCTYPE svg PUBLIC "-//W3C//DTD SVG 20010904//EN"
 "http://www.w3.org/TR/2001/REC-SVG-20010904/DTD/svg10.dtd">
<svg version="1.0" xmlns="http://www.w3.org/2000/svg"
 width="1366.000000pt" height="768.000000pt" viewBox="0 0 1366.000000 768.000000"
 preserveAspectRatio="xMidYMid meet">

<g transform="translate(0.000000,768.000000) scale(0.100000,-0.100000)"
fill="#000000" stroke="none">
<path d="M8648 7484 c-4 -3 -18 -8 -30 -9 -78 -10 -121 -28 -161 -65 -22 -22
-44 -40 -49 -40 -14 0 -79 -148 -95 -217 -19 -82 -18 -138 2 -169 8 -13 15
-30 15 -37 0 -20 26 -41 35 -27 3 5 14 9 23 9 16 -1 16 -2 0 -6 -23 -6 -32
-35 -13 -45 8 -5 13 -14 9 -19 -7 -12 21 -136 42 -186 39 -93 63 -132 128
-207 76 -88 84 -94 136 -95 41 -1 83 -36 52 -44 -14 -4 -13 -5 3 -6 11 -1 29
-8 39 -16 11 -8 30 -15 42 -15 27 0 42 -19 24 -30 -7 -4 23 -10 66 -14 112 -8
133 -7 181 9 24 8 61 15 83 15 21 0 42 5 45 10 3 6 14 10 24 10 10 0 24 6 30
14 21 25 82 27 148 5 58 -19 63 -23 69 -56 5 -24 9 -31 15 -21 6 9 9 5 9 -14
0 -16 5 -28 10 -28 6 0 10 12 10 28 l1 27 24 -28 c14 -15 26 -38 26 -50 4 -77
-2 -131 -16 -153 -25 -39 -37 -29 -31 26 3 27 2 51 -3 54 -13 8 -21 -30 -21
-99 -1 -37 -8 -73 -19 -93 l-18 -34 -18 48 c-10 26 -24 59 -31 73 -21 40 -27
4 -9 -54 23 -75 19 -83 -20 -45 -35 34 -35 34 -35 9 0 -13 -20 -58 -44 -99
l-44 -75 76 -7 c43 -4 106 -6 142 -4 36 3 86 5 111 5 l46 1 2 233 2 232 -26
34 c-20 28 -159 142 -186 153 -12 5 7 120 22 129 12 8 12 10 0 18 -20 13 2 66
24 57 8 -3 15 -1 15 5 0 5 -7 12 -17 16 -18 7 -53 -29 -53 -55 0 -8 -8 -21
-17 -28 -11 -8 -13 -13 -5 -14 12 0 17 -65 6 -93 -6 -18 -35 -7 -199 72 -55
27 -117 56 -137 65 -24 10 -38 22 -38 34 0 10 -13 28 -30 40 -29 22 -30 26
-30 95 0 70 2 74 30 95 38 28 54 88 45 162 -3 30 -8 84 -10 120 -3 68 -46 194
-78 228 -9 9 -30 33 -47 53 -32 39 -118 86 -185 101 -78 18 -90 19 -97 12z
m-128 -381 c7 -32 21 -70 31 -84 27 -38 9 -48 -91 -54 -74 -4 -81 -3 -75 13 4
9 8 26 9 38 2 11 7 27 11 35 5 7 8 28 7 46 -2 26 3 35 25 47 55 30 70 22 83
-41z m145 -133 c-27 -12 -43 -12 -25 0 8 5 22 9 30 9 10 0 8 -3 -5 -9z m-115
-70 c0 -5 -5 -10 -11 -10 -5 0 -7 5 -4 10 3 6 8 10 11 10 2 0 4 -4 4 -10z m31
-120 c3 -54 3 -55 -29 -65 -20 -6 -32 -16 -32 -26 0 -22 12 -29 57 -35 69 -9
62 -41 -13 -67 -37 -12 -44 -12 -61 2 -41 33 -65 151 -35 170 5 3 17 21 26 39
10 19 20 31 23 28 10 -9 -7 -74 -22 -86 -19 -16 -19 -30 -1 -30 11 0 37 58 63
140 8 27 21 -10 24 -70z m-127 -1 c-7 -12 -41 -11 -49 1 -12 19 5 30 30 18 13
-6 22 -15 19 -19z m210 -244 c-1 -6 -19 -13 -40 -17 -54 -10 -67 -9 -84 2 -13
9 -13 11 0 19 19 13 125 9 124 -4z m929 -612 c-3 -32 -9 -65 -15 -73 -6 -10
-8 -2 -5 28 3 24 1 42 -5 42 -17 0 9 57 28 60 1 0 -1 -26 -3 -57z m-63 -65
c-1 -43 -3 -49 -11 -35 -10 17 -4 87 6 87 3 0 5 -24 5 -52z m0 -72 c0 -3 -4
-8 -10 -11 -5 -3 -10 -1 -10 4 0 6 5 11 10 11 6 0 10 -2 10 -4z"/>
<path d="M12589 7419 l-47 -51 -48 16 c-72 24 -178 21 -239 -8 -76 -36 -129
-95 -72 -81 34 9 94 -21 112 -56 15 -28 15 -32 0 -49 -16 -17 -15 -19 7 -22
16 -2 23 -9 22 -25 0 -12 9 -26 20 -33 30 -15 44 -51 41 -105 -2 -38 2 -49 23
-65 28 -23 61 -26 63 -7 1 6 4 -3 8 -21 11 -58 29 -35 32 41 0 23 36 22 49 -2
14 -28 12 -73 -5 -114 -15 -38 -96 -107 -124 -107 -9 0 -26 -21 -41 -52 -20
-43 -36 -59 -85 -89 l-60 -36 -3 -67 c-2 -45 1 -66 8 -61 5 3 10 21 10 40 0
43 27 69 92 91 54 17 75 41 84 94 10 63 11 63 51 34 55 -40 80 -71 94 -112 14
-43 52 -119 73 -147 14 -18 14 -17 3 15 -7 19 -15 40 -19 45 -3 6 -4 31 -1 58
6 46 6 47 42 47 50 0 101 37 135 100 55 101 73 277 37 357 -11 23 -17 44 -13
47 3 4 27 3 52 0 57 -8 65 1 66 71 0 28 4 61 8 75 5 17 5 21 -2 11 -12 -17
-22 38 -11 67 13 34 -42 89 -109 108 -31 9 -76 22 -100 30 -77 25 -100 20
-153 -37z m358 -294 c-5 -15 -43 -18 -68 -4 -22 11 -22 12 12 30 31 16 35 17
47 1 7 -9 11 -21 9 -27z"/>
<path d="M12970 7286 c0 -9 5 -16 10 -16 6 0 10 4 10 9 0 6 -4 13 -10 16 -5 3
-10 -1 -10 -9z"/>
<path d="M9540 7148 c0 -25 3 -29 10 -18 13 20 13 50 0 50 -5 0 -10 -15 -10
-32z"/>
<path d="M9577 7167 c-11 -29 -9 -53 4 -40 6 6 9 21 7 34 -3 21 -4 22 -11 6z"/>
<path d="M10185 7168 c-2 -7 -8 -50 -12 -95 -9 -83 -2 -112 12 -50 16 74 17
195 0 145z"/>
<path d="M9636 7133 c-3 -21 -8 -62 -12 -90 l-6 -53 54 2 c50 1 50 2 11 5 -41
4 -43 6 -42 36 0 18 4 56 8 85 4 28 4 52 0 52 -4 0 -10 -17 -13 -37z"/>
<path d="M10395 7130 c4 -6 11 -8 16 -5 14 9 11 15 -7 15 -8 0 -12 -5 -9 -10z"/>
<path d="M10115 7107 c-12 -27 -8 -117 6 -117 5 0 9 20 9 45 0 36 4 45 18 46
10 0 12 3 5 6 -7 2 -13 13 -13 24 0 26 -13 24 -25 -4z"/>
<path d="M9752 7084 c-23 -16 -29 -57 -13 -82 14 -24 64 -10 79 21 12 24 11
31 -2 53 -19 28 -33 30 -64 8z m53 -24 c8 -26 -12 -62 -33 -58 -18 3 -28 39
-18 64 8 21 44 17 51 -6z"/>
<path d="M9850 7095 c-3 -15 0 -67 6 -87 8 -27 32 -22 47 10 23 43 30 72 18
72 -6 0 -11 -7 -11 -15 0 -18 -21 -65 -30 -65 -4 0 -11 21 -17 48 -6 26 -11
43 -13 37z"/>
<path d="M9972 7088 c-26 -13 -39 -54 -25 -77 12 -19 51 -27 66 -12 7 7 2 10
-18 8 -39 -3 -42 18 -5 32 24 8 31 16 28 32 -4 27 -16 31 -46 17z m36 -20 c-3
-7 -15 -15 -28 -16 -21 -3 -22 -2 -11 12 16 19 44 21 39 4z"/>
<path d="M10205 7090 c-3 -6 4 -10 16 -10 20 0 21 -3 16 -45 -8 -56 8 -60 17
-4 4 26 2 46 -5 55 -13 16 -35 18 -44 4z"/>
<path d="M10312 7088 c-26 -13 -39 -54 -25 -77 12 -19 51 -27 66 -12 7 7 2 10
-18 8 -39 -3 -42 18 -5 32 24 8 31 16 28 32 -4 27 -16 31 -46 17z m36 -20 c-3
-7 -15 -15 -28 -16 -21 -3 -22 -2 -11 12 16 19 44 21 39 4z"/>
<path d="M10446 7090 c-10 -34 -16 -100 -7 -100 4 0 11 18 15 41 5 29 12 43
26 46 11 3 20 9 20 14 0 13 -17 11 -26 -2 -4 -8 -9 -7 -15 2 -6 11 -9 11 -13
-1z"/>
<path d="M10384 7045 c-3 -25 -4 -49 0 -52 10 -10 13 -1 18 50 7 60 -9 62 -18
2z"/>
<path d="M12064 7065 c-10 -8 -14 -15 -8 -15 6 0 17 7 24 15 16 19 9 19 -16 0z"/>
<path d="M12082 6994 c3 -17 21 -21 26 -6 1 5 -4 12 -13 16 -11 4 -15 1 -13
-10z"/>
<path d="M9457 6883 c-5 -8 -22 -175 -19 -180 10 -16 19 11 28 84 10 78 6 121
-9 96z"/>
<path d="M9507 6868 c-12 -52 -19 -183 -9 -173 8 8 32 148 32 187 0 18 -18 7
-23 -14z"/>
<path d="M10447 6883 c-4 -3 -7 -21 -7 -39 0 -27 -5 -35 -24 -40 -36 -9 -58
-38 -54 -71 3 -25 7 -28 44 -29 37 -2 42 1 41 20 -1 11 2 54 7 94 7 70 6 79
-7 65z m-17 -116 c0 -30 -24 -62 -38 -53 -16 9 -15 49 0 64 19 19 38 14 38
-11z"/>
<path d="M10617 6848 c-16 -90 -19 -148 -8 -148 6 0 11 12 11 26 0 33 17 64
35 64 11 0 15 -13 15 -47 0 -35 3 -44 10 -33 5 8 10 31 10 51 0 39 -16 54 -47
42 -14 -5 -15 -1 -10 35 6 49 -8 57 -16 10z"/>
<path d="M8313 6854 c-3 -8 -1 -20 6 -27 8 -8 11 -4 11 16 0 30 -7 35 -17 11z"/>
<path d="M12457 6836 c-15 -22 -15 -23 9 -18 13 2 24 10 24 18 0 24 -18 24
-33 0z"/>
<path d="M9810 6840 c0 -5 5 -10 10 -10 6 0 10 5 10 10 0 6 -4 10 -10 10 -5 0
-10 -4 -10 -10z"/>
<path d="M9750 6821 c0 -11 -6 -22 -12 -24 -8 -4 -9 -6 -2 -6 8 -1 10 -17 6
-46 -3 -30 -1 -45 7 -45 6 0 11 18 11 45 0 36 4 45 18 46 10 0 12 3 5 6 -7 2
-13 13 -13 24 0 10 -4 19 -10 19 -5 0 -10 -9 -10 -19z"/>
<path d="M10550 6821 c0 -11 -6 -22 -12 -24 -8 -4 -9 -6 -2 -6 8 -1 10 -17 6
-46 -3 -30 -1 -45 7 -45 6 0 11 18 11 45 0 36 4 45 18 46 10 0 12 3 5 6 -7 2
-13 13 -13 24 0 10 -4 19 -10 19 -5 0 -10 -9 -10 -19z"/>
<path d="M9241 6784 c-11 -15 -21 -30 -21 -35 0 -33 37 -63 64 -53 24 9 19 24
-6 21 -20 -2 -23 3 -23 33 0 32 3 35 28 35 31 -1 31 18 0 23 -13 2 -29 -7 -42
-24z"/>
<path d="M9340 6790 c-24 -24 -26 -63 -4 -84 20 -21 26 -20 58 5 29 23 34 60
10 83 -21 21 -40 20 -64 -4z m54 -16 c9 -23 8 -31 -9 -48 -20 -20 -45 -10 -45
18 0 39 41 63 54 30z"/>
<path d="M9551 6784 c-11 -15 -21 -30 -21 -35 0 -33 37 -63 64 -53 23 9 19 24
-5 21 -34 -3 -33 17 2 30 24 9 30 17 27 35 -5 34 -41 35 -67 2z m47 -6 c-3 -7
-13 -15 -24 -17 -16 -3 -17 -1 -5 13 16 19 34 21 29 4z"/>
<path d="M9662 6798 c-26 -13 -39 -54 -25 -77 13 -20 52 -26 67 -11 8 9 4 10
-16 5 -21 -5 -27 -3 -33 14 -9 31 11 61 43 61 21 0 24 2 12 10 -18 12 -19 12
-48 -2z"/>
<path d="M9808 6790 c-4 -14 -8 -41 -8 -60 1 -29 2 -32 11 -17 6 9 9 36 7 60
-3 36 -4 38 -10 17z"/>
<path d="M9872 6794 c-18 -12 -22 -24 -20 -52 3 -33 7 -37 33 -40 19 -3 33 2
42 14 20 27 16 72 -6 84 -25 13 -22 13 -49 -6z m50 -21 c10 -46 -23 -77 -51
-49 -12 12 -12 20 -3 41 13 29 49 34 54 8z"/>
<path d="M9976 6800 c-10 -33 -16 -100 -8 -100 4 0 12 19 18 43 7 33 14 43 32
45 22 3 23 2 17 -42 -5 -29 -3 -46 3 -46 16 0 20 81 4 96 -16 17 -29 18 -38 3
-4 -8 -9 -7 -15 2 -6 11 -9 11 -13 -1z"/>
<path d="M10163 6803 c-23 -9 -13 -20 13 -15 20 4 25 1 22 -9 -3 -8 -14 -15
-26 -17 -55 -8 -54 -64 2 -60 31 3 35 6 40 42 9 52 -11 76 -51 59z m27 -73
c-12 -22 -25 -26 -35 -10 -9 15 4 30 26 30 17 0 18 -3 9 -20z"/>
<path d="M10256 6800 c-8 -23 -12 -100 -6 -100 12 0 28 85 20 100 -8 13 -9 13
-14 0z"/>
<path d="M10285 6800 c-3 -6 4 -10 16 -10 20 0 21 -3 16 -45 -8 -56 8 -60 17
-4 4 26 2 46 -5 55 -13 16 -35 18 -44 4z"/>
<path d="M10742 6794 c-18 -12 -22 -24 -20 -52 3 -34 6 -37 36 -40 17 -2 32 1
32 7 0 6 -7 8 -15 5 -8 -4 -22 0 -31 7 -13 11 -11 14 16 25 35 15 49 42 29 55
-19 12 -21 11 -47 -7z m38 -14 c0 -12 -28 -25 -36 -17 -9 9 6 27 22 27 8 0 14
-5 14 -10z"/>
<path d="M10540 6568 c0 -25 3 -29 10 -18 13 20 13 50 0 50 -5 0 -10 -15 -10
-32z"/>
<path d="M10578 6594 c-5 -4 -8 -19 -8 -33 0 -18 3 -22 11 -14 6 6 9 21 7 33
-1 12 -6 18 -10 14z"/>
<path d="M10177 6583 c-4 -3 -7 -17 -7 -29 0 -12 -7 -30 -16 -38 -9 -10 -11
-16 -4 -16 8 0 9 -17 4 -57 -9 -77 -19 -96 -47 -87 -17 5 -19 3 -11 -6 32 -33
74 15 74 87 0 23 7 48 15 56 10 11 11 17 3 19 -18 6 0 58 25 68 21 8 21 9 -4
9 -14 1 -29 -2 -32 -6z"/>
<path d="M10486 6534 c-9 -66 -8 -93 3 -74 13 23 23 120 13 120 -5 0 -12 -21
-16 -46z"/>
<path d="M9500 6550 c0 -5 7 -10 15 -10 8 0 15 5 15 10 0 6 -7 10 -15 10 -8 0
-15 -4 -15 -10z"/>
<path d="M9680 6550 c0 -5 5 -10 10 -10 6 0 10 5 10 10 0 6 -4 10 -10 10 -5 0
-10 -4 -10 -10z"/>
<path d="M9555 6527 c-12 -27 -8 -117 6 -117 5 0 9 15 9 34 0 20 8 42 17 52
13 13 14 19 5 22 -6 2 -12 10 -12 18 0 21 -14 17 -25 -9z"/>
<path d="M10425 6535 c-5 -11 -13 -23 -19 -27 -7 -5 -6 -8 2 -8 10 0 12 -10 7
-39 -4 -24 -2 -42 4 -46 7 -4 11 6 11 29 0 19 7 42 16 50 8 9 11 16 5 16 -5 0
-11 10 -14 23 -3 21 -4 21 -12 2z"/>
<path d="M9496 6498 c-9 -36 -7 -103 3 -92 13 14 25 114 13 114 -5 0 -12 -10
-16 -22z"/>
<path d="M9677 6510 c-9 -24 -13 -100 -5 -100 9 0 22 84 15 102 -4 10 -6 10
-10 -2z"/>
<path d="M9732 6508 c-17 -17 -15 -32 8 -53 23 -21 16 -39 -11 -32 -11 3 -19
1 -19 -4 0 -15 50 -10 57 6 3 9 -2 24 -11 34 -20 22 -21 41 0 41 8 0 12 5 9
10 -8 13 -18 13 -33 -2z"/>
<path d="M9866 6511 c-2 -3 -7 -35 -11 -71 -3 -36 -9 -73 -11 -82 -3 -10 -1
-18 4 -18 5 0 13 16 16 35 5 25 12 35 25 35 36 0 72 73 47 97 -8 8 -66 11 -70
4z m62 -33 c3 -17 -30 -58 -48 -58 -13 0 -13 21 0 55 11 29 43 31 48 3z"/>
<path d="M9992 6504 c-18 -12 -22 -24 -20 -52 3 -34 6 -37 36 -40 17 -2 32 1
32 7 0 6 -7 8 -15 5 -8 -4 -22 0 -31 7 -13 11 -11 14 16 25 35 15 49 42 29 55
-19 12 -21 11 -47 -7z m38 -14 c0 -12 -28 -25 -36 -17 -9 9 6 27 22 27 8 0 14
-5 14 -10z"/>
<path d="M10077 6510 c-9 -24 -13 -100 -6 -100 4 0 10 16 13 35 4 19 16 41 28
49 12 9 19 19 15 22 -4 4 -13 2 -21 -5 -11 -9 -15 -9 -19 1 -4 10 -6 9 -10 -2z"/>
<path d="M10230 6500 c-15 -15 -20 -31 -18 -53 3 -27 8 -33 32 -35 16 -2 33 1
39 7 7 7 2 10 -18 8 -39 -3 -42 18 -5 33 23 9 30 18 28 34 -4 29 -32 32 -58 6z
m38 -12 c-3 -7 -13 -15 -24 -17 -16 -3 -17 -1 -5 13 16 19 34 21 29 4z"/>
<path d="M10332 6504 c-18 -12 -22 -24 -20 -52 3 -34 6 -37 36 -40 17 -2 32 1
32 6 0 6 -9 8 -19 5 -25 -6 -42 24 -30 55 6 15 17 22 36 22 22 0 25 2 13 10
-20 13 -22 13 -48 -6z"/>
<path d="M10470 6420 c0 -5 5 -10 10 -10 6 0 10 5 10 10 0 6 -4 10 -10 10 -5
0 -10 -4 -10 -10z"/>
<path d="M12200 6370 c0 -5 5 -10 10 -10 6 0 10 5 10 10 0 6 -4 10 -10 10 -5
0 -10 -4 -10 -10z"/>
<path d="M13221 5954 c0 -11 3 -14 6 -6 3 7 2 16 -1 19 -3 4 -6 -2 -5 -13z"/>
<path d="M8100 5811 c0 -10 -4 -21 -9 -23 -5 -1 4 -18 19 -37 35 -41 50 -38
38 7 -5 18 -13 30 -18 27 -6 -4 -10 3 -10 14 0 11 -4 23 -10 26 -5 3 -10 -3
-10 -14z"/>
<path d="M11630 5778 c0 -25 3 -29 10 -18 13 20 13 50 0 50 -5 0 -10 -15 -10
-32z"/>
<path d="M11668 5804 c-5 -4 -8 -19 -8 -33 0 -18 3 -22 11 -14 6 6 9 21 7 33
-1 12 -6 18 -10 14z"/>
<path d="M11731 5774 c-23 -29 -29 -101 -11 -135 13 -23 71 -26 90 -5 10 13 7
13 -20 3 -29 -11 -34 -10 -52 13 -15 18 -18 32 -13 58 12 66 45 93 86 72 17
-10 20 -9 17 2 -3 7 -21 14 -40 16 -29 2 -40 -2 -57 -24z"/>
<path d="M11867 5758 c-4 -24 -9 -64 -13 -90 -4 -33 -3 -48 5 -48 6 0 11 13
11 28 0 34 22 66 41 60 9 -3 13 -18 11 -49 -2 -32 0 -40 7 -29 6 8 11 31 11
51 0 39 -16 54 -46 42 -14 -5 -16 0 -12 35 5 55 -8 54 -15 0z"/>
<path d="M12658 5768 c-2 -21 -10 -36 -24 -43 -43 -21 -55 -38 -52 -69 3 -28
6 -31 40 -31 l36 -1 7 66 c4 36 9 75 12 88 3 12 0 22 -5 22 -6 0 -12 -15 -14
-32z m-8 -72 c0 -28 -20 -66 -34 -66 -22 0 -28 30 -11 56 17 26 45 32 45 10z"/>
<path d="M12966 5755 c-23 -22 -26 -29 -15 -36 38 -24 67 -2 51 40 l-8 22 -28
-26z"/>
<path d="M12240 5741 c0 -11 -6 -22 -12 -24 -10 -4 -10 -6 -1 -6 9 -1 11 -14
6 -46 -4 -31 -2 -45 6 -45 6 0 11 18 11 45 0 36 4 45 18 46 10 0 12 3 5 6 -7
2 -13 13 -13 24 0 10 -4 19 -10 19 -5 0 -10 -9 -10 -19z"/>
<path d="M12042 5714 c-18 -12 -22 -24 -20 -52 3 -34 6 -37 36 -40 17 -2 32 1
32 6 0 6 -8 8 -18 5 -10 -2 -24 3 -32 12 -21 25 2 65 37 65 22 0 25 2 13 10
-20 13 -22 13 -48 -6z"/>
<path d="M12297 5701 c-4 -18 -7 -45 -7 -60 0 -20 2 -23 10 -11 5 8 10 25 10
37 0 13 9 28 20 35 26 16 26 32 1 18 -14 -7 -21 -6 -23 2 -3 7 -8 -2 -11 -21z"/>
<path d="M12385 5705 c-28 -27 -30 -37 -15 -66 11 -20 54 -26 65 -10 3 6 -7 9
-21 8 -35 -3 -43 20 -10 29 36 9 52 30 36 49 -17 21 -27 19 -55 -10z m43 -7
c-3 -7 -15 -15 -28 -16 -21 -3 -22 -2 -11 12 16 19 44 21 39 4z"/>
<path d="M12477 5720 c-11 -30 -17 -100 -9 -100 4 0 12 19 18 43 7 33 14 43
32 45 22 3 23 2 17 -42 -5 -31 -4 -46 4 -46 7 0 11 20 11 49 0 51 -19 73 -45
51 -9 -8 -14 -7 -18 2 -3 10 -6 9 -10 -2z"/>
<path d="M11975 5674 c-6 -41 -2 -65 9 -53 7 9 13 99 6 99 -4 0 -11 -21 -15
-46z"/>
<path d="M12694 5698 c3 -13 6 -36 6 -52 0 -23 4 -27 20 -23 18 5 18 3 6 -27
-9 -22 -19 -31 -34 -30 -12 0 -22 -3 -22 -8 0 -13 46 -9 58 5 15 18 52 157 42
157 -4 0 -11 -12 -15 -27 -4 -16 -11 -34 -17 -41 -15 -17 -28 2 -28 41 0 15
-5 27 -11 27 -7 0 -9 -9 -5 -22z"/>
<path d="M12116 5617 c-8 -31 -7 -39 3 -33 12 8 21 45 11 51 -4 3 -10 -5 -14
-18z"/>
<path d="M11799 5518 c-6 -12 -23 -188 -19 -188 3 0 11 20 18 45 9 36 16 45
33 45 20 0 21 -4 16 -45 -4 -25 -3 -45 2 -45 5 0 11 19 14 43 7 49 -12 74 -44
57 -17 -9 -18 -6 -12 40 3 27 3 50 -1 50 -3 0 -7 -1 -7 -2z"/>
<path d="M11555 5443 c-3 -38 -9 -78 -12 -90 -3 -13 -1 -23 5 -23 5 0 13 28
17 63 3 34 8 74 11 90 3 15 1 27 -4 27 -5 0 -13 -30 -17 -67z"/>
<path d="M12415 5443 c-3 -38 -9 -78 -12 -90 -3 -13 -1 -23 4 -23 5 0 13 19
19 43 7 33 14 43 32 45 22 3 23 2 17 -42 -5 -31 -4 -46 4 -46 7 0 11 20 11 49
0 53 -19 72 -48 49 -14 -12 -15 -7 -9 35 4 26 3 47 -2 47 -5 0 -12 -30 -16
-67z"/>
<path d="M12300 5470 c0 -5 5 -10 10 -10 6 0 10 5 10 10 0 6 -4 10 -10 10 -5
0 -10 -4 -10 -10z"/>
<path d="M11725 5447 c-11 -24 -8 -117 3 -117 4 0 7 18 8 41 0 24 6 44 15 50
8 5 9 9 2 9 -6 0 -13 9 -15 20 -3 19 -4 19 -13 -3z"/>
<path d="M12361 5463 c0 -6 -8 -19 -17 -27 -10 -10 -11 -16 -3 -16 8 0 10 -12
5 -39 -3 -23 -2 -42 4 -46 6 -4 10 10 10 34 0 28 5 43 18 50 9 6 12 11 5 11
-6 0 -14 10 -16 23 -2 12 -5 17 -6 10z"/>
<path d="M12600 5450 c0 -11 -3 -20 -7 -20 -5 0 -6 -22 -5 -50 5 -62 22 -66
22 -5 0 36 3 45 18 45 16 1 16 1 0 11 -10 5 -15 16 -12 24 4 8 1 15 -5 15 -6
0 -11 -9 -11 -20z"/>
<path d="M11465 5415 c-28 -27 -30 -37 -15 -66 11 -19 54 -27 64 -10 3 4 -5 6
-18 4 -18 -4 -26 0 -31 16 -9 31 11 61 43 61 21 0 24 2 12 10 -22 14 -28 13
-55 -15z"/>
<path d="M11623 5430 c-26 -11 -41 -56 -26 -79 16 -26 59 -26 77 1 21 29 20
51 -2 71 -21 19 -19 19 -49 7z m45 -38 c4 -26 -13 -52 -35 -52 -18 0 -27 24
-19 56 9 33 49 30 54 -4z"/>
<path d="M11923 5429 c-25 -9 -38 -47 -28 -78 4 -15 15 -21 36 -21 16 0 29 4
29 8 0 5 -10 8 -21 8 -33 -1 -32 17 1 36 48 27 34 66 -17 47z m27 -24 c-7 -8
-19 -15 -26 -15 -8 0 -11 6 -8 15 4 8 15 15 26 15 17 0 18 -3 8 -15z"/>
<path d="M12002 5428 c-16 -16 -15 -21 8 -48 22 -26 17 -44 -11 -37 -11 3 -19
1 -19 -4 0 -15 57 -10 63 5 3 8 -3 26 -14 39 -24 32 -24 37 4 37 18 0 19 2 7
10 -19 13 -24 12 -38 -2z"/>
<path d="M12246 5406 c-4 -19 -13 -39 -21 -46 -12 -10 -16 -5 -21 29 -4 23
-11 41 -16 41 -6 0 -7 -7 -4 -16 4 -9 -1 -28 -10 -42 -13 -19 -18 -22 -25 -11
-5 8 -9 26 -9 42 0 15 -5 27 -11 27 -7 0 -9 -9 -5 -22 3 -13 6 -35 6 -50 0
-31 20 -37 40 -13 11 13 14 13 26 -2 13 -17 16 -16 39 10 15 17 25 40 25 58 0
39 -6 37 -14 -5z"/>
<path d="M12297 5420 c-11 -47 -14 -90 -6 -90 10 0 23 84 16 102 -2 7 -7 2
-10 -12z"/>
<path d="M12673 5430 c-26 -11 -41 -56 -26 -79 16 -26 59 -26 77 1 21 29 20
51 -2 71 -21 19 -19 19 -49 7z m45 -38 c4 -26 -13 -52 -35 -52 -18 0 -27 24
-19 56 9 33 49 30 54 -4z"/>
<path d="M12794 5433 c-18 -3 -23 -14 -28 -51 -4 -26 -9 -64 -12 -84 -4 -24
-2 -38 5 -38 6 0 11 13 11 30 0 24 6 32 35 44 37 16 56 57 38 84 -11 18 -20
21 -49 15z m36 -43 c0 -26 -21 -50 -44 -50 -10 0 -7 40 4 61 17 30 40 24 40
-11z"/>
<path d="M12888 5383 c12 -2 30 -2 40 0 9 3 -1 5 -23 4 -22 0 -30 -2 -17 -4z"/>
<path d="M11969 5228 c-6 -12 -23 -188 -19 -188 3 0 11 20 18 45 9 36 16 45
33 45 20 0 21 -4 16 -45 -4 -25 -3 -45 2 -45 5 0 11 19 14 43 7 49 -12 74 -44
57 -17 -9 -18 -6 -12 40 3 27 3 50 -1 50 -3 0 -7 -1 -7 -2z"/>
<path d="M12469 5228 c-7 -14 -23 -188 -18 -188 8 0 14 34 25 133 3 31 4 57 0
57 -3 0 -7 -1 -7 -2z"/>
<path d="M12791 5198 c0 -28 2 -30 9 -13 12 28 12 45 0 45 -5 0 -10 -15 -9
-32z"/>
<path d="M12820 5198 c0 -25 3 -29 10 -18 13 20 13 50 0 50 -5 0 -10 -15 -10
-32z"/>
<path d="M12736 5199 c-9 -27 -13 -119 -6 -119 10 0 24 119 16 127 -3 3 -8 0
-10 -8z"/>
<path d="M12510 5180 c0 -5 5 -10 10 -10 6 0 10 5 10 10 0 6 -4 10 -10 10 -5
0 -10 -4 -10 -10z"/>
<path d="M11800 5161 c0 -11 -6 -22 -12 -24 -10 -4 -10 -6 -1 -6 9 -1 11 -14
6 -46 -4 -31 -2 -45 6 -45 6 0 11 18 11 45 0 36 4 45 18 46 10 0 12 3 5 6 -7
2 -13 13 -13 24 0 10 -4 19 -10 19 -5 0 -10 -9 -10 -19z"/>
<path d="M12565 5157 c-11 -24 -8 -117 3 -117 4 0 7 18 8 41 0 24 6 44 15 50
8 5 9 9 2 9 -6 0 -13 9 -15 20 -3 19 -4 19 -13 -3z"/>
<path d="M11584 5143 c-16 -3 -23 -14 -28 -41 -8 -51 -8 -62 4 -62 6 0 10 13
10 28 0 34 22 66 41 60 9 -3 13 -18 11 -49 -2 -32 0 -40 7 -29 17 24 13 87 -5
94 -9 3 -16 5 -17 5 -1 -1 -12 -4 -23 -6z"/>
<path d="M11685 5125 c-28 -27 -30 -37 -15 -66 22 -40 90 -10 90 39 0 21 -24
52 -41 52 -6 0 -21 -11 -34 -25z m53 -26 c3 -29 -20 -54 -43 -45 -18 7 -20 47
-3 64 19 19 43 10 46 -19z"/>
<path d="M11872 5134 c-18 -12 -22 -24 -20 -52 3 -34 6 -37 36 -40 17 -2 32 1
32 6 0 6 -8 8 -18 5 -10 -2 -24 3 -32 12 -21 25 2 65 37 65 22 0 25 2 13 10
-20 13 -22 13 -48 -6z"/>
<path d="M12165 5140 c-32 -12 -47 -36 -43 -67 2 -23 8 -28 31 -28 26 1 37
-18 18 -29 -11 -7 -2 -46 10 -46 5 0 9 9 9 19 0 11 6 22 13 24 6 3 7 6 1 6 -7
1 -8 19 -3 58 10 74 6 81 -36 63z m25 -24 c0 -28 -20 -66 -34 -66 -22 0 -28
30 -11 56 17 26 45 32 45 10z"/>
<path d="M12236 5108 c-10 -58 -4 -69 40 -65 29 2 34 6 34 27 0 14 3 35 6 48
4 12 2 22 -3 22 -5 0 -13 -19 -19 -42 -6 -28 -15 -44 -26 -46 -14 -3 -17 6
-20 50 l-3 53 -9 -47z"/>
<path d="M12363 5143 c-23 -9 -13 -20 13 -15 20 4 25 1 22 -9 -3 -8 -14 -15
-26 -17 -24 -4 -47 -36 -37 -52 3 -6 21 -9 40 -7 30 2 34 5 39 41 9 52 -11 76
-51 59z m27 -73 c-12 -22 -25 -26 -35 -10 -9 15 4 30 26 30 17 0 18 -3 9 -20z"/>
<path d="M12508 5121 c-5 -18 -8 -45 -8 -60 1 -23 2 -24 11 -8 6 9 9 36 7 60
l-3 42 -7 -34z"/>
<path d="M12684 5134 c-3 -10 -10 -30 -16 -44 -5 -14 -12 -38 -14 -54 -5 -38
-23 -58 -45 -51 -11 4 -19 2 -19 -4 0 -21 49 -11 63 12 18 28 51 147 43 154
-3 3 -8 -3 -12 -13z"/>
<path d="M12617 5113 c9 -56 14 -73 22 -73 4 0 4 23 -2 50 -10 52 -27 71 -20
23z"/>
<path d="M12720 5050 c0 -5 5 -10 11 -10 5 0 7 5 4 10 -3 6 -8 10 -11 10 -2 0
-4 -4 -4 -10z"/>
<path d="M9846 4973 c-12 -13 -5 -21 43 -52 181 -117 302 -380 272 -593 -18
-129 -99 -244 -211 -297 -52 -25 -63 -26 -210 -26 -85 0 -163 3 -172 7 -15 6
-15 11 -3 51 87 289 -72 530 -430 653 -67 23 -98 27 -185 28 -93 0 -111 -3
-155 -24 -27 -14 -63 -42 -79 -63 -27 -34 -31 -46 -30 -100 0 -85 36 -152 133
-248 141 -141 310 -227 571 -289 52 -12 99 -26 104 -30 21 -20 -112 -169 -186
-209 l-43 -23 -15 23 c-32 50 -110 137 -147 166 -89 69 -225 128 -319 139 -74
9 -139 -22 -165 -80 -23 -52 -23 -80 0 -132 37 -82 180 -172 309 -194 64 -10
169 -1 294 26 25 6 28 3 42 -47 24 -86 28 -139 16 -214 -18 -119 -97 -256
-179 -314 l-28 -20 1 52 c1 65 -17 76 -25 15 -4 -25 -12 -55 -18 -66 -20 -38
-14 -60 19 -66 17 -3 43 -8 59 -11 15 -4 38 -15 49 -25 25 -24 42 -26 42 -6 0
20 -45 53 -83 62 l-32 7 46 41 c98 87 159 195 180 313 13 76 6 182 -17 250
-15 44 -15 48 1 58 93 55 115 77 235 233 13 18 22 19 75 12 86 -12 213 -12
276 0 239 45 370 295 299 568 -21 79 -73 190 -118 252 -57 77 -198 191 -216
173z m-770 -271 c151 -41 297 -122 375 -210 23 -26 56 -76 73 -112 29 -60 31
-73 31 -170 -1 -83 -5 -113 -20 -146 l-20 -42 -80 18 c-267 60 -442 143 -588
279 -179 169 -179 339 0 387 69 18 149 17 229 -4z m-211 -664 c49 -12 175 -78
228 -121 43 -33 127 -141 127 -162 0 -19 -124 -46 -216 -47 -143 0 -292 73
-354 174 -26 43 -25 77 3 119 37 56 95 66 212 37z"/>
<path d="M12316 3754 c-110 -27 -220 -108 -290 -215 -14 -21 -38 -57 -52 -79
-26 -39 -26 -41 -19 -163 7 -132 4 -149 -46 -217 -17 -23 -18 -36 -10 -145 5
-66 16 -139 24 -163 12 -35 13 -57 5 -115 -6 -40 -14 -77 -19 -82 -13 -17 29
-37 62 -30 28 6 41 -7 19 -20 -5 -3 -10 -10 -10 -15 0 -14 59 -42 78 -38 9 2
36 -4 60 -14 89 -37 92 -32 93 169 l1 139 34 -4 c18 -2 40 -13 50 -23 22 -25
41 -24 49 1 5 15 16 20 48 22 23 1 54 2 68 3 14 1 36 9 50 18 21 16 25 16 35
2 6 -8 14 -33 18 -54 5 -34 9 -38 27 -34 19 5 21 3 15 -20 -3 -14 -1 -29 4
-32 6 -4 10 -16 9 -28 -1 -12 -1 -34 -1 -50 2 -24 5 -27 27 -21 24 6 25 5 11
-21 -29 -56 27 -85 95 -49 37 19 94 131 84 164 -4 12 -2 26 3 33 27 34 33 150
9 196 -9 19 -17 42 -17 53 0 10 -4 18 -10 18 -14 0 -13 27 1 36 6 3 14 1 18
-5 11 -17 29 26 34 79 2 25 10 66 17 91 12 42 12 49 -11 95 -13 27 -36 62 -51
79 -15 16 -30 41 -33 55 -10 40 -151 282 -182 312 -34 32 -73 48 -120 48 -20
0 -46 9 -60 20 -30 23 -37 23 -117 4z m169 -125 c38 -18 50 -31 80 -91 19 -39
35 -84 35 -99 0 -28 -2 -29 -49 -29 -58 0 -111 -17 -111 -36 0 -17 -5 -18 57
6 57 21 78 19 106 -14 59 -70 76 -170 36 -220 -27 -35 -43 -87 -23 -79 18 7
18 -18 -1 -63 -18 -43 -130 -171 -167 -190 -62 -32 -119 -4 -208 105 -66 81
-77 105 -60 126 9 11 8 22 -9 48 -21 35 -29 128 -13 154 4 7 45 20 91 30 71
16 81 21 67 32 -10 8 -35 12 -71 9 -51 -3 -56 -1 -53 17 3 18 10 20 66 18 34
-2 62 1 62 6 0 12 -25 21 -58 21 -51 0 -56 11 -37 71 23 71 75 137 133 171 57
33 69 34 127 7z m379 -478 c-6 -27 -9 -30 -16 -16 -12 21 -1 72 13 58 5 -5 6
-24 3 -42z m-846 -226 c0 -22 -2 -34 -5 -26 -4 10 -7 10 -13 1 -4 -7 -10 7
-14 34 -4 25 -4 51 -1 57 12 18 31 -23 33 -66z m820 -117 c20 -20 12 -88 -10
-88 -6 0 -8 14 -5 33 2 17 0 40 -5 50 -10 19 2 23 20 5z m-885 -179 c-6 -6 -7
3 -4 23 4 28 6 29 9 9 2 -13 0 -27 -5 -32z"/>
<path d="M12480 3336 c-41 -18 -21 -32 50 -34 57 -2 70 0 70 12 0 32 -69 44
-120 22z"/>
<path d="M12407 3133 c-13 -13 -19 -14 -29 -5 -14 14 -48 16 -48 3 0 -15 62
-21 97 -9 18 7 33 16 33 20 0 14 -35 8 -53 -9z"/>
<path d="M12420 3070 c-11 -8 -7 -10 20 -9 19 1 50 -2 69 -6 27 -6 33 -5 29 6
-6 17 -96 24 -118 9z"/>
<path d="M12288 3063 c-45 -5 -47 -11 -13 -43 21 -20 39 -25 95 -28 69 -4 140
11 140 30 0 6 -9 7 -22 3 -45 -14 -155 -17 -178 -5 -30 16 -14 28 42 32 27 2
48 6 48 11 0 7 -42 7 -112 0z"/>
<path d="M12450 2960 c-9 -6 -10 -10 -3 -10 6 0 15 5 18 10 8 12 4 12 -15 0z"/>
<path d="M8150 2788 c0 -25 3 -29 10 -18 13 20 13 50 0 50 -5 0 -10 -15 -10
-32z"/>
<path d="M8188 2814 c-5 -4 -8 -19 -8 -33 0 -18 3 -22 11 -14 6 6 9 21 7 33
-1 12 -6 18 -10 14z"/>
<path d="M8786 2805 c-3 -9 -6 -27 -6 -40 0 -16 -8 -26 -29 -33 -33 -12 -54
-43 -49 -75 2 -18 10 -22 44 -23 l42 -2 7 90 c6 88 4 115 -9 83z m-16 -114 c0
-31 -22 -57 -40 -46 -15 9 -12 41 6 59 23 24 34 19 34 -13z"/>
<path d="M9057 2798 c-12 -48 -18 -173 -8 -158 10 16 27 180 18 180 -2 0 -7
-10 -10 -22z"/>
<path d="M8250 2724 c-44 -96 -44 -94 -32 -94 5 0 14 11 20 25 9 20 19 25 47
25 29 0 36 -4 41 -25 3 -14 10 -25 16 -25 5 0 7 8 4 18 -2 9 -7 33 -11 52 -13
71 -26 110 -35 110 -6 0 -28 -39 -50 -86z m58 8 c10 -42 10 -42 -19 -42 -16 0
-29 2 -29 5 0 10 33 86 36 83 1 -2 7 -23 12 -46z"/>
<path d="M8406 2794 c-3 -9 -6 -24 -6 -34 0 -11 -8 -24 -17 -29 -12 -7 -14
-10 -4 -11 11 0 12 -13 7 -62 -9 -72 -18 -88 -48 -80 -14 3 -19 1 -14 -6 4 -6
32 -10 68 -9 70 2 70 2 83 109 4 32 11 48 23 51 16 4 16 5 0 6 -33 2 -11 67
24 74 17 3 15 5 -9 6 -28 1 -33 -3 -39 -26 -3 -16 -7 -34 -10 -40 -4 -15 -54
-18 -54 -4 0 27 22 60 42 64 18 3 16 5 -8 6 -21 1 -34 -5 -38 -15z m50 -136
c-8 -71 -18 -88 -46 -81 -14 4 -19 12 -15 27 2 11 7 42 10 69 6 42 9 47 32 47
25 0 26 0 19 -62z"/>
<path d="M8936 2753 c-4 -32 -10 -73 -13 -90 -5 -31 -3 -33 24 -33 17 0 37 8
46 18 33 37 12 101 -28 86 -15 -6 -16 -2 -10 34 4 26 3 42 -3 42 -5 0 -13 -26
-16 -57z m58 -49 c8 -21 -19 -64 -39 -64 -17 0 -19 18 -5 54 11 29 35 34 44
10z"/>
<path d="M8530 2720 c-36 -36 -21 -90 26 -90 24 0 54 34 54 61 0 18 -30 49
-48 49 -7 0 -21 -9 -32 -20z m58 -31 c3 -29 -20 -54 -43 -45 -18 7 -20 47 -3
64 19 19 43 10 46 -19z"/>
<path d="M8636 2700 c-8 -51 -7 -70 4 -70 6 0 10 14 10 30 0 20 9 39 25 54
l25 23 -29 -1 c-25 -1 -30 -6 -35 -36z"/>
<path d="M8843 2733 c-23 -9 -14 -20 12 -15 36 6 31 -12 -7 -29 -48 -21 -46
-53 4 -55 35 -2 36 -1 40 40 6 56 -10 75 -49 59z m27 -62 c0 -12 -29 -35 -36
-28 -11 10 5 37 21 37 8 0 15 -4 15 -9z"/>
<path d="M9112 2724 c-18 -12 -22 -24 -20 -52 3 -34 6 -37 36 -40 17 -2 32 1
32 7 0 6 -7 8 -15 5 -8 -4 -22 0 -31 7 -13 11 -11 14 16 25 35 15 49 42 29 55
-19 12 -21 11 -47 -7z m38 -14 c0 -12 -28 -25 -36 -17 -9 9 6 27 22 27 8 0 14
-5 14 -10z"/>
<path d="M9186 2624 c-9 -36 1 -43 14 -10 12 33 12 36 1 36 -5 0 -12 -12 -15
-26z"/>
<path d="M8757 2523 c-3 -5 -8 -39 -11 -78 -4 -38 -10 -78 -12 -87 -4 -14 1
-18 23 -18 15 0 33 4 39 8 13 8 34 46 34 61 0 18 -32 42 -50 36 -16 -5 -17 0
-13 40 5 41 1 56 -10 38z m51 -116 c4 -21 -24 -57 -45 -57 -11 0 -13 8 -8 33
4 17 9 36 12 40 8 14 38 2 41 -16z"/>
<path d="M8404 2486 c-4 -27 -13 -37 -35 -45 -32 -11 -53 -52 -44 -82 5 -14
15 -18 44 -17 l38 1 9 89 c9 86 1 122 -12 54z m-10 -83 c-8 -35 -29 -58 -43
-49 -16 10 -13 37 6 58 25 28 45 23 37 -9z"/>
<path d="M8867 2488 c-15 -85 -19 -148 -9 -148 5 0 12 33 16 73 4 39 9 80 12
90 3 9 1 17 -4 17 -5 0 -12 -15 -15 -32z"/>
<path d="M8447 2439 c-5 -9 -7 -34 -5 -55 3 -37 5 -39 40 -40 l36 -2 4 50 c4
60 -7 73 -17 20 -14 -77 -43 -83 -47 -9 -2 34 -6 46 -11 36z"/>
<path d="M8556 2410 c-8 -51 -7 -70 4 -70 6 0 10 14 10 30 0 20 9 39 25 54
l25 23 -29 -1 c-25 -1 -30 -6 -35 -36z"/>
<path d="M8653 2443 c-23 -9 -14 -20 12 -15 36 6 31 -12 -7 -29 -22 -9 -33
-21 -33 -34 0 -16 7 -20 37 -20 34 -1 36 1 42 38 9 53 -11 77 -51 60z m27 -73
c-12 -22 -25 -26 -35 -10 -9 15 4 30 26 30 17 0 18 -3 9 -20z"/>
<path d="M8922 2434 c-18 -12 -22 -24 -20 -52 3 -34 6 -37 36 -40 17 -2 32 1
32 7 0 6 -7 8 -15 5 -8 -4 -22 0 -31 7 -13 11 -11 14 16 25 35 15 49 42 29 55
-19 12 -21 11 -47 -7z m38 -14 c0 -12 -28 -25 -36 -17 -9 9 6 27 22 27 8 0 14
-5 14 -10z"/>
<path d="M9000 2336 c-12 -33 -12 -36 -1 -36 10 0 25 50 17 58 -3 2 -10 -7
-16 -22z"/>
<path d="M9030 2208 c0 -25 3 -29 10 -18 13 20 13 50 0 50 -5 0 -10 -15 -10
-32z"/>
<path d="M9068 2234 c-5 -4 -8 -19 -8 -33 0 -18 3 -22 11 -14 6 6 9 21 7 33
-1 12 -6 18 -10 14z"/>
<path d="M8760 2189 c0 -5 5 -7 10 -4 6 3 10 8 10 11 0 2 -4 4 -10 4 -5 0 -10
-5 -10 -11z"/>
<path d="M10920 2168 c0 -25 3 -29 10 -18 13 20 13 50 0 50 -5 0 -10 -15 -10
-32z"/>
<path d="M10957 2193 c-10 -10 -8 -55 2 -49 5 3 11 17 13 31 5 24 -2 32 -15
18z"/>
<path d="M11018 2183 c21 -4 23 -9 18 -41 -15 -110 -17 -132 -7 -132 5 0 12
26 16 58 11 103 14 110 43 115 15 2 0 4 -33 4 -33 0 -50 -2 -37 -4z"/>
<path d="M11127 2158 c-16 -90 -19 -148 -8 -148 6 0 11 12 11 26 0 33 17 64
35 64 11 0 15 -12 15 -46 0 -27 4 -43 10 -39 6 3 10 26 10 50 0 45 -15 60 -47
48 -14 -5 -15 -1 -10 35 6 49 -8 57 -16 10z"/>
<path d="M11700 2164 c-6 -14 -10 -32 -10 -40 0 -8 -6 -14 -12 -14 -10 0 -10
-2 0 -9 10 -6 11 -21 3 -69 -12 -75 -17 -85 -42 -77 -11 4 -19 2 -19 -4 0 -15
45 -14 58 2 6 7 14 43 18 80 5 52 10 67 23 67 12 0 13 2 3 9 -23 14 -11 64 18
72 l25 7 -28 1 c-21 1 -30 -5 -37 -25z"/>
<path d="M8283 2153 c-23 -9 -14 -20 12 -15 36 6 32 -17 -5 -29 -22 -8 -30
-17 -30 -35 0 -21 4 -24 35 -21 33 2 35 4 41 46 8 52 -11 72 -53 54z m37 -62
c0 -5 -7 -14 -15 -21 -18 -15 -42 1 -31 19 8 13 46 15 46 2z"/>
<path d="M8374 2124 c-3 -17 -4 -42 -2 -55 4 -23 5 -22 12 6 10 43 21 60 37
60 10 0 13 -11 11 -42 -2 -26 1 -43 7 -43 6 0 11 12 11 26 0 34 17 64 36 64
14 0 15 -8 10 -45 -4 -27 -3 -45 2 -45 6 0 12 19 15 43 5 51 -11 74 -41 58
-10 -6 -23 -7 -27 -3 -3 4 -20 7 -36 7 -25 0 -30 -5 -35 -31z"/>
<path d="M8563 2153 c-23 -9 -14 -20 12 -15 34 6 32 -16 -2 -29 -55 -21 -52
-60 6 -57 35 1 36 2 39 46 4 54 -14 72 -55 55z m27 -73 c-11 -21 -22 -25 -33
-13 -9 9 12 33 30 33 11 0 11 -4 3 -20z"/>
<path d="M8757 2153 c-10 -18 -18 -103 -9 -103 5 0 12 23 16 51 7 49 4 70 -7
52z"/>
<path d="M8807 2150 c-9 -23 -13 -100 -6 -100 4 0 9 14 13 32 7 37 23 58 43
58 12 0 14 -9 9 -45 -4 -26 -3 -45 2 -45 5 0 12 19 16 42 8 52 -12 80 -43 61
-15 -10 -21 -10 -24 0 -3 8 -6 7 -10 -3z"/>
<path d="M8936 2139 c-21 -16 -26 -28 -24 -53 3 -27 7 -31 31 -31 29 1 34 -13
16 -47 -8 -15 -17 -18 -36 -13 -16 4 -22 2 -18 -5 9 -14 50 -12 64 3 12 15 33
146 25 159 -9 14 -30 9 -58 -13z m44 -13 c0 -29 -20 -66 -35 -66 -21 0 -23 43
-3 68 14 16 38 15 38 -2z"/>
<path d="M12190 2150 c0 -5 5 -10 10 -10 6 0 10 5 10 10 0 6 -4 10 -10 10 -5
0 -10 -4 -10 -10z"/>
<path d="M8673 2143 l28 -4 -36 -45 -36 -44 48 2 c37 1 40 2 15 5 l-32 4 36
45 36 44 -43 -1 c-31 -2 -36 -3 -16 -6z"/>
<path d="M11955 2135 c-5 -11 -13 -23 -19 -27 -7 -5 -6 -8 3 -8 10 0 12 -10 7
-39 -3 -23 -2 -42 4 -46 6 -4 10 10 10 34 0 28 5 43 18 50 9 6 12 11 5 11 -6
0 -13 10 -16 23 -3 21 -4 21 -12 2z"/>
<path d="M12251 2143 c0 -6 -8 -19 -17 -27 -10 -10 -11 -16 -3 -16 8 0 10 -11
6 -33 -3 -19 -1 -40 4 -48 6 -9 9 -1 9 28 0 29 5 45 18 52 9 6 12 11 5 11 -6
0 -14 10 -16 23 -2 12 -5 17 -6 10z"/>
<path d="M12390 2130 c0 -11 -3 -20 -7 -20 -5 0 -6 -22 -5 -50 5 -62 22 -66
22 -5 0 36 3 45 18 45 16 1 16 1 0 11 -10 5 -15 16 -12 24 4 8 1 15 -5 15 -6
0 -11 -9 -11 -20z"/>
<path d="M11245 2095 c-42 -41 -28 -85 27 -85 15 0 28 5 28 11 0 6 -8 8 -19 4
-10 -3 -24 1 -31 10 -10 12 -10 15 3 15 8 0 25 8 38 19 20 16 21 21 10 35 -18
22 -28 20 -56 -9z m45 -5 c0 -12 -28 -25 -36 -17 -9 9 6 27 22 27 8 0 14 -5
14 -10z"/>
<path d="M11394 2106 c-8 -23 -20 -166 -13 -166 4 0 10 16 13 35 5 25 12 35
25 35 36 0 72 73 47 97 -11 11 -68 10 -72 -1z m64 -28 c3 -17 -30 -58 -48 -58
-13 0 -13 21 0 55 11 29 43 31 48 3z"/>
<path d="M11515 2095 c-27 -26 -32 -54 -13 -73 15 -15 55 -16 64 -1 4 7 0 9
-13 5 -12 -4 -25 -1 -33 9 -10 12 -10 15 3 15 8 0 25 8 38 19 20 16 21 21 10
35 -18 22 -28 20 -56 -9z m45 -5 c0 -12 -28 -25 -36 -17 -9 9 6 27 22 27 8 0
14 -5 14 -10z"/>
<path d="M11606 2100 c-9 -46 -13 -90 -6 -90 11 0 29 84 20 100 -7 12 -10 10
-14 -10z"/>
<path d="M11635 2110 c-3 -5 1 -10 9 -10 9 0 16 5 16 10 0 6 -4 10 -9 10 -6 0
-13 -4 -16 -10z"/>
<path d="M11773 2109 c-25 -9 -38 -47 -28 -78 4 -15 15 -21 36 -21 16 0 29 4
29 8 0 5 -10 8 -21 8 -33 -1 -32 17 1 36 48 27 34 66 -17 47z m27 -24 c-7 -8
-19 -15 -26 -15 -8 0 -11 6 -8 15 4 8 15 15 26 15 17 0 18 -3 8 -15z"/>
<path d="M11862 2104 c-18 -12 -22 -24 -20 -52 3 -34 6 -37 36 -40 17 -2 32 1
32 6 0 6 -8 8 -18 5 -10 -2 -24 3 -32 12 -21 25 2 65 37 65 22 0 25 2 13 10
-20 13 -22 13 -48 -6z"/>
<path d="M12093 2112 c-18 -3 -23 -12 -28 -60 -3 -31 -9 -69 -11 -84 -3 -17
-1 -28 5 -28 6 0 11 14 11 31 0 24 5 32 30 41 71 24 65 112 -7 100z m37 -42
c0 -26 -21 -50 -44 -50 -10 0 -7 40 4 61 17 30 40 24 40 -11z"/>
<path d="M12187 2100 c-11 -47 -14 -90 -6 -90 10 0 23 84 16 102 -2 7 -7 2
-10 -12z"/>
<path d="M12305 2103 c-15 -14 -14 -17 4 -37 30 -31 27 -50 -5 -42 -17 5 -23
3 -19 -4 10 -16 55 -12 62 6 3 8 -4 25 -16 38 -27 28 -26 34 2 38 19 3 19 4 5
10 -11 4 -24 1 -33 -9z"/>
<path d="M12455 2095 c-28 -27 -30 -37 -15 -66 22 -40 90 -10 90 39 0 21 -24
52 -41 52 -6 0 -21 -11 -34 -25z m53 -26 c3 -29 -20 -54 -43 -45 -18 7 -20 47
-3 64 19 19 43 10 46 -19z"/>
<path d="M12584 2112 c-18 -2 -23 -12 -28 -50 -4 -26 -9 -64 -12 -84 -4 -24
-2 -38 5 -38 6 0 11 14 11 31 0 24 5 32 30 41 71 24 65 112 -6 100z m36 -42
c0 -26 -21 -50 -44 -50 -10 0 -7 40 4 61 17 30 40 24 40 -11z"/>
<path d="M8635 1904 c-43 -6 -81 -16 -83 -23 -2 -6 -14 -11 -27 -11 -13 0 -27
-5 -30 -10 -3 -6 -17 -7 -31 -4 -13 3 -31 1 -39 -6 -32 -26 -89 -49 -111 -44
-16 4 -28 -1 -41 -15 -9 -12 -25 -21 -35 -21 -10 0 -18 -7 -18 -16 0 -9 -8
-23 -17 -30 -15 -11 -16 -13 -2 -14 21 0 39 19 32 36 -4 10 3 14 21 14 17 0
24 -4 20 -13 -7 -18 -58 -47 -82 -47 -26 0 -39 -19 -21 -31 9 -5 10 -9 2 -9
-6 0 -14 -14 -18 -31 -4 -17 -18 -40 -31 -52 -13 -11 -24 -28 -24 -37 0 -9 -4
-20 -9 -25 -5 -6 -11 -30 -13 -55 -2 -25 -7 -48 -13 -52 -6 -4 -2 -8 8 -8 21
0 22 -8 0 -32 -11 -12 -18 -42 -21 -91 -2 -39 -9 -75 -16 -79 -8 -6 -8 -13 2
-28 10 -17 9 -23 -7 -39 -19 -19 -19 -51 -1 -76 16 -22 21 -84 7 -92 -8 -4
-16 -18 -19 -30 -5 -19 -2 -23 20 -24 15 -1 30 -1 35 0 4 0 7 -14 7 -33 0 -36
26 -58 42 -34 9 15 10 14 13 -81 4 -81 18 -108 40 -77 17 23 38 11 29 -17 -5
-18 -4 -20 7 -9 7 7 14 25 15 40 1 27 28 40 30 15 1 -7 2 -18 3 -24 0 -5 6 -7
11 -4 24 15 7 -16 -27 -50 -22 -22 -30 -35 -20 -31 10 3 23 6 28 6 5 0 9 6 9
14 0 8 7 16 15 20 8 3 20 17 25 31 5 14 15 25 21 25 8 0 8 -4 -1 -15 -7 -8 -9
-26 -5 -44 4 -17 6 -32 5 -33 -1 -2 23 -29 54 -62 50 -54 58 -58 86 -52 18 3
45 20 61 37 15 17 33 28 39 24 6 -4 10 6 10 23 0 16 7 35 15 42 18 15 20 83 4
149 -8 34 -7 46 3 53 19 13 105 3 126 -14 27 -24 79 -38 161 -44 42 -3 91 -10
109 -16 22 -7 42 -6 63 1 26 9 38 7 78 -13 26 -14 66 -41 90 -60 24 -20 51
-36 62 -36 10 0 19 -6 19 -14 0 -19 50 -8 70 15 8 10 22 19 30 21 19 4 45 51
31 56 -6 2 -11 10 -11 18 0 8 -9 14 -20 14 -13 0 -22 9 -26 28 -4 15 -13 32
-20 38 -18 14 -20 38 -10 97 7 41 6 51 -12 70 -17 18 -18 24 -7 34 10 10 14 9
19 -2 6 -17 52 -20 61 -5 3 5 0 7 -8 4 -17 -6 -28 16 -22 46 2 11 0 18 -6 15
-5 -4 -9 1 -9 9 0 9 5 16 11 16 5 0 7 5 3 12 -5 8 1 9 22 5 17 -3 36 0 47 8
20 15 9 29 -13 15 -21 -13 -40 0 -40 27 0 16 -7 27 -20 30 -11 3 -20 10 -20
15 0 6 7 8 15 4 8 -3 15 -1 15 5 0 5 -12 14 -26 19 -23 9 -26 15 -21 40 5 23
1 33 -18 48 -14 11 -25 24 -25 29 0 6 -9 18 -20 28 -11 10 -20 25 -20 33 0 19
-29 70 -62 110 -16 18 -28 37 -28 43 0 6 -4 7 -10 4 -5 -3 -10 1 -10 9 0 8 -9
20 -20 26 -11 6 -19 19 -18 28 2 10 -5 18 -17 20 -11 2 -35 19 -54 38 -19 19
-52 39 -73 45 -27 7 -42 18 -48 35 -6 16 -17 24 -33 24 -13 0 -36 13 -52 30
-16 17 -39 30 -52 30 -15 0 -23 6 -23 18 0 32 -29 38 -115 26z m-43 -59 c-2
-15 -11 -25 -21 -25 -28 0 -30 9 -13 40 20 34 42 24 34 -15z m38 36 c0 -6 -4
-13 -10 -16 -5 -3 -10 1 -10 9 0 9 5 16 10 16 6 0 10 -4 10 -9z m90 -25 c0
-24 -32 -28 -52 -6 -19 20 -18 20 17 20 23 0 35 -5 35 -14z m-162 -256 c17
-11 32 -28 32 -38 0 -10 16 -34 36 -53 62 -60 62 -66 -2 -85 -30 -9 -70 -29
-88 -45 -31 -26 -34 -34 -35 -91 -5 -147 -6 -153 -26 -169 -16 -14 -17 -19 -6
-33 7 -9 24 -16 37 -16 13 0 24 -4 24 -9 0 -11 -84 -41 -114 -41 -20 0 -20 0
0 -14 16 -13 20 -13 27 0 6 10 28 14 85 13 42 -1 69 -3 60 -6 -10 -2 -18 -9
-18 -14 0 -6 -6 -7 -12 -3 -10 5 -10 4 -1 -6 9 -10 7 -17 -10 -30 -12 -10 -32
-20 -44 -24 -41 -13 -24 -26 31 -26 30 0 57 -4 60 -9 8 -12 -15 -38 -48 -55
-36 -18 -59 -8 -82 37 -9 18 -45 75 -79 127 -38 58 -64 110 -68 135 -8 51 2
115 18 115 7 0 15 7 19 15 11 29 26 15 21 -20 -5 -40 -5 -39 30 -23 34 15 41
47 17 89 -17 30 -32 40 -89 55 -32 8 -4 142 41 199 20 25 33 31 82 36 33 3 61
7 64 7 3 1 20 -7 38 -18z m152 -230 c12 -8 11 -10 -7 -10 -12 0 -25 5 -28 10
-8 13 15 13 35 0z m-339 -37 c39 -23 37 -36 -6 -31 -20 2 -35 0 -35 -7 0 -5
-5 -2 -11 8 -12 21 -5 47 12 47 6 0 24 -8 40 -17z m224 -20 c-15 -11 -15 -14
-3 -10 23 8 33 -22 11 -38 -15 -11 -15 -13 6 -20 29 -9 114 3 123 18 5 9 10 9
19 0 32 -32 -44 -153 -95 -153 -12 0 -37 16 -56 35 -19 19 -40 35 -48 35 -11
0 -13 7 -8 28 4 15 7 37 7 49 -1 17 3 21 16 16 13 -5 15 -2 9 20 -4 19 -1 29
11 36 26 14 31 2 8 -16z m730 -13 c-3 -5 -13 -6 -21 -3 -12 4 -13 8 -3 14 15
9 32 2 24 -11z m29 -168 c2 -4 1 -14 -4 -21 -10 -17 -31 -5 -23 14 6 16 19 20
27 7z m-764 -72 c0 -5 -9 -10 -21 -10 -11 0 -17 5 -14 10 3 6 13 10 21 10 8 0
14 -4 14 -10z m-510 -30 c0 -10 -4 -22 -10 -25 -6 -4 -10 7 -10 25 0 18 4 29
10 25 6 -3 10 -15 10 -25z m1240 -96 c0 -8 -4 -12 -10 -9 -5 3 -10 10 -10 16
0 5 5 9 10 9 6 0 10 -7 10 -16z m-2 -49 c-3 -3 -9 2 -12 12 -6 14 -5 15 5 6 7
-7 10 -15 7 -18z m-998 -84 c0 -6 -4 -13 -10 -16 -5 -3 -10 1 -10 9 0 9 5 16
10 16 6 0 10 -4 10 -9z m-120 -33 c0 -33 -14 -58 -31 -58 -20 0 -25 15 -9 25
6 4 7 11 4 17 -4 7 -2 8 4 4 7 -4 12 -1 12 8 0 9 5 16 10 16 6 0 10 -6 10 -12z
m194 -101 c0 -56 -4 -73 -16 -75 -18 -4 -34 56 -18 72 5 5 10 25 10 43 0 20 5
33 13 33 8 0 12 -21 11 -73z"/>
<path d="M10992 1888 c-7 -7 -12 -22 -12 -35 0 -12 -8 -27 -17 -32 -13 -7 -14
-10 -4 -11 11 0 13 -13 7 -61 -7 -71 -20 -92 -50 -83 -16 5 -18 3 -10 -6 7 -6
22 -10 35 -8 25 3 33 24 44 110 4 32 11 48 23 51 16 4 16 5 0 6 -10 0 -18 5
-18 10 0 24 21 60 37 64 16 4 15 5 -2 6 -12 0 -26 -4 -33 -11z"/>
<path d="M11837 1878 c-13 -53 -18 -163 -8 -148 6 8 11 24 11 36 0 23 18 44
38 44 10 0 13 -11 10 -45 -3 -47 6 -61 16 -22 16 59 -5 98 -42 78 -18 -10 -19
-7 -14 34 5 47 -2 61 -11 23z"/>
<path d="M12285 1838 c-3 -35 -8 -75 -11 -90 -9 -46 11 -32 22 15 7 33 14 43
32 45 22 3 23 2 17 -42 -5 -29 -3 -46 3 -46 5 0 12 19 14 41 4 48 -13 73 -44
63 -19 -6 -20 -3 -13 35 4 25 3 41 -3 41 -6 0 -13 -28 -17 -62z"/>
<path d="M12576 1868 c-3 -13 -5 -43 -5 -68 1 -41 1 -43 9 -15 14 51 19 105
11 105 -5 0 -11 -10 -15 -22z"/>
<path d="M11950 1860 c0 -5 5 -10 10 -10 6 0 10 5 10 10 0 6 -4 10 -10 10 -5
0 -10 -4 -10 -10z"/>
<path d="M12410 1859 c0 -5 5 -7 10 -4 6 3 10 8 10 11 0 2 -4 4 -10 4 -5 0
-10 -5 -10 -11z"/>
<path d="M11770 1841 c0 -11 -6 -22 -12 -24 -7 -3 -8 -6 -3 -6 6 -1 9 -20 7
-46 -3 -29 0 -45 7 -45 7 0 11 6 10 13 -6 44 2 77 19 77 16 1 16 1 0 11 -10 5
-15 16 -12 24 4 8 1 15 -5 15 -6 0 -11 -9 -11 -19z"/>
<path d="M11053 1819 c-26 -9 -41 -55 -26 -78 17 -27 60 -26 78 3 9 14 15 33
13 42 -5 26 -39 44 -65 33z m45 -37 c4 -26 -13 -52 -35 -52 -18 0 -27 24 -19
56 9 33 49 30 54 -4z"/>
<path d="M11174 1822 c-16 -2 -23 -13 -28 -40 -8 -51 -8 -62 4 -62 6 0 10 14
10 30 0 17 9 39 21 51 23 23 23 26 -7 21z"/>
<path d="M11295 1805 c-28 -27 -30 -37 -15 -66 11 -19 54 -27 64 -11 2 4 -7 8
-21 7 -35 0 -41 23 -8 31 31 8 49 36 33 52 -17 17 -26 15 -53 -13z m43 -7 c-3
-7 -15 -15 -28 -16 -21 -3 -22 -2 -11 12 16 19 44 21 39 4z"/>
<path d="M11373 1794 c4 -21 7 -47 7 -56 0 -10 7 -18 15 -18 20 0 55 58 54 90
0 20 -4 16 -17 -19 -23 -59 -42 -65 -42 -12 0 22 -5 43 -12 47 -8 5 -9 -4 -5
-32z"/>
<path d="M11503 1819 c-26 -9 -41 -55 -26 -78 11 -17 63 -28 63 -13 0 5 -10 8
-21 8 -33 -1 -32 17 1 36 48 27 34 66 -17 47z m27 -24 c-13 -16 -40 -20 -40
-7 0 14 12 22 33 22 16 0 17 -3 7 -15z"/>
<path d="M11577 1801 c-4 -18 -7 -45 -7 -60 0 -20 2 -23 10 -11 5 8 10 25 10
37 0 13 9 28 20 35 26 16 26 32 1 18 -14 -7 -21 -6 -23 2 -3 7 -8 -2 -11 -21z"/>
<path d="M11651 1809 c-2 -47 11 -91 25 -85 19 7 18 -14 -2 -42 -11 -16 -22
-21 -36 -16 -14 4 -18 2 -14 -5 12 -19 45 -12 60 12 18 28 49 133 43 150 -2 6
-10 -8 -18 -32 -8 -25 -19 -46 -25 -48 -6 -2 -15 18 -21 44 -7 33 -11 40 -12
22z"/>
<path d="M11947 1820 c-9 -24 -13 -100 -5 -100 9 0 22 84 15 102 -4 10 -6 10
-10 -2z"/>
<path d="M11994 1794 c-3 -17 -4 -42 -2 -55 4 -23 5 -22 12 6 11 43 21 60 41
63 15 3 17 -3 14 -42 -5 -55 7 -61 17 -9 9 47 -5 68 -45 68 -27 0 -32 -4 -37
-31z"/>
<path d="M12145 1820 c-32 -12 -47 -36 -43 -67 2 -22 9 -29 31 -31 18 -2 27
-9 27 -21 0 -26 -25 -44 -51 -36 -14 5 -19 4 -15 -4 12 -19 55 -12 70 12 17
26 26 149 11 153 -5 1 -19 -1 -30 -6z m25 -33 c0 -30 -24 -62 -38 -53 -16 9
-15 49 0 64 19 19 38 14 38 -11z"/>
<path d="M12406 1819 c-11 -34 -15 -99 -7 -99 9 0 25 99 17 108 -3 2 -8 -1
-10 -9z"/>
<path d="M12456 1821 c-2 -3 -7 -35 -11 -71 -3 -36 -9 -73 -11 -82 -3 -10 -1
-18 4 -18 5 0 13 16 16 35 5 25 12 35 25 35 36 0 72 73 47 97 -8 8 -66 11 -70
4z m62 -33 c3 -17 -30 -58 -48 -58 -13 0 -13 21 0 55 11 29 43 31 48 3z"/>
<path d="M12560 1730 c0 -5 5 -10 10 -10 6 0 10 5 10 10 0 6 -4 10 -10 10 -5
0 -10 -4 -10 -10z"/>
<path d="M11667 1613 c-4 -3 -7 -21 -7 -39 0 -26 -5 -34 -29 -42 -33 -12 -54
-43 -49 -75 2 -18 10 -22 44 -23 37 -2 42 1 41 20 -1 11 2 54 7 94 7 70 6 79
-7 65z m-17 -116 c0 -30 -24 -62 -38 -53 -16 9 -15 49 0 64 19 19 38 14 38
-11z"/>
<path d="M11341 1524 c-45 -94 -45 -94 -33 -94 5 0 14 11 20 25 9 20 19 25 47
25 29 0 36 -4 41 -25 3 -14 10 -25 16 -25 5 0 7 8 4 18 -3 9 -10 40 -16 67
-18 88 -20 95 -29 95 -5 0 -27 -39 -50 -86z m62 -1 c6 -31 5 -33 -23 -33 -35
0 -36 6 -13 55 18 38 26 34 36 -22z"/>
<path d="M12210 1551 c0 -11 -6 -22 -12 -24 -8 -4 -9 -6 -2 -6 8 -1 10 -17 6
-46 -3 -30 -1 -45 7 -45 6 0 11 18 11 45 0 36 4 45 18 46 10 0 12 3 5 6 -7 2
-13 13 -13 24 0 10 -4 19 -10 19 -5 0 -10 -9 -10 -19z"/>
<path d="M11477 1520 c-10 -43 -14 -90 -7 -90 3 0 11 20 18 45 9 36 16 45 33
45 20 0 21 -4 16 -45 -4 -25 -3 -45 2 -45 5 0 11 19 14 43 7 49 -12 74 -44 57
-12 -7 -19 -6 -22 3 -2 6 -7 1 -10 -13z"/>
<path d="M11826 1519 c-21 -16 -26 -28 -24 -53 3 -27 7 -31 31 -31 29 1 34
-13 16 -47 -8 -15 -17 -18 -35 -14 -14 4 -24 2 -24 -4 0 -15 56 -12 69 3 12
15 33 146 25 159 -9 14 -30 9 -58 -13z m44 -13 c0 -28 -20 -66 -34 -66 -22 0
-28 30 -11 56 17 26 45 32 45 10z"/>
<path d="M11926 1530 c-10 -34 -16 -100 -7 -100 4 0 11 18 15 41 5 29 12 43
26 46 11 3 20 9 20 14 0 13 -17 11 -26 -2 -4 -8 -9 -7 -15 2 -6 11 -9 11 -13
-1z"/>
<path d="M12012 1524 c-18 -12 -22 -24 -20 -52 3 -34 6 -37 36 -40 17 -2 32 1
32 7 0 6 -7 8 -15 5 -8 -4 -22 0 -31 7 -13 11 -11 14 16 25 35 15 49 42 29 55
-19 12 -21 11 -47 -7z m38 -14 c0 -12 -28 -25 -36 -17 -9 9 6 27 22 27 8 0 14
-5 14 -10z"/>
<path d="M12113 1533 c-23 -9 -14 -20 12 -15 36 6 31 -12 -7 -29 -48 -21 -46
-53 4 -55 35 -2 36 -1 40 40 6 56 -10 75 -49 59z m27 -62 c0 -12 -29 -35 -36
-28 -11 10 5 37 21 37 8 0 15 -4 15 -9z"/>
<path d="M11696 1424 c-9 -36 1 -43 14 -10 12 33 12 36 1 36 -5 0 -12 -12 -15
-26z"/>
<path d="M12486 1304 c-6 -24 -2 -44 8 -33 9 11 15 59 7 59 -5 0 -12 -12 -15
-26z"/>
<path d="M12521 1298 c0 -28 2 -30 9 -13 12 28 12 45 0 45 -5 0 -10 -15 -9
-32z"/>
<path d="M12250 1280 c0 -5 5 -10 10 -10 6 0 10 5 10 10 0 6 -4 10 -10 10 -5
0 -10 -4 -10 -10z"/>
<path d="M11321 1273 c0 -6 -8 -19 -17 -27 -10 -10 -11 -16 -3 -16 8 0 10 -12
5 -39 -3 -23 -2 -42 4 -46 6 -4 10 10 10 34 0 28 5 43 18 50 9 6 12 11 5 11
-6 0 -14 10 -16 23 -2 12 -5 17 -6 10z"/>
<path d="M11030 1230 c-20 -20 -25 -45 -14 -74 6 -16 64 -23 64 -8 0 5 -10 8
-22 8 -20 -1 -23 4 -23 34 0 31 3 35 30 40 25 5 27 7 12 13 -25 10 -24 10 -47
-13z"/>
<path d="M11117 1243 c-4 -3 -7 -28 -7 -55 l0 -48 40 2 40 1 -1 56 c-1 54 -1
55 -11 21 -14 -49 -23 -65 -39 -65 -10 0 -13 12 -11 48 3 47 1 53 -11 40z"/>
<path d="M11232 1238 c-17 -17 -15 -32 8 -53 23 -21 16 -39 -11 -32 -11 3 -19
1 -19 -4 0 -15 50 -10 57 6 3 9 -2 24 -11 34 -20 22 -21 41 0 41 8 0 12 5 9
10 -8 13 -18 13 -33 -2z"/>
<path d="M11382 1234 c-18 -12 -22 -24 -20 -52 3 -33 7 -37 33 -40 19 -3 33 2
42 14 20 27 16 72 -6 84 -25 13 -22 13 -49 -6z m50 -22 c7 -25 -9 -62 -25 -62
-27 0 -41 28 -29 55 13 29 47 33 54 7z"/>
<path d="M11486 1230 c-9 -46 -13 -90 -6 -90 11 0 29 84 20 100 -7 12 -10 10
-14 -10z"/>
<path d="M11515 1240 c-3 -5 1 -10 9 -10 12 0 16 -11 17 -47 0 -50 10 -41 24
20 4 20 11 27 23 25 14 -3 16 -12 14 -47 -3 -30 0 -41 7 -37 18 12 14 93 -5
100 -9 4 -22 2 -28 -3 -7 -6 -17 -6 -26 -1 -19 12 -27 12 -35 0z"/>
<path d="M11672 1234 c-18 -12 -22 -24 -20 -52 3 -34 6 -37 36 -40 17 -2 32 1
32 7 0 6 -7 8 -15 5 -8 -4 -22 0 -31 7 -13 11 -11 14 16 25 35 15 49 42 29 55
-19 12 -21 11 -47 -7z m38 -14 c0 -12 -28 -25 -36 -17 -9 9 6 27 22 27 8 0 14
-5 14 -10z"/>
<path d="M11757 1240 c-9 -24 -13 -100 -6 -100 4 0 10 16 13 35 4 19 16 41 28
49 12 9 19 19 15 22 -4 4 -13 2 -21 -5 -11 -9 -15 -9 -19 1 -4 10 -6 9 -10 -2z"/>
<path d="M11890 1235 c-11 -13 -9 -20 9 -38 30 -32 28 -51 -5 -43 -17 5 -23 3
-19 -4 10 -16 55 -12 62 6 3 8 -4 25 -16 38 -26 28 -27 36 0 36 11 0 17 5 14
10 -9 15 -31 12 -45 -5z"/>
<path d="M11982 1234 c-18 -12 -22 -24 -20 -52 3 -34 6 -37 36 -40 17 -2 32 1
32 7 0 6 -7 8 -15 5 -8 -4 -22 0 -31 7 -13 11 -11 14 16 25 35 15 49 42 29 55
-19 12 -21 11 -47 -7z m38 -14 c0 -12 -28 -25 -36 -17 -9 9 6 27 22 27 8 0 14
-5 14 -10z"/>
<path d="M12066 1225 c-3 -11 -6 -36 -6 -55 0 -26 3 -31 10 -20 5 8 10 25 10
37 0 13 9 28 20 35 27 17 25 26 -4 24 -16 0 -27 -9 -30 -21z"/>
<path d="M12197 1219 c-4 -21 -14 -42 -22 -49 -12 -10 -16 -5 -21 29 -9 57
-25 51 -17 -6 7 -56 8 -57 27 -50 24 10 48 54 44 84 -3 27 -4 26 -11 -8z"/>
<path d="M12247 1240 c-9 -24 -13 -100 -5 -100 9 0 22 84 15 102 -4 10 -6 10
-10 -2z"/>
<path d="M12300 1230 c-22 -22 -26 -60 -8 -78 14 -14 54 -16 63 -3 3 6 -7 9
-22 8 -22 -2 -29 3 -31 21 -4 28 14 52 40 52 10 0 16 5 13 10 -10 16 -33 12
-55 -10z"/>
<path d="M12402 1234 c-18 -12 -22 -24 -20 -52 3 -34 6 -37 36 -40 17 -2 32 1
32 7 0 6 -7 8 -15 5 -8 -4 -22 0 -31 7 -13 11 -11 14 16 25 35 15 49 42 29 55
-19 12 -21 11 -47 -7z m38 -14 c0 -12 -28 -25 -36 -17 -9 9 6 27 22 27 8 0 14
-5 14 -10z"/>
<path d="M9410 975 c0 -8 4 -15 10 -15 5 0 7 7 4 15 -4 8 -8 15 -10 15 -2 0
-4 -7 -4 -15z"/>
<path d="M9410 926 c0 -7 9 -16 20 -19 17 -4 18 -2 9 14 -11 22 -29 25 -29 5z"/>
<path d="M8320 535 c-10 -12 -9 -16 5 -21 19 -8 40 9 31 25 -10 15 -21 14 -36
-4z"/>
</g>
</svg>
