<?xml version="1.0" standalone="no"?>
<!DOCTYPE svg PUBLIC "-//W3C//DTD SVG 20010904//EN"
 "http://www.w3.org/TR/2001/REC-SVG-20010904/DTD/svg10.dtd">
<svg version="1.0" xmlns="http://www.w3.org/2000/svg"
 width="500.000000pt" height="500.000000pt" viewBox="0 0 500.000000 500.000000"
 preserveAspectRatio="xMidYMid meet">

<g transform="translate(0.000000,500.000000) scale(0.100000,-0.100000)"
fill="#000000" stroke="none">
<path d="M3542 3861 c-23 -4 -53 -16 -67 -27 -129 -104 -203 -154 -226 -154
-26 0 -51 21 -62 53 -8 21 -65 47 -102 47 -51 0 -115 -50 -80 -64 7 -2 16 2
19 10 4 11 18 14 47 12 40 -3 42 -5 60 -54 17 -44 25 -53 67 -72 27 -12 60
-22 74 -22 27 0 126 60 199 121 60 50 94 57 145 30 21 -11 49 -29 62 -40 25
-22 52 -89 52 -131 0 -38 39 -156 60 -182 12 -16 30 -23 59 -24 23 0 44 -4 48
-8 16 -15 23 -3 23 38 0 25 -5 57 -10 72 -6 15 -13 48 -16 73 -8 68 -23 119
-42 142 -9 11 -26 36 -38 57 -23 41 -81 85 -101 77 -8 -2 -11 0 -8 5 6 10 -46
35 -91 43 -16 2 -48 2 -72 -2z m204 -208 c-4 -4 -11 -1 -16 7 -16 25 -11 35 7
17 9 -9 13 -20 9 -24z m41 -195 c-3 -8 -6 -5 -6 6 -1 11 2 17 5 13 3 -3 4 -12
1 -19z"/>
<path d="M3483 3619 c-31 -20 -61 -61 -121 -170 -34 -59 -62 -79 -116 -79 -44
0 -78 28 -133 112 -50 76 -119 134 -171 144 -18 4 -35 5 -36 3 -2 -2 -6 -26
-7 -53 -4 -47 -3 -50 25 -57 39 -11 70 -41 123 -121 24 -37 59 -80 78 -97 56
-49 154 -66 218 -37 18 7 46 19 62 25 33 13 85 77 105 131 7 19 24 56 37 83
22 44 26 47 61 47 27 0 45 -7 59 -22 28 -31 55 -86 48 -98 -3 -6 -1 -10 4 -10
13 0 12 88 0 96 -5 2 -5 12 -2 20 11 30 -18 62 -77 83 -72 26 -116 26 -157 0z
m37 -140 c-7 -11 -14 -19 -16 -16 -7 7 7 37 17 37 6 0 5 -9 -1 -21z m-20 -38
c0 -6 -4 -13 -10 -16 -5 -3 -10 1 -10 9 0 9 5 16 10 16 6 0 10 -4 10 -9z"/>
<path d="M2861 3449 c-13 -5 -33 -9 -45 -8 -49 4 -66 -4 -124 -58 l-60 -58 26
-27 c15 -15 33 -34 39 -42 11 -13 19 -13 55 -2 24 8 64 23 91 35 60 28 104 22
131 -16 38 -54 103 -113 125 -113 28 0 27 24 -2 43 -27 18 -71 128 -62 156 4
13 -5 28 -31 50 -56 49 -94 60 -143 40z m-151 -96 c-8 -4 -20 -13 -27 -22 -7
-9 -13 -11 -13 -5 0 15 22 34 40 33 13 0 13 -1 0 -6z"/>
<path d="M3577 3363 c-47 -36 -72 -71 -76 -107 -2 -23 0 -28 14 -22 9 3 25 6
35 6 11 0 30 11 44 25 l25 25 -5 -52 c-3 -29 -9 -78 -15 -108 -5 -30 -16 -104
-24 -164 -13 -98 -25 -146 -25 -103 0 17 -40 108 -51 117 -4 3 -10 16 -14 30
-29 101 -120 239 -133 201 -3 -8 -9 -8 -25 1 -36 19 -78 15 -92 -7 -7 -11 -16
-54 -20 -94 -3 -41 -9 -79 -11 -83 -3 -5 -14 -72 -25 -151 -10 -78 -25 -191
-34 -250 -10 -72 -11 -115 -5 -127 5 -9 7 -20 4 -23 -3 -3 -3 -11 1 -17 6 -9
10 -9 16 1 7 11 10 9 15 -8 4 -13 11 -23 18 -23 6 0 4 -5 -4 -10 -13 -8 -12
-10 3 -10 34 0 58 20 52 41 -5 16 -3 20 11 17 12 -2 18 5 21 27 2 17 10 63 18
104 9 41 21 125 27 187 12 107 13 112 30 97 10 -8 15 -19 13 -24 -6 -8 15 -59
24 -59 3 0 7 -11 7 -23 1 -13 14 -43 29 -67 15 -24 28 -48 30 -54 4 -18 37
-91 44 -96 3 -3 7 -11 9 -18 4 -23 34 -62 46 -62 7 0 18 6 25 13 10 10 11 9 6
-4 -8 -22 20 -32 45 -16 25 15 27 39 3 30 -11 -4 -14 -3 -9 5 9 16 33 15 39 0
4 -8 6 -6 7 5 3 20 3 19 18 72 6 22 18 110 27 195 8 85 26 223 40 305 14 83
25 162 25 177 0 30 -27 63 -84 102 -49 33 -73 33 -119 -1z m-268 -418 c-1 -29
-1 -29 -9 -5 -4 14 -8 34 -9 45 -1 16 1 17 9 5 5 -8 9 -28 9 -45z m8 -107 c-3
-8 -6 -5 -6 6 -1 11 2 17 5 13 3 -3 4 -12 1 -19z"/>
<path d="M2858 3218 c-17 -15 -78 -125 -78 -144 0 -11 -83 -224 -137 -349 -45
-105 -50 -119 -68 -174 -23 -72 -24 -123 -2 -145 9 -10 17 -21 17 -26 0 -5 9
-14 20 -20 24 -13 81 17 58 31 -15 9 -3 24 19 24 15 0 46 72 37 86 -2 4 5 27
17 51 18 38 29 47 78 66 61 24 87 27 96 13 3 -5 7 -46 10 -92 2 -45 8 -86 14
-92 5 -5 7 -16 4 -24 -5 -12 -1 -14 15 -8 19 5 22 2 22 -19 0 -14 4 -26 10
-26 10 0 42 65 44 90 1 8 8 15 16 15 17 0 19 16 20 169 0 55 -3 102 -7 105 -4
3 -8 48 -8 99 0 69 -4 95 -14 101 -11 7 -13 25 -7 82 3 41 2 88 -3 104 -5 17
-10 23 -11 15 -1 -9 -5 -7 -10 8 -5 12 -7 29 -3 38 4 12 2 15 -8 12 -8 -3 -34
1 -58 9 -55 16 -63 16 -83 1z m132 -120 c0 -18 -2 -20 -9 -8 -6 8 -7 18 -5 22
9 14 14 9 14 -14z m-90 -242 c0 -52 -1 -54 -32 -60 -17 -3 -32 -5 -33 -4 -2 2
8 26 21 53 13 28 23 56 24 63 0 7 5 10 10 7 6 -3 10 -30 10 -59z m107 32 c-3
-8 -6 -5 -6 6 -1 11 2 17 5 13 3 -3 4 -12 1 -19z m10 -150 c-3 -7 -5 -2 -5 12
0 14 2 19 5 13 2 -7 2 -19 0 -25z m9 -43 c1 -8 -2 -13 -7 -9 -5 3 -9 12 -9 21
0 19 13 9 16 -12z"/>
<path d="M2185 3125 c-95 -27 -123 -44 -139 -89 -20 -56 -16 -86 16 -116 l27
-26 -24 -112 c-39 -177 -68 -414 -53 -424 8 -4 14 -2 16 7 7 32 20 13 16 -24
-4 -46 2 -53 42 -42 19 5 30 15 32 29 2 12 8 19 14 16 6 -4 13 -3 17 2 3 5 31
17 61 26 55 17 55 17 30 -2 -14 -11 -28 -20 -32 -20 -5 0 -8 -4 -8 -10 0 -15
56 -12 70 4 6 8 17 13 23 11 7 -3 39 20 72 50 33 30 63 55 68 55 4 0 7 7 7 15
0 7 6 18 13 22 24 16 53 72 60 121 3 17 8 35 11 41 4 6 2 29 -4 51 -8 30 -20
47 -46 62 -19 11 -34 22 -34 25 0 2 12 20 27 39 34 45 83 144 83 167 0 100
-200 167 -365 122z m158 -189 c-15 -18 -40 -41 -54 -51 -15 -11 -25 -24 -22
-31 2 -6 -3 -14 -11 -17 -9 -4 -16 -5 -16 -4 0 12 23 124 27 130 2 4 27 7 55
7 l50 0 -29 -34z m-86 -190 c0 -8 -9 -14 -19 -13 -21 1 -24 13 -5 20 20 9 24
8 24 -7z m70 -42 c-3 -3 -12 -4 -19 -1 -8 3 -5 6 6 6 11 1 17 -2 13 -5z m24
-55 c7 -15 4 -26 -13 -51 -13 -18 -29 -37 -37 -42 -7 -4 -21 -16 -31 -26 -20
-20 -58 -43 -77 -46 -16 -3 -16 6 -2 100 13 85 21 93 99 88 37 -3 53 -9 61
-23z m-161 -189 c0 -5 -4 -10 -10 -10 -5 0 -10 5 -10 10 0 6 5 10 10 10 6 0
10 -4 10 -10z m50 -65 c-46 -18 -61 -18 -30 0 14 8 34 14 45 14 13 0 8 -5 -15
-14z"/>
<path d="M1543 3071 c-65 -16 -123 -43 -123 -57 0 -3 6 -2 13 2 9 6 8 3 -1 -9
-19 -23 -11 -58 16 -68 15 -6 21 -5 17 1 -3 6 -1 10 4 10 6 0 11 -4 11 -9 0
-5 9 -7 20 -4 11 3 20 0 20 -6 0 -6 -11 -13 -25 -17 -32 -8 -34 -34 -2 -27 12
2 31 8 42 12 59 23 97 31 153 31 61 0 80 -11 78 -47 -2 -36 -137 -175 -154
-158 -2 2 0 24 7 49 19 77 -9 105 -36 36 -13 -32 -19 -38 -30 -29 -16 14 -18
33 -1 23 7 -4 8 -3 4 4 -4 7 -14 12 -22 12 -8 0 -12 -4 -9 -10 3 -5 1 -10 -5
-10 -6 0 -8 10 -4 25 5 20 3 25 -14 25 -18 0 -31 -30 -37 -85 -2 -20 -27 -120
-35 -145 -5 -14 -12 -43 -15 -65 -2 -22 -9 -60 -14 -85 -6 -25 -10 -78 -11
-117 0 -58 3 -73 15 -73 9 0 15 9 15 24 0 14 5 28 11 31 7 5 9 -10 4 -50 -5
-50 -4 -56 12 -53 10 1 24 -1 31 -5 8 -5 12 -3 12 7 0 9 6 16 14 16 8 0 16 13
18 29 2 17 1 28 -3 25 -18 -11 -17 16 1 29 17 12 23 32 31 108 6 52 12 95 14
97 1 2 27 -32 58 -76 68 -96 103 -127 169 -147 76 -22 120 -20 138 8 8 12 15
24 15 27 0 3 4 10 8 17 4 6 5 30 1 51 -6 37 -10 41 -49 52 -62 17 -96 41 -129
89 l-29 42 66 62 c64 60 68 65 93 152 19 69 24 102 19 141 -9 71 -34 93 -137
115 -102 23 -152 23 -245 0z m115 -108 c-10 -2 -26 -2 -35 0 -10 3 -2 5 17 5
19 0 27 -2 18 -5z m49 1 c-3 -3 -12 -4 -19 -1 -8 3 -5 6 6 6 11 1 17 -2 13 -5z
m-197 -184 c0 -4 -6 -10 -14 -13 -10 -4 -14 0 -13 12 1 18 27 18 27 1z m3 -54
c-10 -13 -20 -22 -22 -20 -4 4 29 44 36 44 2 0 -4 -11 -14 -24z"/>
<path d="M1210 3005 c0 -14 4 -25 10 -25 5 0 7 -6 4 -13 -2 -7 5 -22 16 -32
20 -18 21 -18 38 6 9 13 16 28 14 33 -1 4 2 14 8 21 8 10 7 15 -2 21 -7 4 -10
4 -6 -1 4 -4 -3 -16 -15 -26 -15 -12 -17 -18 -8 -19 21 0 4 -13 -19 -15 -15
-1 -17 1 -9 12 6 7 8 13 4 13 -5 0 0 10 11 21 19 21 19 22 -3 15 -14 -5 -23
-3 -23 3 0 6 -4 11 -10 11 -5 0 -10 -11 -10 -25z"/>
<path d="M3041 2984 c0 -11 3 -14 6 -6 3 7 2 16 -1 19 -3 4 -6 -2 -5 -13z"/>
<path d="M1203 2933 c2 -24 0 -43 -4 -43 -4 0 -9 -6 -12 -14 -4 -11 -1 -11 19
-2 13 6 22 17 19 24 -2 6 1 12 7 12 7 0 5 6 -4 13 -9 6 -19 21 -22 32 -3 11
-4 1 -3 -22z"/>
<path d="M1323 2958 c-14 -18 -22 -68 -11 -68 5 0 2 -10 -6 -21 -8 -12 -12
-28 -9 -35 3 -8 -1 -14 -11 -14 -13 0 -14 5 -5 27 7 19 7 29 0 31 -8 3 -7 10
0 25 7 13 -8 3 -35 -23 -25 -24 -45 -49 -44 -55 1 -5 -6 -23 -17 -38 -14 -22
-16 -30 -6 -36 10 -6 9 -10 -3 -14 -9 -4 -16 -11 -16 -17 0 -6 5 -8 11 -4 6 3
4 -5 -5 -19 -13 -20 -14 -26 -4 -30 10 -4 10 -7 0 -14 -6 -5 -20 -45 -29 -89
-25 -116 -102 -229 -135 -196 -33 33 -25 195 22 439 11 57 20 106 20 107 0 2
-12 6 -26 9 -17 3 -24 1 -21 -7 3 -7 -2 -23 -9 -37 -14 -23 -14 -22 -9 18 5
34 3 43 -12 51 -38 18 -64 9 -78 -28 -51 -138 -91 -474 -71 -589 14 -78 104
-141 202 -141 40 0 112 40 149 82 46 55 105 181 118 254 3 16 15 76 26 134 12
58 23 137 26 175 3 39 7 85 9 103 3 33 -5 41 -21 20z m-47 -167 c0 -11 -5 -17
-13 -14 -10 4 -11 9 -2 19 15 18 15 18 15 -5z"/>
<path d="M3215 2287 c-94 -44 -155 -138 -211 -322 -23 -75 -28 -109 -28 -200
0 -120 12 -169 51 -216 50 -59 118 -74 180 -41 60 32 189 166 222 229 25 50
26 60 6 60 -8 0 -15 -6 -15 -12 0 -7 -11 -17 -24 -23 -21 -9 -23 -8 -23 14 0
13 3 21 8 18 5 -3 9 2 9 10 0 8 -9 20 -20 26 -16 9 -22 8 -26 -5 -3 -8 -14
-15 -24 -15 -9 0 -47 -30 -83 -67 -36 -37 -70 -64 -74 -59 -4 4 -10 46 -12 93
-3 91 16 200 47 262 16 32 65 91 75 91 3 0 10 -22 17 -50 8 -33 21 -56 38 -70
21 -15 23 -19 10 -20 -10 0 -18 -7 -18 -16 0 -8 5 -12 10 -9 6 3 10 1 10 -4 0
-20 22 -11 27 10 4 14 12 19 24 16 11 -3 17 -1 13 4 -3 5 1 9 9 9 16 0 32 45
22 60 -4 6 -1 10 5 10 6 0 8 5 5 10 -3 6 -1 10 6 10 8 0 7 5 -2 17 -10 11 -10
17 -3 20 20 7 2 56 -33 86 -19 17 -32 35 -29 42 3 10 -24 23 -109 52 -5 1 -32
-8 -60 -20z"/>
<path d="M2779 2244 c-8 -9 -24 -82 -36 -168 -52 -348 -63 -479 -43 -491 5 -3
6 -13 3 -22 -5 -13 -2 -15 11 -10 15 6 16 2 10 -38 -4 -30 -2 -50 6 -60 20
-24 40 -18 41 13 1 16 3 20 6 10 7 -27 19 -21 20 10 1 47 3 53 13 47 12 -8 27
53 35 145 6 60 41 291 80 526 5 30 3 32 -30 38 -19 3 -50 9 -68 12 -24 4 -37
1 -48 -12z"/>
<path d="M2543 2213 c-12 -2 -24 -12 -27 -21 -8 -27 -45 -253 -48 -297 -2 -32
-7 -40 -23 -41 -11 -1 -38 -6 -59 -12 -38 -11 -61 -8 -52 6 2 4 11 52 20 107
9 55 19 113 21 128 8 49 -18 84 -72 95 -39 9 -51 8 -65 -5 -20 -18 -34 -59
-43 -128 -15 -124 -38 -241 -51 -260 -7 -12 -16 -61 -19 -110 -6 -98 -9 -126
-25 -228 -8 -57 -8 -72 5 -90 15 -21 15 -20 12 20 -2 23 0 40 4 37 4 -2 9 2
12 8 2 7 3 -15 1 -48 -4 -75 10 -95 49 -69 14 9 27 25 30 36 3 12 11 17 21 13
13 -5 16 1 16 33 0 21 4 43 9 49 5 5 11 39 14 75 8 93 27 135 66 143 17 3 45
9 61 12 17 3 30 2 30 -3 -1 -4 -11 -78 -24 -163 -16 -113 -19 -160 -12 -172
15 -24 26 -22 26 4 0 37 13 10 14 -29 1 -31 5 -38 26 -43 29 -8 60 14 60 42 0
10 3 17 8 17 24 -4 30 9 41 89 7 48 16 105 21 127 5 22 20 128 35 235 14 107
33 238 41 290 22 132 22 125 -6 125 -19 0 -25 -6 -31 -33 -10 -50 -21 -52 -13
-3 6 36 4 46 -11 58 -19 13 -23 14 -62 6z"/>
<path d="M1843 2136 c-93 -42 -165 -152 -218 -334 -24 -84 -27 -106 -23 -215
4 -137 21 -187 78 -227 71 -51 138 -34 237 61 109 104 164 183 148 209 -9 14
-25 12 -25 -2 0 -7 -11 -18 -24 -24 -21 -10 -24 -9 -22 12 0 13 4 24 9 24 4 0
7 6 7 14 0 21 -33 30 -46 12 -6 -9 -18 -16 -26 -16 -8 0 -45 -30 -81 -67 l-66
-67 -10 28 c-24 61 -4 240 36 330 9 21 30 52 46 69 33 36 42 29 53 -40 3 -23
12 -44 20 -47 9 -3 11 1 8 12 -3 9 1 6 10 -8 12 -21 13 -25 0 -28 -21 -5 -17
-20 7 -27 14 -5 25 -1 33 11 8 11 18 14 26 9 10 -6 12 -4 7 7 -4 12 -1 14 14
11 12 -3 19 0 20 8 0 8 3 28 6 44 2 17 5 51 5 77 1 39 -4 52 -32 81 -18 19
-32 39 -32 43 0 11 -68 43 -105 49 -16 3 -42 -1 -60 -9z m177 -556 c0 -5 -5
-10 -11 -10 -5 0 -7 5 -4 10 3 6 8 10 11 10 2 0 4 -4 4 -10z"/>
<path d="M1418 2086 c-10 -23 -8 -29 12 -51 23 -24 16 -37 -8 -13 -15 15 -26
4 -19 -17 8 -20 56 -20 64 1 3 9 -4 26 -18 40 -22 24 -23 26 -4 22 14 -2 20 3
20 17 0 30 -33 31 -47 1z"/>
<path d="M1484 2099 c-3 -6 -1 -15 6 -19 8 -5 10 -20 5 -49 -9 -53 10 -55 24
-3 6 20 11 43 11 50 0 6 5 12 10 12 6 0 10 5 10 10 0 14 -57 13 -66 -1z"/>
<path d="M1363 2093 c-17 -3 -23 -14 -28 -55 -8 -53 1 -73 25 -58 13 9 13 11
0 19 -12 9 -12 11 3 17 20 7 23 30 5 36 -8 3 -4 9 10 17 20 11 31 33 15 30 -5
-1 -18 -4 -30 -6z"/>
<path d="M1505 1960 c-5 -9 0 -13 15 -12 3 0 5 -15 6 -33 0 -23 -3 -32 -13
-28 -7 3 -13 -2 -13 -12 0 -12 7 -16 28 -13 25 3 27 6 25 48 -1 25 -2 48 -2
53 -1 11 -39 9 -46 -3z"/>
<path d="M1430 1944 c0 -10 6 -14 15 -10 20 7 19 4 -6 -38 -18 -31 -19 -37 -6
-42 22 -8 50 -1 55 14 2 6 -4 12 -12 12 -15 0 -15 3 -1 30 21 41 19 50 -15 50
-21 0 -30 -5 -30 -16z"/>
<path d="M1286 1938 c-24 -13 -20 -31 6 -23 l21 7 -21 -35 c-12 -19 -22 -39
-22 -46 0 -12 29 -15 54 -5 23 9 20 24 -6 24 -19 0 -20 1 -6 18 27 30 31 59
10 64 -11 3 -27 1 -36 -4z"/>
<path d="M1350 1924 c-13 -34 -13 -47 3 -68 28 -38 67 13 53 69 -9 34 -43 33
-56 -1z m40 -18 c0 -14 -4 -28 -10 -31 -6 -4 -10 7 -10 24 0 17 5 31 10 31 6
0 10 -11 10 -24z"/>
<path d="M2694 1519 c-3 -6 -1 -16 5 -22 8 -8 11 -5 11 11 0 24 -5 28 -16 11z"/>
</g>
</svg>
