<?xml version="1.0" standalone="no"?>
<!DOCTYPE svg PUBLIC "-//W3C//DTD SVG 20010904//EN"
 "http://www.w3.org/TR/2001/REC-SVG-20010904/DTD/svg10.dtd">
<svg version="1.0" xmlns="http://www.w3.org/2000/svg"
 width="500.000000pt" height="500.000000pt" viewBox="0 0 500.000000 500.000000"
 preserveAspectRatio="xMidYMid meet">

<g transform="translate(0.000000,500.000000) scale(0.100000,-0.100000)"
fill="#000000" stroke="none">
<path d="M3121 3859 c-46 -9 -47 -9 -131 -79 -142 -117 -185 -126 -225 -46
-29 59 -205 51 -182 -8 6 -16 8 -16 23 -2 18 19 75 21 92 4 7 -7 12 -22 12
-34 0 -33 35 -69 86 -89 63 -24 99 -12 209 70 111 83 121 88 157 81 76 -15
148 -100 148 -175 0 -45 38 -158 63 -186 15 -18 34 -27 59 -28 20 -2 40 -6 44
-10 4 -4 10 -7 14 -7 13 0 19 70 10 96 -5 13 -18 67 -29 119 -14 69 -27 106
-48 133 -15 20 -33 46 -39 57 -15 27 -75 67 -91 60 -8 -2 -12 -1 -9 3 6 10
-48 37 -89 45 -17 3 -50 1 -74 -4z m203 -185 c10 -25 -1 -29 -14 -5 -6 12 -7
21 -1 21 5 0 12 -7 15 -16z m50 -199 c3 -8 1 -15 -4 -15 -6 0 -10 7 -10 15 0
8 2 15 4 15 2 0 6 -7 10 -15z"/>
<path d="M3063 3619 c-27 -17 -93 -104 -93 -122 0 -4 -14 -29 -30 -56 -35 -56
-78 -77 -135 -67 -35 7 -67 40 -113 118 -43 69 -135 138 -187 138 -22 0 -25
-4 -26 -40 -1 -22 -2 -45 -3 -52 -1 -7 14 -15 32 -19 41 -8 63 -28 104 -93 18
-28 35 -53 38 -56 3 -3 13 -17 23 -32 25 -40 94 -76 159 -84 47 -5 64 -3 98
15 22 11 47 21 55 21 14 0 95 88 95 103 0 5 15 42 34 83 34 73 35 74 73 74 26
0 47 -7 62 -21 27 -26 51 -77 44 -96 -3 -7 0 -13 6 -13 13 0 15 86 2 94 -4 3
-6 16 -4 28 6 34 -15 56 -77 78 -69 25 -116 25 -157 -1z m37 -140 c-7 -11 -14
-18 -17 -15 -3 3 0 12 7 21 18 21 23 19 10 -6z m-20 -39 c0 -5 -5 -10 -11 -10
-5 0 -7 5 -4 10 3 6 8 10 11 10 2 0 4 -4 4 -10z"/>
<path d="M2445 3451 c-11 -4 -26 -6 -33 -4 -32 13 -82 -10 -136 -62 -50 -47
-56 -57 -46 -75 6 -11 15 -20 20 -20 5 0 12 -10 15 -21 6 -18 13 -21 45 -16
21 3 64 17 96 31 55 25 109 33 129 18 6 -4 29 -32 53 -63 46 -61 94 -91 115
-70 9 9 4 17 -20 36 -32 26 -75 128 -70 169 5 45 -114 100 -168 77z m-145 -91
c0 -5 -4 -10 -10 -10 -5 0 -10 5 -10 10 0 6 5 10 10 10 6 0 10 -4 10 -10z
m-30 -20 c0 -5 -5 -10 -11 -10 -5 0 -7 5 -4 10 3 6 8 10 11 10 2 0 4 -4 4 -10z"/>
<path d="M3154 3362 c-50 -37 -60 -50 -69 -90 l-7 -32 44 5 c23 3 45 10 46 15
2 6 10 10 17 10 7 0 25 6 39 14 36 18 63 10 78 -25 9 -20 20 -29 37 -29 21 0
23 3 17 32 -13 63 -83 128 -139 128 -13 0 -42 -13 -63 -28z"/>
</g>
</svg>
